%TF.GenerationSoftware,Altium Limited,Altium Designer,20.1.8 (145)*%
G04 Layer_Color=16777215*
%FSLAX45Y45*%
%MOMM*%
%TF.SameCoordinates,2A241EDF-A570-403E-9AC0-7F4DA974E4D7*%
%TF.FilePolarity,Positive*%
%TF.FileFunction,Legend,Top*%
%TF.Part,Single*%
G01*
G75*
%TA.AperFunction,NonConductor*%
%ADD38C,0.10160*%
%ADD39C,0.12700*%
%ADD59C,0.40000*%
G36*
X760672Y4950085D02*
X839809D01*
Y4888071D01*
X760672D01*
Y4808471D01*
X698196D01*
Y4888071D01*
X619059D01*
Y4950085D01*
X698196D01*
Y5029684D01*
X760672D01*
Y4950085D01*
D02*
G37*
G36*
X734525Y5335950D02*
X738690Y5335025D01*
X742392Y5333637D01*
X745169Y5331785D01*
X747483Y5330397D01*
X749334Y5329009D01*
X750259Y5328083D01*
X750722Y5327620D01*
X753499Y5323918D01*
X755350Y5319753D01*
X756738Y5315588D01*
X757664Y5311423D01*
X758127Y5307720D01*
X758590Y5304944D01*
Y5236914D01*
X758127Y5230898D01*
X757201Y5225344D01*
X756276Y5220716D01*
X754424Y5217014D01*
X753036Y5214237D01*
X752111Y5212386D01*
X751185Y5210998D01*
X750722Y5210535D01*
X747483Y5207758D01*
X743780Y5205444D01*
X740541Y5204056D01*
X737301Y5202668D01*
X734062Y5202205D01*
X731748Y5201742D01*
X730359D01*
X729897D01*
X725269Y5202205D01*
X721104Y5203130D01*
X717401Y5204519D01*
X714162Y5206370D01*
X711848Y5208221D01*
X709997Y5209609D01*
X709071Y5210535D01*
X708608Y5210998D01*
X705832Y5214700D01*
X703981Y5218865D01*
X702129Y5223030D01*
X701204Y5227195D01*
X700741Y5230898D01*
X700278Y5234137D01*
Y5302167D01*
X700741Y5308183D01*
X701667Y5313274D01*
X703055Y5317902D01*
X704443Y5321604D01*
X705832Y5324381D01*
X707220Y5326232D01*
X708146Y5327620D01*
X708608Y5328083D01*
X711848Y5330860D01*
X715550Y5332711D01*
X718790Y5334562D01*
X722492Y5335488D01*
X725269Y5335950D01*
X727583Y5336413D01*
X729434D01*
X729897D01*
X734525Y5335950D01*
D02*
G37*
G36*
X2959180Y6242748D02*
X2962882Y6242286D01*
X2967047Y6241360D01*
X2971212Y6239509D01*
X2975378Y6237658D01*
X2979080Y6234881D01*
X2979543Y6234418D01*
X2980468Y6233493D01*
X2981857Y6231642D01*
X2983708Y6229328D01*
X2985559Y6226088D01*
X2986947Y6222386D01*
X2987873Y6218221D01*
X2988336Y6213593D01*
Y6213130D01*
Y6211742D01*
X2987873Y6209428D01*
X2987410Y6206188D01*
X2986022Y6202949D01*
X2984633Y6199709D01*
X2982319Y6196007D01*
X2979543Y6192767D01*
X2979080Y6192305D01*
X2977692Y6191379D01*
X2975840Y6190453D01*
X2973064Y6189065D01*
X2969361Y6187214D01*
X2964733Y6186288D01*
X2959180Y6185363D01*
X2953164Y6184900D01*
X2885134D01*
X2882357Y6185363D01*
X2878655Y6185826D01*
X2874490Y6186751D01*
X2870325Y6188140D01*
X2866160Y6189991D01*
X2862457Y6192767D01*
X2861995Y6193230D01*
X2861069Y6194156D01*
X2859681Y6196007D01*
X2858292Y6198321D01*
X2856441Y6201098D01*
X2855053Y6204800D01*
X2854127Y6208965D01*
X2853664Y6213593D01*
Y6214056D01*
Y6215907D01*
X2854127Y6218221D01*
X2854590Y6220997D01*
X2855515Y6224700D01*
X2857367Y6227939D01*
X2859218Y6231642D01*
X2861995Y6234881D01*
X2862457Y6235344D01*
X2863846Y6236269D01*
X2865697Y6237658D01*
X2868474Y6239046D01*
X2872176Y6240435D01*
X2876804Y6241823D01*
X2881894Y6242748D01*
X2887911Y6243211D01*
X2955940D01*
X2959180Y6242748D01*
D02*
G37*
G36*
X3302007Y6275713D02*
X3381606D01*
Y6213237D01*
X3302007D01*
Y6134100D01*
X3239993D01*
Y6213237D01*
X3160394D01*
Y6275713D01*
X3239993D01*
Y6354850D01*
X3302007D01*
Y6275713D01*
D02*
G37*
G36*
X3226989Y874131D02*
X3230229D01*
X3238096Y873668D01*
X3246426Y872280D01*
X3255682Y870891D01*
X3265401Y868577D01*
X3274656Y865801D01*
X3275119D01*
X3275582Y865338D01*
X3276970Y864875D01*
X3278821Y864412D01*
X3283449Y862561D01*
X3289003Y860247D01*
X3295019Y857008D01*
X3301961Y853305D01*
X3308440Y849140D01*
X3314456Y844512D01*
X3315382Y844050D01*
X3317233Y842198D01*
X3320010Y839422D01*
X3323249Y836182D01*
X3326951Y832017D01*
X3330654Y827389D01*
X3334356Y822299D01*
X3337596Y816745D01*
X3338058Y816282D01*
X3338984Y814431D01*
X3339910Y811654D01*
X3341761Y807952D01*
X3343149Y804250D01*
X3344075Y799622D01*
X3345000Y795457D01*
X3345463Y790829D01*
Y790366D01*
Y788515D01*
X3345000Y786201D01*
X3344075Y782962D01*
X3343149Y779259D01*
X3341298Y775557D01*
X3338984Y771392D01*
X3335744Y767690D01*
X3335282Y767227D01*
X3333893Y766301D01*
X3332042Y764913D01*
X3329265Y763062D01*
X3325563Y761211D01*
X3321861Y759822D01*
X3317233Y758897D01*
X3312142Y758434D01*
X3309365D01*
X3307514Y758897D01*
X3302424Y759822D01*
X3297333Y762136D01*
X3296870D01*
X3296407Y763062D01*
X3293168Y764913D01*
X3289466Y768152D01*
X3285763Y772317D01*
X3285301Y773243D01*
X3283912Y775094D01*
X3282061Y778334D01*
X3279284Y782036D01*
X3273268Y790829D01*
X3270029Y794531D01*
X3266789Y798234D01*
X3266326Y798696D01*
X3265401Y799622D01*
X3264012Y801473D01*
X3261698Y803324D01*
X3258922Y805638D01*
X3255219Y808415D01*
X3251517Y810729D01*
X3246889Y813043D01*
X3246426Y813506D01*
X3244575Y813968D01*
X3241798Y814894D01*
X3238096Y816282D01*
X3233468Y817208D01*
X3228378Y818133D01*
X3221899Y818596D01*
X3214957Y819059D01*
X3211717D01*
X3207552Y818596D01*
X3202924Y818133D01*
X3197371Y817208D01*
X3191355Y816282D01*
X3184876Y814431D01*
X3178859Y812117D01*
X3178396Y811654D01*
X3176083Y810729D01*
X3173306Y809341D01*
X3169604Y807027D01*
X3165438Y804250D01*
X3160811Y800548D01*
X3156183Y796382D01*
X3151555Y791755D01*
X3151092Y791292D01*
X3149704Y789441D01*
X3147852Y786664D01*
X3145076Y782962D01*
X3142299Y777871D01*
X3139522Y772317D01*
X3136746Y765838D01*
X3134432Y758897D01*
X3133969Y757971D01*
X3133506Y755657D01*
X3132580Y751492D01*
X3131655Y746401D01*
X3130267Y739922D01*
X3129341Y732518D01*
X3128878Y724188D01*
X3128415Y715395D01*
Y714932D01*
Y713081D01*
Y710304D01*
X3128878Y706602D01*
X3129341Y702436D01*
X3129804Y697346D01*
X3130267Y691792D01*
X3131192Y685776D01*
X3133969Y672818D01*
X3138134Y659860D01*
X3140911Y653381D01*
X3144150Y646902D01*
X3147390Y641348D01*
X3151555Y635795D01*
X3152018Y635332D01*
X3152480Y634869D01*
X3153869Y633481D01*
X3155720Y631630D01*
X3158034Y629779D01*
X3161273Y627465D01*
X3164513Y624688D01*
X3168215Y622374D01*
X3172843Y620060D01*
X3177471Y617284D01*
X3183024Y614970D01*
X3188578Y613118D01*
X3195057Y611267D01*
X3201536Y610342D01*
X3208940Y609416D01*
X3216345Y608953D01*
X3220047D01*
X3223750Y609416D01*
X3228840D01*
X3234857Y610342D01*
X3241336Y611267D01*
X3248277Y612193D01*
X3255219Y614044D01*
X3256145Y614507D01*
X3258459Y614970D01*
X3261698Y616358D01*
X3266326Y617746D01*
X3271880Y620060D01*
X3277896Y622374D01*
X3290391Y628390D01*
Y670967D01*
X3243650D01*
X3240410Y671430D01*
X3236245Y671892D01*
X3231617Y672355D01*
X3226989Y673744D01*
X3222361Y675132D01*
X3218196Y676983D01*
X3217733Y677446D01*
X3216808Y678372D01*
X3214957Y679760D01*
X3213106Y682074D01*
X3211254Y684851D01*
X3209403Y688553D01*
X3208478Y692718D01*
X3208015Y697809D01*
Y698271D01*
Y699660D01*
X3208478Y701974D01*
X3208940Y704750D01*
X3209866Y707990D01*
X3211717Y711229D01*
X3213568Y714469D01*
X3216345Y717708D01*
X3216808Y718171D01*
X3217733Y719097D01*
X3220047Y720022D01*
X3222361Y721874D01*
X3226064Y723262D01*
X3229766Y724188D01*
X3234394Y725113D01*
X3239485Y725576D01*
X3313531D01*
X3316770Y725113D01*
X3320472D01*
X3324175Y724650D01*
X3332042Y722799D01*
X3332505D01*
X3333893Y722336D01*
X3335744Y721411D01*
X3338058Y720485D01*
X3340372Y718634D01*
X3343612Y716783D01*
X3345926Y714006D01*
X3348702Y710767D01*
X3349165Y710304D01*
X3349628Y708916D01*
X3350554Y707064D01*
X3351942Y704288D01*
X3353330Y700585D01*
X3354256Y695957D01*
X3354719Y690867D01*
X3355182Y684851D01*
Y627002D01*
Y626539D01*
Y625151D01*
Y622837D01*
X3354719Y620060D01*
X3354256Y613581D01*
X3352405Y607102D01*
Y606639D01*
X3351942Y605714D01*
X3351016Y604325D01*
X3350091Y602474D01*
X3347314Y598309D01*
X3343149Y593219D01*
X3342686Y592756D01*
X3342223Y592293D01*
X3340372Y590905D01*
X3338521Y589516D01*
X3336207Y587665D01*
X3333430Y585814D01*
X3326489Y581649D01*
X3326026D01*
X3325100Y581186D01*
X3323712Y580260D01*
X3321861Y579335D01*
X3319084Y577947D01*
X3316307Y576558D01*
X3309365Y573319D01*
X3301035Y569616D01*
X3291780Y566377D01*
X3282061Y562675D01*
X3272342Y559898D01*
X3271880D01*
X3270954Y559435D01*
X3269566D01*
X3267715Y558972D01*
X3265401Y558509D01*
X3262624Y557584D01*
X3255682Y556658D01*
X3247352Y555270D01*
X3237633Y553882D01*
X3226989Y553419D01*
X3215882Y552956D01*
X3209866D01*
X3206627Y553419D01*
X3202924D01*
X3198759Y553882D01*
X3194594Y554344D01*
X3184413Y555733D01*
X3173306Y557584D01*
X3161736Y559898D01*
X3150629Y563600D01*
X3150166D01*
X3149241Y564063D01*
X3147852Y564988D01*
X3145539Y565451D01*
X3143225Y566840D01*
X3140448Y568228D01*
X3133506Y571930D01*
X3125639Y576095D01*
X3117308Y581649D01*
X3108978Y588128D01*
X3100648Y595532D01*
Y595995D01*
X3099723Y596458D01*
X3097409Y599235D01*
X3093706Y603863D01*
X3089078Y609879D01*
X3083525Y617284D01*
X3078434Y626076D01*
X3073344Y636258D01*
X3068716Y646902D01*
Y647365D01*
X3068253Y648290D01*
X3067790Y650141D01*
X3066865Y651993D01*
X3065939Y655232D01*
X3065013Y658472D01*
X3064088Y662174D01*
X3063162Y666339D01*
X3061311Y676520D01*
X3059460Y687627D01*
X3058072Y700123D01*
X3057609Y713543D01*
Y714006D01*
Y715395D01*
Y717246D01*
Y719560D01*
X3058072Y722799D01*
Y726501D01*
X3058534Y730667D01*
X3058997Y735294D01*
X3060386Y745476D01*
X3062237Y756583D01*
X3064551Y768152D01*
X3068253Y779722D01*
Y780185D01*
X3068716Y781110D01*
X3069179Y782499D01*
X3070104Y784813D01*
X3071492Y787127D01*
X3072881Y790366D01*
X3076120Y797308D01*
X3080748Y805175D01*
X3085839Y813968D01*
X3092318Y822299D01*
X3099723Y830629D01*
X3100185Y831092D01*
X3100648Y831554D01*
X3103425Y834331D01*
X3108053Y838033D01*
X3114069Y842661D01*
X3121474Y847752D01*
X3130267Y853305D01*
X3140448Y858396D01*
X3151092Y863024D01*
X3151555D01*
X3152480Y863487D01*
X3154332Y863950D01*
X3156183Y864875D01*
X3159422Y865801D01*
X3162662Y866726D01*
X3166364Y867652D01*
X3170992Y869040D01*
X3180710Y870891D01*
X3192280Y872742D01*
X3205238Y874131D01*
X3219122Y874594D01*
X3224213D01*
X3226989Y874131D01*
D02*
G37*
G36*
X3809366D02*
X3813068Y873205D01*
X3816770Y872280D01*
X3820935Y870429D01*
X3824638Y867652D01*
X3828340Y864412D01*
X3828803Y863950D01*
X3829728Y862561D01*
X3831117Y860247D01*
X3832968Y857008D01*
X3834819Y852843D01*
X3836207Y847752D01*
X3837133Y842198D01*
X3837596Y835257D01*
Y596921D01*
Y596458D01*
Y595070D01*
X3837133Y592756D01*
Y589979D01*
X3836670Y586739D01*
X3835744Y583037D01*
X3832968Y575170D01*
X3830654Y571005D01*
X3828340Y566840D01*
X3825100Y563137D01*
X3821398Y559898D01*
X3817233Y557121D01*
X3812142Y554807D01*
X3806126Y553419D01*
X3799647Y552956D01*
X3796407D01*
X3794094Y553419D01*
X3788540Y554344D01*
X3782987Y555733D01*
X3782524D01*
X3781598Y556195D01*
X3780673Y556658D01*
X3778821Y557584D01*
X3774194Y559898D01*
X3769566Y563600D01*
X3769103Y564063D01*
X3768640Y564526D01*
X3765863Y567302D01*
X3762161Y571005D01*
X3758459Y575633D01*
Y576095D01*
X3757533Y576558D01*
X3757070Y577947D01*
X3755682Y579798D01*
X3752443Y584426D01*
X3748740Y589979D01*
X3641373Y765838D01*
Y592293D01*
Y591367D01*
Y589053D01*
X3640911Y585814D01*
X3639985Y581649D01*
X3639060Y577021D01*
X3637208Y571930D01*
X3634894Y567302D01*
X3631655Y563137D01*
X3631192Y562675D01*
X3629804Y561749D01*
X3627953Y559898D01*
X3625176Y558047D01*
X3621936Y556195D01*
X3617771Y554344D01*
X3613143Y553419D01*
X3608053Y552956D01*
X3605739D01*
X3602962Y553419D01*
X3599260Y554344D01*
X3595557Y555270D01*
X3591392Y557121D01*
X3587690Y559898D01*
X3583988Y563137D01*
X3583525Y563600D01*
X3582599Y564988D01*
X3581211Y567302D01*
X3579823Y570542D01*
X3577972Y574707D01*
X3576583Y579335D01*
X3575658Y585351D01*
X3575195Y591830D01*
Y825538D01*
Y826464D01*
Y828315D01*
Y831092D01*
X3575658Y834331D01*
X3576583Y842198D01*
X3577509Y846364D01*
X3578434Y849603D01*
X3578897Y850066D01*
X3579360Y851454D01*
X3580285Y853768D01*
X3582137Y856082D01*
X3583988Y859322D01*
X3586764Y862098D01*
X3589541Y864875D01*
X3593244Y867652D01*
X3593706Y868115D01*
X3595095Y868577D01*
X3596946Y869966D01*
X3599723Y871354D01*
X3602962Y872280D01*
X3606664Y873668D01*
X3610829Y874131D01*
X3614995Y874594D01*
X3618234D01*
X3620548Y874131D01*
X3625639Y873205D01*
X3630729Y871354D01*
X3631192D01*
X3632118Y870891D01*
X3634894Y869040D01*
X3638597Y866263D01*
X3642762Y863024D01*
X3643225D01*
X3643687Y862098D01*
X3646001Y859784D01*
X3649241Y855619D01*
X3652480Y850529D01*
Y850066D01*
X3653406Y849140D01*
X3654332Y847752D01*
X3655720Y845901D01*
X3658959Y840810D01*
X3662662Y834794D01*
X3772342Y659397D01*
Y835257D01*
Y836182D01*
Y838496D01*
X3772805Y841736D01*
X3773268Y845901D01*
X3774194Y850529D01*
X3776045Y855619D01*
X3777896Y860247D01*
X3780673Y864412D01*
X3781135Y864875D01*
X3782524Y865801D01*
X3784375Y867652D01*
X3787152Y869503D01*
X3790391Y871354D01*
X3794556Y873205D01*
X3799184Y874131D01*
X3804275Y874594D01*
X3806589D01*
X3809366Y874131D01*
D02*
G37*
G36*
X4133737Y869040D02*
X4137440Y868115D01*
X4141142Y866726D01*
X4145770Y864875D01*
X4149935Y862561D01*
X4153637Y858859D01*
X4154100Y858396D01*
X4155026Y857008D01*
X4156877Y854231D01*
X4158728Y850991D01*
X4160579Y846826D01*
X4162430Y841273D01*
X4163356Y835257D01*
X4163819Y827852D01*
Y611730D01*
X4285995D01*
X4289234Y611267D01*
X4292937Y610804D01*
X4297102Y609416D01*
X4301730Y608028D01*
X4305895Y605714D01*
X4309597Y602937D01*
X4310060Y602474D01*
X4310985Y601549D01*
X4312374Y599698D01*
X4314225Y597384D01*
X4316076Y594144D01*
X4317464Y590442D01*
X4318390Y586739D01*
X4318853Y582112D01*
Y581649D01*
Y579798D01*
X4318390Y577484D01*
X4317927Y574707D01*
X4316539Y571005D01*
X4315150Y567765D01*
X4312836Y564063D01*
X4309597Y560823D01*
X4309134Y560361D01*
X4307746Y559435D01*
X4305895Y558509D01*
X4302655Y557121D01*
X4298953Y555270D01*
X4294788Y554344D01*
X4289234Y553419D01*
X4283218Y552956D01*
X4131424D01*
X4127721Y553419D01*
X4123093Y554344D01*
X4118003Y555270D01*
X4112912Y557121D01*
X4107821Y559435D01*
X4103656Y562675D01*
X4103193Y563137D01*
X4102268Y564526D01*
X4100417Y566840D01*
X4099028Y570542D01*
X4097177Y575170D01*
X4095326Y580260D01*
X4094400Y587202D01*
X4093938Y594607D01*
Y827852D01*
Y828315D01*
Y828778D01*
Y831092D01*
X4094400Y834794D01*
X4095326Y839422D01*
X4096252Y844512D01*
X4097640Y849603D01*
X4099954Y854694D01*
X4103193Y858859D01*
X4103656Y859322D01*
X4105045Y860710D01*
X4106896Y862098D01*
X4110135Y864412D01*
X4113375Y866263D01*
X4118003Y867652D01*
X4122631Y869040D01*
X4128184Y869503D01*
X4130961D01*
X4133737Y869040D01*
D02*
G37*
G36*
X6275585Y6475584D02*
X6279287Y6474659D01*
X6282989Y6473270D01*
X6287617Y6471419D01*
X6291782Y6469105D01*
X6295485Y6465403D01*
X6295948Y6464940D01*
X6296873Y6463552D01*
X6298724Y6460775D01*
X6300575Y6457535D01*
X6302427Y6453370D01*
X6304278Y6447817D01*
X6305203Y6441801D01*
X6305666Y6434396D01*
Y6218274D01*
X6427842D01*
X6431082Y6217811D01*
X6434784Y6217348D01*
X6438949Y6215960D01*
X6443577Y6214572D01*
X6447742Y6212258D01*
X6451444Y6209481D01*
X6451907Y6209018D01*
X6452833Y6208093D01*
X6454221Y6206242D01*
X6456072Y6203928D01*
X6457923Y6200688D01*
X6459312Y6196986D01*
X6460237Y6193284D01*
X6460700Y6188656D01*
Y6188193D01*
Y6186342D01*
X6460237Y6184028D01*
X6459774Y6181251D01*
X6458386Y6177549D01*
X6456998Y6174309D01*
X6454684Y6170607D01*
X6451444Y6167367D01*
X6450982Y6166905D01*
X6449593Y6165979D01*
X6447742Y6165053D01*
X6444502Y6163665D01*
X6440800Y6161814D01*
X6436635Y6160888D01*
X6431082Y6159963D01*
X6425065Y6159500D01*
X6273271D01*
X6269569Y6159963D01*
X6264941Y6160888D01*
X6259850Y6161814D01*
X6254759Y6163665D01*
X6249669Y6165979D01*
X6245504Y6169219D01*
X6245041Y6169681D01*
X6244115Y6171070D01*
X6242264Y6173384D01*
X6240876Y6177086D01*
X6239025Y6181714D01*
X6237173Y6186804D01*
X6236248Y6193746D01*
X6235785Y6201151D01*
Y6434396D01*
Y6434859D01*
Y6435322D01*
Y6437636D01*
X6236248Y6441338D01*
X6237173Y6445966D01*
X6238099Y6451056D01*
X6239487Y6456147D01*
X6241801Y6461238D01*
X6245041Y6465403D01*
X6245504Y6465866D01*
X6246892Y6467254D01*
X6248743Y6468642D01*
X6251983Y6470956D01*
X6255222Y6472807D01*
X6259850Y6474196D01*
X6264478Y6475584D01*
X6270031Y6476047D01*
X6272808D01*
X6275585Y6475584D01*
D02*
G37*
G36*
X5951213Y6480675D02*
X5954915Y6479749D01*
X5958617Y6478824D01*
X5962783Y6476973D01*
X5966485Y6474196D01*
X5970187Y6470956D01*
X5970650Y6470494D01*
X5971576Y6469105D01*
X5972964Y6466791D01*
X5974815Y6463552D01*
X5976666Y6459387D01*
X5978055Y6454296D01*
X5978980Y6448743D01*
X5979443Y6441801D01*
Y6203465D01*
Y6203002D01*
Y6201614D01*
X5978980Y6199300D01*
Y6196523D01*
X5978517Y6193284D01*
X5977592Y6189581D01*
X5974815Y6181714D01*
X5972501Y6177549D01*
X5970187Y6173384D01*
X5966948Y6169681D01*
X5963245Y6166442D01*
X5959080Y6163665D01*
X5953990Y6161351D01*
X5947973Y6159963D01*
X5941494Y6159500D01*
X5938255D01*
X5935941Y6159963D01*
X5930387Y6160888D01*
X5924834Y6162277D01*
X5924371D01*
X5923446Y6162740D01*
X5922520Y6163202D01*
X5920669Y6164128D01*
X5916041Y6166442D01*
X5911413Y6170144D01*
X5910950Y6170607D01*
X5910488Y6171070D01*
X5907711Y6173846D01*
X5904009Y6177549D01*
X5900306Y6182177D01*
Y6182639D01*
X5899381Y6183102D01*
X5898918Y6184491D01*
X5897529Y6186342D01*
X5894290Y6190970D01*
X5890588Y6196523D01*
X5783221Y6372382D01*
Y6198837D01*
Y6197911D01*
Y6195597D01*
X5782758Y6192358D01*
X5781832Y6188193D01*
X5780907Y6183565D01*
X5779056Y6178474D01*
X5776742Y6173846D01*
X5773502Y6169681D01*
X5773040Y6169219D01*
X5771651Y6168293D01*
X5769800Y6166442D01*
X5767023Y6164591D01*
X5763784Y6162740D01*
X5759619Y6160888D01*
X5754991Y6159963D01*
X5749900Y6159500D01*
X5747586D01*
X5744809Y6159963D01*
X5741107Y6160888D01*
X5737405Y6161814D01*
X5733240Y6163665D01*
X5729537Y6166442D01*
X5725835Y6169681D01*
X5725372Y6170144D01*
X5724447Y6171532D01*
X5723058Y6173846D01*
X5721670Y6177086D01*
X5719819Y6181251D01*
X5718431Y6185879D01*
X5717505Y6191895D01*
X5717042Y6198374D01*
Y6432082D01*
Y6433008D01*
Y6434859D01*
Y6437636D01*
X5717505Y6440875D01*
X5718431Y6448743D01*
X5719356Y6452908D01*
X5720282Y6456147D01*
X5720744Y6456610D01*
X5721207Y6457998D01*
X5722133Y6460312D01*
X5723984Y6462626D01*
X5725835Y6465866D01*
X5728612Y6468642D01*
X5731389Y6471419D01*
X5735091Y6474196D01*
X5735554Y6474659D01*
X5736942Y6475121D01*
X5738793Y6476510D01*
X5741570Y6477898D01*
X5744809Y6478824D01*
X5748512Y6480212D01*
X5752677Y6480675D01*
X5756842Y6481138D01*
X5760081D01*
X5762395Y6480675D01*
X5767486Y6479749D01*
X5772577Y6477898D01*
X5773040D01*
X5773965Y6477435D01*
X5776742Y6475584D01*
X5780444Y6472807D01*
X5784609Y6469568D01*
X5785072D01*
X5785535Y6468642D01*
X5787849Y6466328D01*
X5791088Y6462163D01*
X5794328Y6457073D01*
Y6456610D01*
X5795253Y6455684D01*
X5796179Y6454296D01*
X5797567Y6452445D01*
X5800807Y6447354D01*
X5804509Y6441338D01*
X5914190Y6265941D01*
Y6441801D01*
Y6442726D01*
Y6445040D01*
X5914653Y6448280D01*
X5915115Y6452445D01*
X5916041Y6457073D01*
X5917892Y6462163D01*
X5919743Y6466791D01*
X5922520Y6470956D01*
X5922983Y6471419D01*
X5924371Y6472345D01*
X5926222Y6474196D01*
X5928999Y6476047D01*
X5932239Y6477898D01*
X5936404Y6479749D01*
X5941032Y6480675D01*
X5946122Y6481138D01*
X5948436D01*
X5951213Y6480675D01*
D02*
G37*
G36*
X5368837Y6495675D02*
X5372076D01*
X5379944Y6495212D01*
X5388274Y6493824D01*
X5397529Y6492435D01*
X5407248Y6490121D01*
X5416504Y6487345D01*
X5416967D01*
X5417429Y6486882D01*
X5418818Y6486419D01*
X5420669Y6485956D01*
X5425297Y6484105D01*
X5430850Y6481791D01*
X5436866Y6478552D01*
X5443808Y6474849D01*
X5450287Y6470684D01*
X5456304Y6466056D01*
X5457229Y6465594D01*
X5459080Y6463742D01*
X5461857Y6460966D01*
X5465097Y6457726D01*
X5468799Y6453561D01*
X5472501Y6448933D01*
X5476203Y6443843D01*
X5479443Y6438289D01*
X5479906Y6437826D01*
X5480831Y6435975D01*
X5481757Y6433198D01*
X5483608Y6429496D01*
X5484996Y6425794D01*
X5485922Y6421166D01*
X5486848Y6417001D01*
X5487310Y6412373D01*
Y6411910D01*
Y6410059D01*
X5486848Y6407745D01*
X5485922Y6404506D01*
X5484996Y6400803D01*
X5483145Y6397101D01*
X5480831Y6392936D01*
X5477592Y6389234D01*
X5477129Y6388771D01*
X5475741Y6387845D01*
X5473889Y6386457D01*
X5471113Y6384606D01*
X5467410Y6382755D01*
X5463708Y6381366D01*
X5459080Y6380441D01*
X5453990Y6379978D01*
X5451213D01*
X5449362Y6380441D01*
X5444271Y6381366D01*
X5439180Y6383680D01*
X5438718D01*
X5438255Y6384606D01*
X5435015Y6386457D01*
X5431313Y6389696D01*
X5427611Y6393861D01*
X5427148Y6394787D01*
X5425760Y6396638D01*
X5423908Y6399878D01*
X5421132Y6403580D01*
X5415115Y6412373D01*
X5411876Y6416075D01*
X5408636Y6419778D01*
X5408174Y6420240D01*
X5407248Y6421166D01*
X5405860Y6423017D01*
X5403546Y6424868D01*
X5400769Y6427182D01*
X5397067Y6429959D01*
X5393364Y6432273D01*
X5388736Y6434587D01*
X5388274Y6435050D01*
X5386423Y6435512D01*
X5383646Y6436438D01*
X5379944Y6437826D01*
X5375316Y6438752D01*
X5370225Y6439677D01*
X5363746Y6440140D01*
X5356804Y6440603D01*
X5353565D01*
X5349400Y6440140D01*
X5344772Y6439677D01*
X5339218Y6438752D01*
X5333202Y6437826D01*
X5326723Y6435975D01*
X5320707Y6433661D01*
X5320244Y6433198D01*
X5317930Y6432273D01*
X5315153Y6430885D01*
X5311451Y6428571D01*
X5307286Y6425794D01*
X5302658Y6422092D01*
X5298030Y6417926D01*
X5293402Y6413299D01*
X5292939Y6412836D01*
X5291551Y6410985D01*
X5289700Y6408208D01*
X5286923Y6404506D01*
X5284146Y6399415D01*
X5281370Y6393861D01*
X5278593Y6387382D01*
X5276279Y6380441D01*
X5275816Y6379515D01*
X5275353Y6377201D01*
X5274428Y6373036D01*
X5273502Y6367945D01*
X5272114Y6361466D01*
X5271188Y6354062D01*
X5270726Y6345732D01*
X5270263Y6336939D01*
Y6336476D01*
Y6334625D01*
Y6331848D01*
X5270726Y6328146D01*
X5271188Y6323980D01*
X5271651Y6318890D01*
X5272114Y6313336D01*
X5273039Y6307320D01*
X5275816Y6294362D01*
X5279981Y6281404D01*
X5282758Y6274925D01*
X5285998Y6268446D01*
X5289237Y6262892D01*
X5293402Y6257339D01*
X5293865Y6256876D01*
X5294328Y6256413D01*
X5295716Y6255025D01*
X5297567Y6253174D01*
X5299881Y6251323D01*
X5303121Y6249009D01*
X5306360Y6246232D01*
X5310063Y6243918D01*
X5314690Y6241604D01*
X5319318Y6238828D01*
X5324872Y6236514D01*
X5330425Y6234662D01*
X5336904Y6232811D01*
X5343383Y6231886D01*
X5350788Y6230960D01*
X5358192Y6230497D01*
X5361895D01*
X5365597Y6230960D01*
X5370688D01*
X5376704Y6231886D01*
X5383183Y6232811D01*
X5390125Y6233737D01*
X5397067Y6235588D01*
X5397992Y6236051D01*
X5400306Y6236514D01*
X5403546Y6237902D01*
X5408174Y6239290D01*
X5413727Y6241604D01*
X5419743Y6243918D01*
X5432239Y6249934D01*
Y6292511D01*
X5385497D01*
X5382257Y6292974D01*
X5378092Y6293436D01*
X5373464Y6293899D01*
X5368837Y6295288D01*
X5364209Y6296676D01*
X5360044Y6298527D01*
X5359581Y6298990D01*
X5358655Y6299916D01*
X5356804Y6301304D01*
X5354953Y6303618D01*
X5353102Y6306395D01*
X5351251Y6310097D01*
X5350325Y6314262D01*
X5349862Y6319353D01*
Y6319815D01*
Y6321204D01*
X5350325Y6323518D01*
X5350788Y6326294D01*
X5351713Y6329534D01*
X5353565Y6332773D01*
X5355416Y6336013D01*
X5358192Y6339252D01*
X5358655Y6339715D01*
X5359581Y6340641D01*
X5361895Y6341566D01*
X5364209Y6343418D01*
X5367911Y6344806D01*
X5371613Y6345732D01*
X5376241Y6346657D01*
X5381332Y6347120D01*
X5455378D01*
X5458617Y6346657D01*
X5462320D01*
X5466022Y6346194D01*
X5473889Y6344343D01*
X5474352D01*
X5475741Y6343880D01*
X5477592Y6342955D01*
X5479906Y6342029D01*
X5482220Y6340178D01*
X5485459Y6338327D01*
X5487773Y6335550D01*
X5490550Y6332311D01*
X5491013Y6331848D01*
X5491475Y6330460D01*
X5492401Y6328608D01*
X5493789Y6325832D01*
X5495178Y6322129D01*
X5496103Y6317501D01*
X5496566Y6312411D01*
X5497029Y6306395D01*
Y6248546D01*
Y6248083D01*
Y6246695D01*
Y6244381D01*
X5496566Y6241604D01*
X5496103Y6235125D01*
X5494252Y6228646D01*
Y6228183D01*
X5493789Y6227258D01*
X5492864Y6225869D01*
X5491938Y6224018D01*
X5489161Y6219853D01*
X5484996Y6214763D01*
X5484534Y6214300D01*
X5484071Y6213837D01*
X5482220Y6212449D01*
X5480369Y6211060D01*
X5478055Y6209209D01*
X5475278Y6207358D01*
X5468336Y6203193D01*
X5467873D01*
X5466948Y6202730D01*
X5465559Y6201804D01*
X5463708Y6200879D01*
X5460931Y6199491D01*
X5458155Y6198102D01*
X5451213Y6194863D01*
X5442883Y6191160D01*
X5433627Y6187921D01*
X5423908Y6184219D01*
X5414190Y6181442D01*
X5413727D01*
X5412801Y6180979D01*
X5411413D01*
X5409562Y6180516D01*
X5407248Y6180053D01*
X5404471Y6179128D01*
X5397529Y6178202D01*
X5389199Y6176814D01*
X5379481Y6175426D01*
X5368837Y6174963D01*
X5357730Y6174500D01*
X5351713D01*
X5348474Y6174963D01*
X5344772D01*
X5340607Y6175426D01*
X5336441Y6175888D01*
X5326260Y6177277D01*
X5315153Y6179128D01*
X5303583Y6181442D01*
X5292477Y6185144D01*
X5292014D01*
X5291088Y6185607D01*
X5289700Y6186532D01*
X5287386Y6186995D01*
X5285072Y6188384D01*
X5282295Y6189772D01*
X5275353Y6193474D01*
X5267486Y6197639D01*
X5259156Y6203193D01*
X5250826Y6209672D01*
X5242495Y6217076D01*
Y6217539D01*
X5241570Y6218002D01*
X5239256Y6220779D01*
X5235554Y6225407D01*
X5230926Y6231423D01*
X5225372Y6238828D01*
X5220282Y6247620D01*
X5215191Y6257802D01*
X5210563Y6268446D01*
Y6268909D01*
X5210100Y6269834D01*
X5209638Y6271685D01*
X5208712Y6273537D01*
X5207786Y6276776D01*
X5206861Y6280016D01*
X5205935Y6283718D01*
X5205010Y6287883D01*
X5203159Y6298064D01*
X5201307Y6309171D01*
X5199919Y6321667D01*
X5199456Y6335087D01*
Y6335550D01*
Y6336939D01*
Y6338790D01*
Y6341104D01*
X5199919Y6344343D01*
Y6348045D01*
X5200382Y6352211D01*
X5200845Y6356838D01*
X5202233Y6367020D01*
X5204084Y6378127D01*
X5206398Y6389696D01*
X5210100Y6401266D01*
Y6401729D01*
X5210563Y6402654D01*
X5211026Y6404043D01*
X5211951Y6406357D01*
X5213340Y6408671D01*
X5214728Y6411910D01*
X5217968Y6418852D01*
X5222596Y6426719D01*
X5227686Y6435512D01*
X5234165Y6443843D01*
X5241570Y6452173D01*
X5242033Y6452636D01*
X5242495Y6453098D01*
X5245272Y6455875D01*
X5249900Y6459577D01*
X5255916Y6464205D01*
X5263321Y6469296D01*
X5272114Y6474849D01*
X5282295Y6479940D01*
X5292939Y6484568D01*
X5293402D01*
X5294328Y6485031D01*
X5296179Y6485494D01*
X5298030Y6486419D01*
X5301270Y6487345D01*
X5304509Y6488270D01*
X5308211Y6489196D01*
X5312839Y6490584D01*
X5322558Y6492435D01*
X5334128Y6494286D01*
X5347086Y6495675D01*
X5360969Y6496138D01*
X5366060D01*
X5368837Y6495675D01*
D02*
G37*
D38*
X3421000Y5664200D02*
G03*
X3421000Y5664200I-150000J0D01*
G01*
X1385805Y5181600D02*
G03*
X1385805Y5181600I-150000J0D01*
G01*
X3356395Y1417576D02*
G03*
X3356395Y1417576I-150000J0D01*
G01*
X6498243Y5638800D02*
G03*
X6498243Y5638800I-150000J0D01*
G01*
X4415402Y3801193D02*
X6917302D01*
Y1896193D02*
Y3801193D01*
X4415402Y1896193D02*
X6917302D01*
X4415402D02*
Y3801193D01*
X2616200Y5588000D02*
Y5892800D01*
X1041400D02*
X2616200D01*
X1041400Y5588000D02*
X2616200D01*
X1041400D02*
Y5892800D01*
X1968500Y5181600D02*
X2527300D01*
Y4876800D02*
Y5181600D01*
X1968500Y4876800D02*
X2527300D01*
X1968500D02*
Y5181600D01*
X4098100Y2503460D02*
Y4603460D01*
X648100D02*
X4098100D01*
X648100Y2503460D02*
Y4603460D01*
Y2503460D02*
X4098100D01*
X3512300Y5245100D02*
Y6045200D01*
X2724900D02*
X3512300D01*
X2724900Y5245100D02*
Y6045200D01*
Y5245100D02*
X3512300D01*
X854806Y5422900D02*
X1654906D01*
X854806Y4635500D02*
Y5422900D01*
Y4635500D02*
X1654906D01*
Y5422900D01*
X4117103Y5123180D02*
X7020323D01*
Y3850640D02*
Y5123180D01*
X4117103Y3850640D02*
X7020323D01*
X4117103D02*
Y5123180D01*
X2906395Y1867576D02*
X4506395D01*
Y967576D02*
Y1867576D01*
X2906395Y967576D02*
X4506395D01*
X2906395D02*
Y1867576D01*
X5048243Y5188800D02*
X6648242D01*
X5048243D02*
Y6088800D01*
X6648242D01*
Y5188800D02*
Y6088800D01*
X6595002Y1023876D02*
Y1811276D01*
X4537602D02*
X6595002D01*
X4537602Y1023876D02*
Y1811276D01*
Y1023876D02*
X6595002D01*
X936886Y2474659D02*
X2511686D01*
X936886Y963359D02*
Y2474659D01*
X2511686Y963359D02*
Y2474659D01*
X936886Y963359D02*
X2511686D01*
D39*
X4290073Y3738870D02*
Y3677930D01*
X4330700D01*
X4351013D02*
X4371327D01*
X4361170D01*
Y3738870D01*
X4351013Y3728713D01*
X619750Y3331046D02*
X558810D01*
Y3361516D01*
X568966Y3371673D01*
X589280D01*
X599436Y3361516D01*
Y3331046D01*
X568966Y3432613D02*
X558810Y3422456D01*
Y3402143D01*
X568966Y3391986D01*
X579123D01*
X589280Y3402143D01*
Y3422456D01*
X599436Y3432613D01*
X609593D01*
X619750Y3422456D01*
Y3402143D01*
X609593Y3391986D01*
X558810Y3452927D02*
X609593D01*
X619750Y3463083D01*
Y3483397D01*
X609593Y3493553D01*
X558810D01*
X2202395Y5279206D02*
X2182082D01*
X2192239D01*
Y5228423D01*
X2182082Y5218266D01*
X2171925D01*
X2161769Y5228423D01*
X2222709Y5218266D02*
Y5279206D01*
X2253179D01*
X2263336Y5269050D01*
Y5248736D01*
X2253179Y5238580D01*
X2222709D01*
X2283649Y5218266D02*
X2303962D01*
X2293806D01*
Y5279206D01*
X2283649Y5269050D01*
X1645955Y6024870D02*
X1666268D01*
X1656111D01*
Y5963930D01*
X1645955D01*
X1666268D01*
X1737365Y6014713D02*
X1727208Y6024870D01*
X1706895D01*
X1696738Y6014713D01*
Y5974087D01*
X1706895Y5963930D01*
X1727208D01*
X1737365Y5974087D01*
X1798305Y6014713D02*
X1788149Y6024870D01*
X1767835D01*
X1757678Y6014713D01*
Y6004557D01*
X1767835Y5994400D01*
X1788149D01*
X1798305Y5984243D01*
Y5974087D01*
X1788149Y5963930D01*
X1767835D01*
X1757678Y5974087D01*
X1818619Y5963930D02*
Y6024870D01*
X1849089D01*
X1859245Y6014713D01*
Y5994400D01*
X1849089Y5984243D01*
X1818619D01*
X464451Y4885120D02*
X525391D01*
Y4915590D01*
X515235Y4925747D01*
X474608D01*
X464451Y4915590D01*
Y4885120D01*
Y4946060D02*
X525391D01*
Y4976531D01*
X515235Y4986687D01*
X505078D01*
X494921Y4976531D01*
Y4946060D01*
Y4976531D01*
X484765Y4986687D01*
X474608D01*
X464451Y4976531D01*
Y4946060D01*
X474608Y5047627D02*
X464451Y5037471D01*
Y5017157D01*
X474608Y5007001D01*
X515235D01*
X525391Y5017157D01*
Y5037471D01*
X515235Y5047627D01*
X494921D01*
Y5027314D01*
X535548Y5067941D02*
Y5108568D01*
X525391Y5128881D02*
X464451D01*
Y5159351D01*
X474608Y5169508D01*
X494921D01*
X505078Y5159351D01*
Y5128881D01*
X464451Y5189821D02*
X525391D01*
X505078Y5210135D01*
X525391Y5230448D01*
X464451D01*
X525391Y5250761D02*
X464451D01*
Y5281232D01*
X474608Y5291388D01*
X494921D01*
X505078Y5281232D01*
Y5250761D01*
Y5271075D02*
X525391Y5291388D01*
X4627351Y5164171D02*
Y5225111D01*
X4657822D01*
X4667978Y5214955D01*
Y5194641D01*
X4657822Y5184485D01*
X4627351D01*
X4647665D02*
X4667978Y5164171D01*
X4728918Y5225111D02*
X4688292D01*
Y5164171D01*
X4728918D01*
X4688292Y5194641D02*
X4708605D01*
X4749232Y5225111D02*
Y5164171D01*
X4789859D01*
X4810172D02*
Y5204798D01*
X4830485Y5225111D01*
X4850799Y5204798D01*
Y5164171D01*
Y5194641D01*
X4810172D01*
X4871112Y5225111D02*
Y5214955D01*
X4891426Y5194641D01*
X4911739Y5214955D01*
Y5225111D01*
X4891426Y5194641D02*
Y5164171D01*
X5481350Y982970D02*
X5440723D01*
Y952500D01*
X5461036D01*
X5440723D01*
Y922030D01*
X5501663Y982970D02*
Y932187D01*
X5511820Y922030D01*
X5532133D01*
X5542290Y932187D01*
Y982970D01*
X5603230Y972813D02*
X5593073Y982970D01*
X5572760D01*
X5562603Y972813D01*
Y962657D01*
X5572760Y952500D01*
X5593073D01*
X5603230Y942343D01*
Y932187D01*
X5593073Y922030D01*
X5572760D01*
X5562603Y932187D01*
X5664170Y982970D02*
X5623543D01*
Y922030D01*
X5664170D01*
X5623543Y952500D02*
X5643857D01*
X5684484Y922030D02*
X5704797D01*
X5694640D01*
Y982970D01*
X5684484Y972813D01*
X1422483Y883913D02*
X1412326Y894070D01*
X1392012D01*
X1381856Y883913D01*
Y843287D01*
X1392012Y833130D01*
X1412326D01*
X1422483Y843287D01*
X1473266Y894070D02*
X1452953D01*
X1442796Y883913D01*
Y843287D01*
X1452953Y833130D01*
X1473266D01*
X1483423Y843287D01*
Y883913D01*
X1473266Y894070D01*
X1503736Y833130D02*
Y894070D01*
X1544363Y833130D01*
Y894070D01*
X1564676D02*
X1605303D01*
X1584990D01*
Y833130D01*
X1625617D02*
Y894070D01*
X1656087D01*
X1666243Y883913D01*
Y863600D01*
X1656087Y853443D01*
X1625617D01*
X1645930D02*
X1666243Y833130D01*
X1717027Y894070D02*
X1696713D01*
X1686557Y883913D01*
Y843287D01*
X1696713Y833130D01*
X1717027D01*
X1727183Y843287D01*
Y883913D01*
X1717027Y894070D01*
X1747497D02*
Y833130D01*
X1788124D01*
X1808437Y894070D02*
Y833130D01*
X1849064D01*
X1910004Y894070D02*
X1869377D01*
Y833130D01*
X1910004D01*
X1869377Y863600D02*
X1889691D01*
X1930317Y833130D02*
Y894070D01*
X1960788D01*
X1970944Y883913D01*
Y863600D01*
X1960788Y853443D01*
X1930317D01*
X1950631D02*
X1970944Y833130D01*
D59*
X2636200Y5588000D02*
G03*
X2636200Y5588000I-20000J0D01*
G01*
X2624362Y6541520D02*
Y6691472D01*
X2699338D01*
X2724330Y6666480D01*
Y6616496D01*
X2699338Y6591504D01*
X2624362D01*
X2774313Y6691472D02*
Y6541520D01*
X2824297Y6591504D01*
X2874281Y6541520D01*
Y6691472D01*
X2924265Y6541520D02*
Y6691472D01*
X2974249Y6641488D01*
X3024232Y6691472D01*
Y6541520D01*
X3074216Y6516528D02*
X3174184D01*
X3299144Y6691472D02*
X3249160D01*
X3224168Y6666480D01*
Y6566512D01*
X3249160Y6541520D01*
X3299144D01*
X3324135Y6566512D01*
Y6666480D01*
X3299144Y6691472D01*
X3374119D02*
Y6566512D01*
X3399111Y6541520D01*
X3449095D01*
X3474087Y6566512D01*
Y6691472D01*
X3524071D02*
X3624038D01*
X3574055D01*
Y6541520D01*
X5154807Y6636894D02*
Y6786846D01*
X5204791Y6736862D01*
X5254774Y6786846D01*
Y6636894D01*
X5304758D02*
Y6736862D01*
X5354742Y6786846D01*
X5404726Y6736862D01*
Y6636894D01*
Y6711870D01*
X5304758D01*
X5454710Y6786846D02*
X5504694D01*
X5479702D01*
Y6636894D01*
X5454710D01*
X5504694D01*
X5579669D02*
Y6786846D01*
X5679637Y6636894D01*
Y6786846D01*
X5829588Y6761854D02*
X5804596Y6786846D01*
X5754613D01*
X5729621Y6761854D01*
Y6736862D01*
X5754613Y6711870D01*
X5804596D01*
X5829588Y6686878D01*
Y6661886D01*
X5804596Y6636894D01*
X5754613D01*
X5729621Y6661886D01*
X5879572Y6611902D02*
X5979540D01*
X6104499Y6786846D02*
X6054515D01*
X6029524Y6761854D01*
Y6661886D01*
X6054515Y6636894D01*
X6104499D01*
X6129491Y6661886D01*
Y6761854D01*
X6104499Y6786846D01*
X6179475D02*
Y6661886D01*
X6204467Y6636894D01*
X6254451D01*
X6279443Y6661886D01*
Y6786846D01*
X6329427D02*
X6429394D01*
X6379410D01*
Y6636894D01*
X3107778Y267720D02*
Y417672D01*
X3157762Y367688D01*
X3207746Y417672D01*
Y267720D01*
X3257730D02*
Y367688D01*
X3307713Y417672D01*
X3357697Y367688D01*
Y267720D01*
Y342696D01*
X3257730D01*
X3407681Y417672D02*
X3457665D01*
X3432673D01*
Y267720D01*
X3407681D01*
X3457665D01*
X3532641D02*
Y417672D01*
X3632608Y267720D01*
Y417672D01*
X3782560Y392680D02*
X3757568Y417672D01*
X3707584D01*
X3682592Y392680D01*
Y367688D01*
X3707584Y342696D01*
X3757568D01*
X3782560Y317704D01*
Y292712D01*
X3757568Y267720D01*
X3707584D01*
X3682592Y292712D01*
X3832544Y242728D02*
X3932511D01*
X3982495Y417672D02*
X4032479D01*
X4007487D01*
Y267720D01*
X3982495D01*
X4032479D01*
X4107455D02*
Y417672D01*
X4207422Y267720D01*
Y417672D01*
%TF.MD5,d877a843f02646a1b78f5e681f1de793*%
M02*
