%TF.GenerationSoftware,Altium Limited,Altium Designer,20.1.8 (145)*%
G04 Layer_Color=16711833*
%FSLAX45Y45*%
%MOMM*%
%TF.SameCoordinates,2A241EDF-A570-403E-9AC0-7F4DA974E4D7*%
%TF.FilePolarity,Negative*%
%TF.FileFunction,Soldermask,Bot*%
%TF.Part,Single*%
G01*
G75*
%TA.AperFunction,SMDPad,CuDef*%
G04:AMPARAMS|DCode=40|XSize=1.0532mm|YSize=1.0532mm|CornerRadius=0.1441mm|HoleSize=0mm|Usage=FLASHONLY|Rotation=180.000|XOffset=0mm|YOffset=0mm|HoleType=Round|Shape=RoundedRectangle|*
%AMROUNDEDRECTD40*
21,1,1.05320,0.76500,0,0,180.0*
21,1,0.76500,1.05320,0,0,180.0*
1,1,0.28820,-0.38250,0.38250*
1,1,0.28820,0.38250,0.38250*
1,1,0.28820,0.38250,-0.38250*
1,1,0.28820,-0.38250,-0.38250*
%
%ADD40ROUNDEDRECTD40*%
G04:AMPARAMS|DCode=41|XSize=1.0532mm|YSize=1.0532mm|CornerRadius=0.1441mm|HoleSize=0mm|Usage=FLASHONLY|Rotation=270.000|XOffset=0mm|YOffset=0mm|HoleType=Round|Shape=RoundedRectangle|*
%AMROUNDEDRECTD41*
21,1,1.05320,0.76500,0,0,270.0*
21,1,0.76500,1.05320,0,0,270.0*
1,1,0.28820,-0.38250,-0.38250*
1,1,0.28820,-0.38250,0.38250*
1,1,0.28820,0.38250,0.38250*
1,1,0.28820,0.38250,-0.38250*
%
%ADD41ROUNDEDRECTD41*%
G04:AMPARAMS|DCode=42|XSize=0.8032mm|YSize=1.3032mm|CornerRadius=0.1316mm|HoleSize=0mm|Usage=FLASHONLY|Rotation=270.000|XOffset=0mm|YOffset=0mm|HoleType=Round|Shape=RoundedRectangle|*
%AMROUNDEDRECTD42*
21,1,0.80320,1.04000,0,0,270.0*
21,1,0.54000,1.30320,0,0,270.0*
1,1,0.26320,-0.52000,-0.27000*
1,1,0.26320,-0.52000,0.27000*
1,1,0.26320,0.52000,0.27000*
1,1,0.26320,0.52000,-0.27000*
%
%ADD42ROUNDEDRECTD42*%
G04:AMPARAMS|DCode=43|XSize=1.0532mm|YSize=1.1032mm|CornerRadius=0.1441mm|HoleSize=0mm|Usage=FLASHONLY|Rotation=90.000|XOffset=0mm|YOffset=0mm|HoleType=Round|Shape=RoundedRectangle|*
%AMROUNDEDRECTD43*
21,1,1.05320,0.81500,0,0,90.0*
21,1,0.76500,1.10320,0,0,90.0*
1,1,0.28820,0.40750,0.38250*
1,1,0.28820,0.40750,-0.38250*
1,1,0.28820,-0.40750,-0.38250*
1,1,0.28820,-0.40750,0.38250*
%
%ADD43ROUNDEDRECTD43*%
G04:AMPARAMS|DCode=44|XSize=1.4782mm|YSize=1.1032mm|CornerRadius=0.1466mm|HoleSize=0mm|Usage=FLASHONLY|Rotation=270.000|XOffset=0mm|YOffset=0mm|HoleType=Round|Shape=RoundedRectangle|*
%AMROUNDEDRECTD44*
21,1,1.47820,0.81000,0,0,270.0*
21,1,1.18500,1.10320,0,0,270.0*
1,1,0.29320,-0.40500,-0.59250*
1,1,0.29320,-0.40500,0.59250*
1,1,0.29320,0.40500,0.59250*
1,1,0.29320,0.40500,-0.59250*
%
%ADD44ROUNDEDRECTD44*%
G04:AMPARAMS|DCode=45|XSize=0.7032mm|YSize=1.0032mm|CornerRadius=0.1041mm|HoleSize=0mm|Usage=FLASHONLY|Rotation=270.000|XOffset=0mm|YOffset=0mm|HoleType=Round|Shape=RoundedRectangle|*
%AMROUNDEDRECTD45*
21,1,0.70320,0.79500,0,0,270.0*
21,1,0.49500,1.00320,0,0,270.0*
1,1,0.20820,-0.39750,-0.24750*
1,1,0.20820,-0.39750,0.24750*
1,1,0.20820,0.39750,0.24750*
1,1,0.20820,0.39750,-0.24750*
%
%ADD45ROUNDEDRECTD45*%
G04:AMPARAMS|DCode=46|XSize=1.4782mm|YSize=1.1032mm|CornerRadius=0.1466mm|HoleSize=0mm|Usage=FLASHONLY|Rotation=0.000|XOffset=0mm|YOffset=0mm|HoleType=Round|Shape=RoundedRectangle|*
%AMROUNDEDRECTD46*
21,1,1.47820,0.81000,0,0,0.0*
21,1,1.18500,1.10320,0,0,0.0*
1,1,0.29320,0.59250,-0.40500*
1,1,0.29320,-0.59250,-0.40500*
1,1,0.29320,-0.59250,0.40500*
1,1,0.29320,0.59250,0.40500*
%
%ADD46ROUNDEDRECTD46*%
G04:AMPARAMS|DCode=47|XSize=0.7032mm|YSize=1.2032mm|CornerRadius=0.1266mm|HoleSize=0mm|Usage=FLASHONLY|Rotation=270.000|XOffset=0mm|YOffset=0mm|HoleType=Round|Shape=RoundedRectangle|*
%AMROUNDEDRECTD47*
21,1,0.70320,0.95000,0,0,270.0*
21,1,0.45000,1.20320,0,0,270.0*
1,1,0.25320,-0.47500,-0.22500*
1,1,0.25320,-0.47500,0.22500*
1,1,0.25320,0.47500,0.22500*
1,1,0.25320,0.47500,-0.22500*
%
%ADD47ROUNDEDRECTD47*%
%ADD48O,1.70320X0.80320*%
G04:AMPARAMS|DCode=49|XSize=2.5532mm|YSize=2.3032mm|CornerRadius=0.1121mm|HoleSize=0mm|Usage=FLASHONLY|Rotation=0.000|XOffset=0mm|YOffset=0mm|HoleType=Round|Shape=RoundedRectangle|*
%AMROUNDEDRECTD49*
21,1,2.55320,2.07900,0,0,0.0*
21,1,2.32900,2.30320,0,0,0.0*
1,1,0.22420,1.16450,-1.03950*
1,1,0.22420,-1.16450,-1.03950*
1,1,0.22420,-1.16450,1.03950*
1,1,0.22420,1.16450,1.03950*
%
%ADD49ROUNDEDRECTD49*%
%TA.AperFunction,ComponentPad*%
%ADD50C,1.70320*%
%ADD51O,1.70320X1.65320*%
G04:AMPARAMS|DCode=52|XSize=1.7032mm|YSize=1.6532mm|CornerRadius=0.28285mm|HoleSize=0mm|Usage=FLASHONLY|Rotation=180.000|XOffset=0mm|YOffset=0mm|HoleType=Round|Shape=RoundedRectangle|*
%AMROUNDEDRECTD52*
21,1,1.70320,1.08750,0,0,180.0*
21,1,1.13750,1.65320,0,0,180.0*
1,1,0.56570,-0.56875,0.54375*
1,1,0.56570,0.56875,0.54375*
1,1,0.56570,0.56875,-0.54375*
1,1,0.56570,-0.56875,-0.54375*
%
%ADD52ROUNDEDRECTD52*%
%ADD53C,1.72720*%
%ADD54O,3.20320X1.70320*%
%ADD55C,2.00320*%
%ADD56C,2.20320*%
%TA.AperFunction,ViaPad*%
%ADD57C,5.20320*%
%TA.AperFunction,ComponentPad*%
%ADD58C,3.45440*%
D40*
X2705100Y5600700D02*
D03*
Y5730700D02*
D03*
X2349500Y5537200D02*
D03*
Y5407200D02*
D03*
X2184400Y3352800D02*
D03*
Y3222800D02*
D03*
X2032000Y3352800D02*
D03*
Y3222800D02*
D03*
X3619500Y5203900D02*
D03*
Y5073900D02*
D03*
X1447800Y3978100D02*
D03*
Y3848100D02*
D03*
Y3711400D02*
D03*
Y3581400D02*
D03*
X2336800Y3352800D02*
D03*
Y3222800D02*
D03*
D41*
X4249100Y5511800D02*
D03*
X4119100D02*
D03*
X2209800Y5402500D02*
D03*
X2079800D02*
D03*
Y5537200D02*
D03*
X2209800D02*
D03*
X4116100Y5359400D02*
D03*
X4246100D02*
D03*
X2836300Y5461000D02*
D03*
X2706300Y5461000D02*
D03*
X2984500Y5448300D02*
D03*
X3114500D02*
D03*
X2692400Y4889500D02*
D03*
X2822400D02*
D03*
D42*
X4064000Y5168900D02*
D03*
X3814000Y5073900D02*
D03*
X3813999Y5263900D02*
D03*
X2956300Y5181600D02*
D03*
X2706300Y5086600D02*
D03*
Y5276600D02*
D03*
D43*
X2239900Y5219700D02*
D03*
X2374900D02*
D03*
X2570100Y5918200D02*
D03*
X2705100D02*
D03*
D44*
X2958300Y4889500D02*
D03*
X3133540D02*
D03*
X3279160D02*
D03*
X3454400D02*
D03*
X3611239Y5448300D02*
D03*
X3435999D02*
D03*
D45*
X4466100Y5168900D02*
D03*
X4246100D02*
D03*
D46*
X1371600Y4498700D02*
D03*
Y4323460D02*
D03*
D47*
X3436000Y5276600D02*
D03*
X3436000Y5086600D02*
D03*
X3141000Y5276600D02*
D03*
X3141000Y5181600D02*
D03*
X3141000Y5086600D02*
D03*
D48*
X1635000Y3581400D02*
D03*
Y3708400D02*
D03*
Y3835400D02*
D03*
Y3962400D02*
D03*
Y4089400D02*
D03*
Y4216400D02*
D03*
Y4343400D02*
D03*
X2175000Y3581400D02*
D03*
Y3708400D02*
D03*
Y3835400D02*
D03*
Y3962400D02*
D03*
Y4089400D02*
D03*
Y4216400D02*
D03*
Y4343400D02*
D03*
D49*
X1016000Y3415900D02*
D03*
Y4000900D02*
D03*
D50*
X5266302Y3648593D02*
D03*
X6066302D02*
D03*
Y2048593D02*
D03*
X5266302D02*
D03*
D51*
X1193800Y5753100D02*
D03*
X1447800D02*
D03*
X1701800Y5740400D02*
D03*
X1955800D02*
D03*
X2209800D02*
D03*
D52*
X2463800D02*
D03*
D53*
X2120900Y5029200D02*
D03*
X2374900D02*
D03*
X1978286Y1903159D02*
D03*
X2079886Y1725359D02*
D03*
X1775086Y1903159D02*
D03*
X1876686Y1725359D02*
D03*
X1571886Y1903159D02*
D03*
X1673486Y1725359D02*
D03*
X1368686Y1903159D02*
D03*
X1470286Y1725359D02*
D03*
D54*
X3848100Y3303460D02*
D03*
Y3803460D02*
D03*
X908100Y2783460D02*
D03*
Y4323460D02*
D03*
D55*
X2921000Y5664200D02*
D03*
X3271000D02*
D03*
X1235806Y4831600D02*
D03*
Y5181600D02*
D03*
X3206395Y1417576D02*
D03*
X3706395D02*
D03*
X4206395D02*
D03*
X6348243Y5638800D02*
D03*
X5848243D02*
D03*
X5348243D02*
D03*
D56*
X4348243Y4112260D02*
D03*
Y4862260D02*
D03*
X6348243D02*
D03*
Y4112260D02*
D03*
X6848243Y4862260D02*
D03*
Y4112260D02*
D03*
X4566302Y1417576D02*
D03*
X5066302D02*
D03*
X6066302D02*
D03*
X6566302D02*
D03*
D57*
X7500000Y6500000D02*
D03*
X500000D02*
D03*
X7500000Y500000D02*
D03*
X500000D02*
D03*
D58*
X1089286Y1471359D02*
D03*
X2359286D02*
D03*
%TF.MD5,090a9a0f75469c1f08e98d732d92fd09*%
M02*
