%TF.GenerationSoftware,Altium Limited,Altium Designer,20.1.8 (145)*%
G04 Layer_Color=39423*
%FSLAX45Y45*%
%MOMM*%
%TF.SameCoordinates,2A241EDF-A570-403E-9AC0-7F4DA974E4D7*%
%TF.FilePolarity,Negative*%
%TF.FileFunction,Soldermask,Top*%
%TF.Part,Single*%
G01*
G75*
%TA.AperFunction,ComponentPad*%
%ADD50C,1.70320*%
%ADD51O,1.70320X1.65320*%
G04:AMPARAMS|DCode=52|XSize=1.7032mm|YSize=1.6532mm|CornerRadius=0.28285mm|HoleSize=0mm|Usage=FLASHONLY|Rotation=180.000|XOffset=0mm|YOffset=0mm|HoleType=Round|Shape=RoundedRectangle|*
%AMROUNDEDRECTD52*
21,1,1.70320,1.08750,0,0,180.0*
21,1,1.13750,1.65320,0,0,180.0*
1,1,0.56570,-0.56875,0.54375*
1,1,0.56570,0.56875,0.54375*
1,1,0.56570,0.56875,-0.54375*
1,1,0.56570,-0.56875,-0.54375*
%
%ADD52ROUNDEDRECTD52*%
%ADD53C,1.72720*%
%ADD54O,3.20320X1.70320*%
%ADD55C,2.00320*%
%ADD56C,2.20320*%
%TA.AperFunction,ViaPad*%
%ADD57C,5.20320*%
%TA.AperFunction,ComponentPad*%
%ADD58C,3.45440*%
D50*
X5266302Y3648593D02*
D03*
X6066302D02*
D03*
Y2048593D02*
D03*
X5266302D02*
D03*
D51*
X1193800Y5753100D02*
D03*
X1447800D02*
D03*
X1701800Y5740400D02*
D03*
X1955800D02*
D03*
X2209800D02*
D03*
D52*
X2463800D02*
D03*
D53*
X2120900Y5029200D02*
D03*
X2374900D02*
D03*
X1978286Y1903159D02*
D03*
X2079886Y1725359D02*
D03*
X1775086Y1903159D02*
D03*
X1876686Y1725359D02*
D03*
X1571886Y1903159D02*
D03*
X1673486Y1725359D02*
D03*
X1368686Y1903159D02*
D03*
X1470286Y1725359D02*
D03*
D54*
X3848100Y3303460D02*
D03*
Y3803460D02*
D03*
X908100Y2783460D02*
D03*
Y4323460D02*
D03*
D55*
X2921000Y5664200D02*
D03*
X3271000D02*
D03*
X1235806Y4831600D02*
D03*
Y5181600D02*
D03*
X3206395Y1417576D02*
D03*
X3706395D02*
D03*
X4206395D02*
D03*
X6348243Y5638800D02*
D03*
X5848243D02*
D03*
X5348243D02*
D03*
D56*
X4348243Y4112260D02*
D03*
Y4862260D02*
D03*
X6348243D02*
D03*
Y4112260D02*
D03*
X6848243Y4862260D02*
D03*
Y4112260D02*
D03*
X4566302Y1417576D02*
D03*
X5066302D02*
D03*
X6066302D02*
D03*
X6566302D02*
D03*
D57*
X7500000Y6500000D02*
D03*
X500000D02*
D03*
X7500000Y500000D02*
D03*
X500000D02*
D03*
D58*
X1089286Y1471359D02*
D03*
X2359286D02*
D03*
%TF.MD5,060cc0a045397362806dc5df4b3fd9d4*%
M02*
