%TF.GenerationSoftware,Altium Limited,Altium Designer,20.1.8 (145)*%
G04 Layer_Color=65535*
%FSLAX45Y45*%
%MOMM*%
%TF.SameCoordinates,6D2D8FCC-EB96-405E-AB85-A4400E8CD33B*%
%TF.FilePolarity,Positive*%
%TF.FileFunction,Legend,Bot*%
%TF.Part,Single*%
G01*
G75*
%TA.AperFunction,NonConductor*%
%ADD37C,0.10000*%
%ADD38C,0.25000*%
%ADD39C,0.25400*%
%ADD40C,0.60000*%
%ADD41C,0.10160*%
%ADD42C,0.12700*%
G36*
X2688344Y6063060D02*
X2665230Y6039946D01*
Y6086175D01*
X2688344Y6063060D01*
D02*
G37*
G36*
X2839220D02*
X2813820Y6037661D01*
X2813820Y6088460D01*
X2839220Y6063060D01*
D02*
G37*
G36*
X4413790Y4862686D02*
X4390677Y4885800D01*
X4413790Y4908914D01*
Y4862686D01*
D02*
G37*
G36*
X4265200Y4860401D02*
X4239800Y4885800D01*
X4265200Y4911200D01*
X4265200Y4860401D01*
D02*
G37*
D37*
X4192760Y4858300D02*
G03*
X4192760Y4858300I-5000J0D01*
G01*
D38*
X3547777Y5255680D02*
G03*
X3547777Y5255680I-12500J0D01*
G01*
X2933000Y6284800D02*
G03*
X2933000Y6284800I-12500J0D01*
G01*
X3190300Y5941860D02*
G03*
X3190300Y5941860I-12500J0D01*
G01*
X4004880Y5531560D02*
G03*
X4004880Y5531560I-12500J0D01*
G01*
D39*
X3103690Y6335815D02*
G03*
X3103690Y6589385I-271892J126785D01*
G01*
X750000Y66987D02*
G03*
X66987Y750000I-250000J433013D01*
G01*
X7933013D02*
G03*
X7250000Y66987I-433013J-250000D01*
G01*
Y7935784D02*
G03*
X7933013Y7252771I250000J-433013D01*
G01*
X66987Y7254405D02*
G03*
X750000Y7937418I433013J250000D01*
G01*
X3194300Y6332600D02*
Y6592600D01*
X2996800Y6462600D02*
X3131800D01*
X3194300D02*
X3324300D01*
D40*
X2997720Y5815780D02*
G03*
X2997720Y5815780I-30000J0D01*
G01*
D41*
X4239800Y4885800D02*
X4265200Y4860401D01*
X4239800Y4885800D02*
X4265200Y4911200D01*
X4277900Y4827380D02*
X4277900Y4944220D01*
X4277900Y4827380D02*
X4526820D01*
X4277900Y4944220D02*
X4526820D01*
X4265200Y4911200D02*
X4265200Y4860401D01*
X4402360Y4920800D02*
Y4944221D01*
Y4827380D02*
Y4850801D01*
X4526820Y4944220D02*
X4526820Y4827380D01*
X4070260Y5083300D02*
X4097680D01*
X4070260Y4903300D02*
X4097680D01*
X4182840Y5083300D02*
X4210260D01*
X4182841Y4903300D02*
X4210260D01*
X4070260D02*
Y5083300D01*
X4210260Y4903300D02*
X4210260Y5083300D01*
X4277899Y5155820D02*
X4526820Y5155820D01*
X4277899Y5155820D02*
X4277900Y5038980D01*
X4526820Y5038980D01*
Y5155820D01*
X3489960Y4931221D02*
Y5180141D01*
X3373120D02*
X3489960D01*
X3373120Y4931221D02*
Y5180141D01*
Y4931221D02*
X3489960D01*
X3562777Y5033180D02*
X3862777D01*
X3562777Y5213180D02*
X3862777D01*
Y5033180D02*
Y5213180D01*
X3562777Y5033180D02*
Y5213180D01*
X3844460Y4466000D02*
X4024460Y4466000D01*
X3844460Y4466000D02*
X3844460Y4786000D01*
X4024460Y4466000D02*
Y4786000D01*
X3844460D02*
X4024460D01*
X4036061Y5160240D02*
X4036061Y5409160D01*
X3919220D02*
X4036061D01*
X3919220Y5160240D02*
Y5409160D01*
Y5160240D02*
X4036061Y5160240D01*
X1808456Y5140580D02*
Y5257420D01*
X1678916Y5140580D02*
X1937996D01*
Y5257420D01*
X1678916D02*
X1937996D01*
X1678916Y5140580D02*
Y5257420D01*
X2475040Y5021580D02*
Y5138420D01*
X2215961Y5021579D02*
X2475040Y5021580D01*
X2215960Y5138420D02*
X2215961Y5021579D01*
X2215960Y5138420D02*
X2475040D01*
X2345500D02*
X2345501Y5021580D01*
X2475040Y5199380D02*
X2475041Y5316220D01*
X2215960Y5199380D02*
X2475040Y5199380D01*
X2215960Y5199380D02*
Y5316220D01*
X2475041D01*
X2345500Y5199380D02*
Y5316220D01*
X2475040Y5377180D02*
Y5494020D01*
X2215960Y5377180D02*
X2475040D01*
X2215960D02*
Y5494020D01*
X2475040D01*
X2345501Y5377180D02*
Y5494020D01*
X2999740Y4818381D02*
X3248660D01*
Y4935221D01*
X2999740D02*
X3248660D01*
X2999740Y4818381D02*
Y4935221D01*
X2448340Y4818380D02*
Y4935220D01*
X2697260Y4935220D01*
Y4818380D02*
Y4935220D01*
X2448340Y4818380D02*
X2697260D01*
X2448340Y4615180D02*
Y4732020D01*
X2697260D01*
Y4615180D02*
Y4732020D01*
X2448340Y4615180D02*
X2697260D01*
X2999740D02*
X3248660D01*
Y4732020D01*
X2999740D02*
X3248660D01*
X2999740Y4615180D02*
Y4732020D01*
X2996741Y4411981D02*
X3245661D01*
Y4528821D01*
X2996741D02*
X3245661D01*
X2996741Y4411981D02*
Y4528821D01*
X2448340Y4411980D02*
Y4528820D01*
X2697260D01*
Y4411980D02*
Y4528820D01*
X2448340Y4411980D02*
X2697260D01*
X1681496Y5394580D02*
X1681496Y5511420D01*
X1930416Y5511421D01*
Y5394580D02*
Y5511421D01*
X1681496Y5394580D02*
X1930416D01*
X1681496Y5648580D02*
X1930416D01*
Y5765420D01*
X1681496D02*
X1930416D01*
X1681496Y5648580D02*
Y5765420D01*
X2813820Y6088460D02*
X2839220Y6063060D01*
X2813820Y6037661D02*
X2839220Y6063060D01*
X2801120Y6004640D02*
X2801120Y6121480D01*
X2552200Y6121481D02*
X2801120Y6121480D01*
X2552200Y6004640D02*
X2801120D01*
X2813820Y6088460D02*
X2813820Y6037661D01*
X2676660Y6004640D02*
Y6028060D01*
Y6098060D02*
Y6121481D01*
X2552200Y6004640D02*
Y6121481D01*
X3536800Y6615180D02*
X3536800Y6687600D01*
X2786800D02*
X2786800Y6615180D01*
X3536800Y6237600D02*
X3536800Y6310020D01*
X2786800D02*
X2786800Y6237600D01*
X2786800Y6687600D02*
X3536800D01*
X2786800Y6237600D02*
X3536800D01*
X3062800Y5040860D02*
Y5910860D01*
X2752800Y5040860D02*
Y5910860D01*
X3062800D01*
X2752800Y5040860D02*
X3062800D01*
X3412440Y4497980D02*
Y4614820D01*
X3661360Y4614820D01*
Y4497980D02*
Y4614820D01*
X3412440Y4497980D02*
X3661360Y4497980D01*
X3469639Y5617200D02*
X3627120D01*
X3627120Y5764520D02*
X3627120Y5469881D01*
X3469639D02*
X3627120D01*
X3469639D02*
Y5764520D01*
X3627120Y5764520D01*
X3677280Y5733960D02*
X3977280D01*
X3677280Y5633960D02*
X3977280D01*
X3677280D02*
Y5733960D01*
X3977280Y5633960D02*
Y5733960D01*
X1681496Y6019420D02*
X1930416Y6019420D01*
X1681496Y5902579D02*
Y6019420D01*
Y5902579D02*
X1930415D01*
X1930416Y6019420D01*
X3140980Y5996560D02*
Y6154040D01*
X2993660D02*
X3288300D01*
Y5996560D02*
Y6154040D01*
X2993660Y5996560D02*
X3288300D01*
X2993660D02*
Y6154040D01*
X3314700Y5289400D02*
Y5538320D01*
Y5289400D02*
X3431540D01*
Y5538320D01*
X3314700D02*
X3431540D01*
X4073660Y5596520D02*
X4231140Y5596521D01*
X4231140Y5891160D01*
X4073659D02*
X4231140D01*
X4073659D02*
X4073660Y5596520D01*
X4073659Y5743840D02*
X4231140Y5743840D01*
X3497340Y5961460D02*
Y6118940D01*
Y5961460D02*
X3791980Y5961460D01*
X3791980Y6118940D01*
X3497340D02*
X3791980D01*
X3644660Y5961460D02*
Y6118940D01*
D42*
X4040627Y5030470D02*
Y4969530D01*
X4010157D01*
X4000000Y4979687D01*
Y5020313D01*
X4010157Y5030470D01*
X4040627D01*
X3979686Y4969530D02*
X3959373D01*
X3969530D01*
Y5030470D01*
X3979686Y5020313D01*
X3509800Y4851056D02*
Y4911997D01*
X3479330D01*
X3469173Y4901840D01*
Y4881526D01*
X3479330Y4871370D01*
X3509800D01*
X3489487D02*
X3469173Y4851056D01*
X3448860D02*
X3428546D01*
X3438703D01*
Y4911997D01*
X3448860Y4901840D01*
X3357449Y4911997D02*
X3398076D01*
Y4881526D01*
X3377763Y4891683D01*
X3367606D01*
X3357449Y4881526D01*
Y4861213D01*
X3367606Y4851056D01*
X3387920D01*
X3398076Y4861213D01*
X3714159Y4834106D02*
Y4874733D01*
X3724315Y4884890D01*
X3744629D01*
X3754785Y4874733D01*
Y4834106D01*
X3744629Y4823949D01*
X3724315D01*
X3734472Y4844263D02*
X3714159Y4823949D01*
X3724315D02*
X3714159Y4834106D01*
X3693845Y4823949D02*
X3673532D01*
X3683689D01*
Y4884890D01*
X3693845Y4874733D01*
X3940569Y4382856D02*
Y4423483D01*
X3950726Y4433639D01*
X3971039D01*
X3981196Y4423483D01*
Y4382856D01*
X3971039Y4372699D01*
X3950726D01*
X3960882Y4393013D02*
X3940569Y4372699D01*
X3950726D02*
X3940569Y4382856D01*
X3879629Y4372699D02*
X3920256D01*
X3879629Y4413326D01*
Y4423483D01*
X3889785Y4433639D01*
X3910099D01*
X3920256Y4423483D01*
X4028424Y5070624D02*
Y5131564D01*
X3997954D01*
X3987797Y5121408D01*
Y5101094D01*
X3997954Y5090937D01*
X4028424D01*
X4008110D02*
X3987797Y5070624D01*
X3926857D02*
X3967484D01*
X3926857Y5111251D01*
Y5121408D01*
X3937013Y5131564D01*
X3957327D01*
X3967484Y5121408D01*
X1818997Y5329002D02*
X1829154Y5339158D01*
X1849467D01*
X1859624Y5329002D01*
Y5288375D01*
X1849467Y5278218D01*
X1829154D01*
X1818997Y5288375D01*
X1798684Y5339158D02*
X1758057D01*
Y5329002D01*
X1798684Y5288375D01*
Y5278218D01*
X2150125Y5094059D02*
X2160282Y5104216D01*
X2180595D01*
X2190752Y5094059D01*
Y5053432D01*
X2180595Y5043275D01*
X2160282D01*
X2150125Y5053432D01*
X2129812D02*
X2119655Y5043275D01*
X2099341D01*
X2089185Y5053432D01*
Y5094059D01*
X2099341Y5104216D01*
X2119655D01*
X2129812Y5094059D01*
Y5083902D01*
X2119655Y5073746D01*
X2089185D01*
X2144972Y5273200D02*
X2155129Y5283357D01*
X2175442D01*
X2185599Y5273200D01*
Y5232573D01*
X2175442Y5222417D01*
X2155129D01*
X2144972Y5232573D01*
X2124658Y5273200D02*
X2114502Y5283357D01*
X2094188D01*
X2084032Y5273200D01*
Y5263043D01*
X2094188Y5252887D01*
X2084032Y5242730D01*
Y5232573D01*
X2094188Y5222417D01*
X2114502D01*
X2124658Y5232573D01*
Y5242730D01*
X2114502Y5252887D01*
X2124658Y5263043D01*
Y5273200D01*
X2114502Y5252887D02*
X2094188D01*
X2149743Y5454918D02*
X2159899Y5465074D01*
X2180213D01*
X2190370Y5454918D01*
Y5414291D01*
X2180213Y5404134D01*
X2159899D01*
X2149743Y5414291D01*
X2129429Y5404134D02*
X2109116D01*
X2119273D01*
Y5465074D01*
X2129429Y5454918D01*
X2078646D02*
X2068489Y5465074D01*
X2048176D01*
X2038019Y5454918D01*
Y5414291D01*
X2048176Y5404134D01*
X2068489D01*
X2078646Y5414291D01*
Y5454918D01*
X2963553Y4849806D02*
Y4910746D01*
X2933083D01*
X2922926Y4900589D01*
Y4880276D01*
X2933083Y4870119D01*
X2963553D01*
X2943240D02*
X2922926Y4849806D01*
X2861986Y4910746D02*
X2902613D01*
Y4880276D01*
X2882300Y4890432D01*
X2872143D01*
X2861986Y4880276D01*
Y4859962D01*
X2872143Y4849806D01*
X2892456D01*
X2902613Y4859962D01*
X2420375Y4846330D02*
Y4907270D01*
X2389905D01*
X2379748Y4897113D01*
Y4876800D01*
X2389905Y4866643D01*
X2420375D01*
X2400062D02*
X2379748Y4846330D01*
X2359435D02*
X2339122D01*
X2349278D01*
Y4907270D01*
X2359435Y4897113D01*
X2268025Y4846330D02*
X2308651D01*
X2268025Y4886957D01*
Y4897113D01*
X2278181Y4907270D01*
X2298495D01*
X2308651Y4897113D01*
X2420375Y4633730D02*
Y4694670D01*
X2389905D01*
X2379748Y4684513D01*
Y4664200D01*
X2389905Y4654043D01*
X2420375D01*
X2400062D02*
X2379748Y4633730D01*
X2359435D02*
X2339122D01*
X2349278D01*
Y4694670D01*
X2359435Y4684513D01*
X2308651D02*
X2298495Y4694670D01*
X2278181D01*
X2268025Y4684513D01*
Y4674357D01*
X2278181Y4664200D01*
X2288338D01*
X2278181D01*
X2268025Y4654043D01*
Y4643887D01*
X2278181Y4633730D01*
X2298495D01*
X2308651Y4643887D01*
X2967590Y4641790D02*
Y4702730D01*
X2937120D01*
X2926963Y4692574D01*
Y4672260D01*
X2937120Y4662104D01*
X2967590D01*
X2947276D02*
X2926963Y4641790D01*
X2906650D02*
X2886336D01*
X2896493D01*
Y4702730D01*
X2906650Y4692574D01*
X2825396Y4641790D02*
Y4702730D01*
X2855866Y4672260D01*
X2815239D01*
X2963130Y4435050D02*
Y4495990D01*
X2932660D01*
X2922503Y4485834D01*
Y4465520D01*
X2932660Y4455363D01*
X2963130D01*
X2942817D02*
X2922503Y4435050D01*
X2902190D02*
X2881877D01*
X2892033D01*
Y4495990D01*
X2902190Y4485834D01*
X2851407D02*
X2841250Y4495990D01*
X2820936D01*
X2810780Y4485834D01*
Y4445207D01*
X2820936Y4435050D01*
X2841250D01*
X2851407Y4445207D01*
Y4485834D01*
X2420383Y4439930D02*
Y4500870D01*
X2389913D01*
X2379756Y4490713D01*
Y4470400D01*
X2389913Y4460243D01*
X2420383D01*
X2400070D02*
X2379756Y4439930D01*
X2318816Y4500870D02*
X2339130Y4490713D01*
X2359443Y4470400D01*
Y4450087D01*
X2349286Y4439930D01*
X2328973D01*
X2318816Y4450087D01*
Y4460243D01*
X2328973Y4470400D01*
X2359443D01*
X1857911Y5530026D02*
Y5590966D01*
X1827441D01*
X1817284Y5580810D01*
Y5560496D01*
X1827441Y5550339D01*
X1857911D01*
X1837598D02*
X1817284Y5530026D01*
X1796971Y5590966D02*
X1756344D01*
Y5580810D01*
X1796971Y5540183D01*
Y5530026D01*
X2955600Y5986890D02*
Y5936106D01*
X2945444Y5925950D01*
X2925130D01*
X2914974Y5936106D01*
Y5986890D01*
X2854033Y5925950D02*
X2894660D01*
X2854033Y5966577D01*
Y5976733D01*
X2864190Y5986890D01*
X2884504D01*
X2894660Y5976733D01*
X3865916Y5449192D02*
Y5398409D01*
X3855759Y5388252D01*
X3835445D01*
X3825289Y5398409D01*
Y5449192D01*
X3804975Y5388252D02*
X3784662D01*
X3794819D01*
Y5449192D01*
X3804975Y5439036D01*
X1869020Y6040298D02*
Y6101238D01*
X1838550D01*
X1828393Y6091082D01*
Y6070768D01*
X1838550Y6060612D01*
X1869020D01*
X1848707D02*
X1828393Y6040298D01*
X1808080D02*
X1787767D01*
X1797923D01*
Y6101238D01*
X1808080Y6091082D01*
X1757296Y6040298D02*
X1736983D01*
X1747140D01*
Y6101238D01*
X1757296Y6091082D01*
X1861803Y5786130D02*
Y5847070D01*
X1831333D01*
X1821177Y5836913D01*
Y5816600D01*
X1831333Y5806443D01*
X1861803D01*
X1841490D02*
X1821177Y5786130D01*
X1800863Y5836913D02*
X1790707Y5847070D01*
X1770393D01*
X1760237Y5836913D01*
Y5826757D01*
X1770393Y5816600D01*
X1760237Y5806443D01*
Y5796287D01*
X1770393Y5786130D01*
X1790707D01*
X1800863Y5796287D01*
Y5806443D01*
X1790707Y5816600D01*
X1800863Y5826757D01*
Y5836913D01*
X1790707Y5816600D02*
X1770393D01*
X4450784Y5169530D02*
Y5230470D01*
X4420313D01*
X4410157Y5220313D01*
Y5200000D01*
X4420313Y5189843D01*
X4450784D01*
X4430470D02*
X4410157Y5169530D01*
X4359373D02*
Y5230470D01*
X4389843Y5200000D01*
X4349217D01*
X3579717Y4648795D02*
Y4709735D01*
X3549247D01*
X3539090Y4699578D01*
Y4679265D01*
X3549247Y4669108D01*
X3579717D01*
X3559404D02*
X3539090Y4648795D01*
X3518777Y4658952D02*
X3508620Y4648795D01*
X3488307D01*
X3478150Y4658952D01*
Y4699578D01*
X3488307Y4709735D01*
X3508620D01*
X3518777Y4699578D01*
Y4689422D01*
X3508620Y4679265D01*
X3478150D01*
X3416775Y5556973D02*
Y5617913D01*
X3386305D01*
X3376148Y5607757D01*
Y5587443D01*
X3386305Y5577287D01*
X3416775D01*
X3396462D02*
X3376148Y5556973D01*
X3355835Y5607757D02*
X3345678Y5617913D01*
X3325365D01*
X3315208Y5607757D01*
Y5597600D01*
X3325365Y5587443D01*
X3335522D01*
X3325365D01*
X3315208Y5577287D01*
Y5567130D01*
X3325365Y5556973D01*
X3345678D01*
X3355835Y5567130D01*
X2721664Y6200267D02*
Y6139327D01*
X2691194D01*
X2681038Y6149484D01*
Y6190111D01*
X2691194Y6200267D01*
X2721664D01*
X2660724Y6190111D02*
X2650567Y6200267D01*
X2630254D01*
X2620097Y6190111D01*
Y6179954D01*
X2630254Y6169797D01*
X2640411D01*
X2630254D01*
X2620097Y6159640D01*
Y6149484D01*
X2630254Y6139327D01*
X2650567D01*
X2660724Y6149484D01*
X4660095Y4924162D02*
Y4863222D01*
X4629625D01*
X4619468Y4873379D01*
Y4914005D01*
X4629625Y4924162D01*
X4660095D01*
X4558528Y4863222D02*
X4599155D01*
X4558528Y4903849D01*
Y4914005D01*
X4568685Y4924162D01*
X4588998D01*
X4599155Y4914005D01*
X2937391Y6092419D02*
X2947547Y6102576D01*
X2967861D01*
X2978017Y6092419D01*
Y6051792D01*
X2967861Y6041636D01*
X2947547D01*
X2937391Y6051792D01*
X2876450Y6102576D02*
X2896764Y6092419D01*
X2917077Y6072106D01*
Y6051792D01*
X2906921Y6041636D01*
X2886607D01*
X2876450Y6051792D01*
Y6061949D01*
X2886607Y6072106D01*
X2917077D01*
X3197357Y6768713D02*
X3207513Y6778870D01*
X3227827D01*
X3237983Y6768713D01*
Y6728087D01*
X3227827Y6717930D01*
X3207513D01*
X3197357Y6728087D01*
X3146573Y6717930D02*
Y6778870D01*
X3177043Y6748400D01*
X3136416D01*
X4165938Y5966854D02*
X4176095Y5977011D01*
X4196408D01*
X4206565Y5966854D01*
Y5926227D01*
X4196408Y5916070D01*
X4176095D01*
X4165938Y5926227D01*
X4104998Y5977011D02*
X4145624D01*
Y5946541D01*
X4125311Y5956697D01*
X4115154D01*
X4104998Y5946541D01*
Y5926227D01*
X4115154Y5916070D01*
X4135468D01*
X4145624Y5926227D01*
X3555176Y5843809D02*
X3565333Y5853966D01*
X3585646D01*
X3595803Y5843809D01*
Y5803183D01*
X3585646Y5793026D01*
X3565333D01*
X3555176Y5803183D01*
X3534863Y5843809D02*
X3524706Y5853966D01*
X3504393D01*
X3494236Y5843809D01*
Y5833653D01*
X3504393Y5823496D01*
X3514549D01*
X3504393D01*
X3494236Y5813339D01*
Y5803183D01*
X3504393Y5793026D01*
X3524706D01*
X3534863Y5803183D01*
X3656964Y6195809D02*
X3667120Y6205965D01*
X3687434D01*
X3697591Y6195809D01*
Y6155182D01*
X3687434Y6145025D01*
X3667120D01*
X3656964Y6155182D01*
X3596024Y6145025D02*
X3636650D01*
X3596024Y6185652D01*
Y6195809D01*
X3606180Y6205965D01*
X3626494D01*
X3636650Y6195809D01*
%TF.MD5,37a702bb9689c23e0834efdd71bfd7ed*%
M02*
