%TF.GenerationSoftware,Altium Limited,Altium Designer,20.1.8 (145)*%
G04 Layer_Color=16711833*
%FSLAX45Y45*%
%MOMM*%
%TF.SameCoordinates,6D2D8FCC-EB96-405E-AB85-A4400E8CD33B*%
%TF.FilePolarity,Negative*%
%TF.FileFunction,Soldermask,Bot*%
%TF.Part,Single*%
G01*
G75*
%TA.AperFunction,SMDPad,CuDef*%
G04:AMPARAMS|DCode=43|XSize=1.0532mm|YSize=1.0532mm|CornerRadius=0.1441mm|HoleSize=0mm|Usage=FLASHONLY|Rotation=90.000|XOffset=0mm|YOffset=0mm|HoleType=Round|Shape=RoundedRectangle|*
%AMROUNDEDRECTD43*
21,1,1.05320,0.76500,0,0,90.0*
21,1,0.76500,1.05320,0,0,90.0*
1,1,0.28820,0.38250,0.38250*
1,1,0.28820,0.38250,-0.38250*
1,1,0.28820,-0.38250,-0.38250*
1,1,0.28820,-0.38250,0.38250*
%
%ADD43ROUNDEDRECTD43*%
G04:AMPARAMS|DCode=44|XSize=0.7032mm|YSize=1.0032mm|CornerRadius=0.1041mm|HoleSize=0mm|Usage=FLASHONLY|Rotation=0.000|XOffset=0mm|YOffset=0mm|HoleType=Round|Shape=RoundedRectangle|*
%AMROUNDEDRECTD44*
21,1,0.70320,0.79500,0,0,0.0*
21,1,0.49500,1.00320,0,0,0.0*
1,1,0.20820,0.24750,-0.39750*
1,1,0.20820,-0.24750,-0.39750*
1,1,0.20820,-0.24750,0.39750*
1,1,0.20820,0.24750,0.39750*
%
%ADD44ROUNDEDRECTD44*%
G04:AMPARAMS|DCode=45|XSize=1.0532mm|YSize=1.0532mm|CornerRadius=0.1441mm|HoleSize=0mm|Usage=FLASHONLY|Rotation=0.000|XOffset=0mm|YOffset=0mm|HoleType=Round|Shape=RoundedRectangle|*
%AMROUNDEDRECTD45*
21,1,1.05320,0.76500,0,0,0.0*
21,1,0.76500,1.05320,0,0,0.0*
1,1,0.28820,0.38250,-0.38250*
1,1,0.28820,-0.38250,-0.38250*
1,1,0.28820,-0.38250,0.38250*
1,1,0.28820,0.38250,0.38250*
%
%ADD45ROUNDEDRECTD45*%
G04:AMPARAMS|DCode=46|XSize=0.7032mm|YSize=1.2532mm|CornerRadius=0.1266mm|HoleSize=0mm|Usage=FLASHONLY|Rotation=180.000|XOffset=0mm|YOffset=0mm|HoleType=Round|Shape=RoundedRectangle|*
%AMROUNDEDRECTD46*
21,1,0.70320,1.00000,0,0,180.0*
21,1,0.45000,1.25320,0,0,180.0*
1,1,0.25320,-0.22500,0.50000*
1,1,0.25320,0.22500,0.50000*
1,1,0.25320,0.22500,-0.50000*
1,1,0.25320,-0.22500,-0.50000*
%
%ADD46ROUNDEDRECTD46*%
G04:AMPARAMS|DCode=47|XSize=0.8032mm|YSize=1.3032mm|CornerRadius=0.1316mm|HoleSize=0mm|Usage=FLASHONLY|Rotation=270.000|XOffset=0mm|YOffset=0mm|HoleType=Round|Shape=RoundedRectangle|*
%AMROUNDEDRECTD47*
21,1,0.80320,1.04000,0,0,270.0*
21,1,0.54000,1.30320,0,0,270.0*
1,1,0.26320,-0.52000,-0.27000*
1,1,0.26320,-0.52000,0.27000*
1,1,0.26320,0.52000,0.27000*
1,1,0.26320,0.52000,-0.27000*
%
%ADD47ROUNDEDRECTD47*%
G04:AMPARAMS|DCode=48|XSize=1.0532mm|YSize=1.1032mm|CornerRadius=0.1441mm|HoleSize=0mm|Usage=FLASHONLY|Rotation=270.000|XOffset=0mm|YOffset=0mm|HoleType=Round|Shape=RoundedRectangle|*
%AMROUNDEDRECTD48*
21,1,1.05320,0.81500,0,0,270.0*
21,1,0.76500,1.10320,0,0,270.0*
1,1,0.28820,-0.40750,-0.38250*
1,1,0.28820,-0.40750,0.38250*
1,1,0.28820,0.40750,0.38250*
1,1,0.28820,0.40750,-0.38250*
%
%ADD48ROUNDEDRECTD48*%
G04:AMPARAMS|DCode=49|XSize=2.5532mm|YSize=2.3032mm|CornerRadius=0.1121mm|HoleSize=0mm|Usage=FLASHONLY|Rotation=270.000|XOffset=0mm|YOffset=0mm|HoleType=Round|Shape=RoundedRectangle|*
%AMROUNDEDRECTD49*
21,1,2.55320,2.07900,0,0,270.0*
21,1,2.32900,2.30320,0,0,270.0*
1,1,0.22420,-1.03950,-1.16450*
1,1,0.22420,-1.03950,1.16450*
1,1,0.22420,1.03950,1.16450*
1,1,0.22420,1.03950,-1.16450*
%
%ADD49ROUNDEDRECTD49*%
%ADD50O,1.70320X0.80320*%
G04:AMPARAMS|DCode=51|XSize=1.4782mm|YSize=1.1032mm|CornerRadius=0.1466mm|HoleSize=0mm|Usage=FLASHONLY|Rotation=0.000|XOffset=0mm|YOffset=0mm|HoleType=Round|Shape=RoundedRectangle|*
%AMROUNDEDRECTD51*
21,1,1.47820,0.81000,0,0,0.0*
21,1,1.18500,1.10320,0,0,0.0*
1,1,0.29320,0.59250,-0.40500*
1,1,0.29320,-0.59250,-0.40500*
1,1,0.29320,-0.59250,0.40500*
1,1,0.29320,0.59250,0.40500*
%
%ADD51ROUNDEDRECTD51*%
G04:AMPARAMS|DCode=52|XSize=0.7032mm|YSize=1.2032mm|CornerRadius=0.1266mm|HoleSize=0mm|Usage=FLASHONLY|Rotation=0.000|XOffset=0mm|YOffset=0mm|HoleType=Round|Shape=RoundedRectangle|*
%AMROUNDEDRECTD52*
21,1,0.70320,0.95000,0,0,0.0*
21,1,0.45000,1.20320,0,0,0.0*
1,1,0.25320,0.22500,-0.47500*
1,1,0.25320,-0.22500,-0.47500*
1,1,0.25320,-0.22500,0.47500*
1,1,0.25320,0.22500,0.47500*
%
%ADD52ROUNDEDRECTD52*%
G04:AMPARAMS|DCode=53|XSize=1.4782mm|YSize=1.1032mm|CornerRadius=0.1466mm|HoleSize=0mm|Usage=FLASHONLY|Rotation=90.000|XOffset=0mm|YOffset=0mm|HoleType=Round|Shape=RoundedRectangle|*
%AMROUNDEDRECTD53*
21,1,1.47820,0.81000,0,0,90.0*
21,1,1.18500,1.10320,0,0,90.0*
1,1,0.29320,0.40500,0.59250*
1,1,0.29320,0.40500,-0.59250*
1,1,0.29320,-0.40500,-0.59250*
1,1,0.29320,-0.40500,0.59250*
%
%ADD53ROUNDEDRECTD53*%
%TA.AperFunction,ComponentPad*%
%ADD54C,1.72720*%
%ADD55C,3.45440*%
%ADD56C,2.00320*%
%ADD57C,2.20320*%
%ADD58C,1.70320*%
%ADD59O,2.40320X2.90320*%
%ADD60O,1.70320X3.20320*%
G04:AMPARAMS|DCode=61|XSize=1.7032mm|YSize=1.6532mm|CornerRadius=0.28285mm|HoleSize=0mm|Usage=FLASHONLY|Rotation=270.000|XOffset=0mm|YOffset=0mm|HoleType=Round|Shape=RoundedRectangle|*
%AMROUNDEDRECTD61*
21,1,1.70320,1.08750,0,0,270.0*
21,1,1.13750,1.65320,0,0,270.0*
1,1,0.56570,-0.54375,-0.56875*
1,1,0.56570,-0.54375,0.56875*
1,1,0.56570,0.54375,0.56875*
1,1,0.56570,0.54375,-0.56875*
%
%ADD61ROUNDEDRECTD61*%
%ADD62O,1.65320X1.70320*%
%TA.AperFunction,ViaPad*%
%ADD63C,5.20320*%
D43*
X4337360Y4885800D02*
D03*
X4467360D02*
D03*
Y5097400D02*
D03*
X4337360D02*
D03*
X3059200Y4876801D02*
D03*
X3189200D02*
D03*
X2637800Y4876800D02*
D03*
X2507800D02*
D03*
X2637800Y4673600D02*
D03*
X2507800D02*
D03*
X3059200D02*
D03*
X3189200D02*
D03*
X3056200Y4470401D02*
D03*
X3186200D02*
D03*
X2637800Y4470400D02*
D03*
X2507800D02*
D03*
X1870956Y5453000D02*
D03*
X1740956Y5453000D02*
D03*
Y5707000D02*
D03*
X1870956D02*
D03*
X2741660Y6063060D02*
D03*
X2611660Y6063060D02*
D03*
X3601900Y4556400D02*
D03*
X3471900D02*
D03*
X1870956Y5961000D02*
D03*
X1740956D02*
D03*
D44*
X4140260Y5103300D02*
D03*
Y4883300D02*
D03*
D45*
X3431540Y4990680D02*
D03*
Y5120680D02*
D03*
X3977640Y5219700D02*
D03*
X3977640Y5349700D02*
D03*
X3373120Y5478860D02*
D03*
Y5348860D02*
D03*
D46*
X3617777Y4990680D02*
D03*
X3712777D02*
D03*
X3807777D02*
D03*
Y5255680D02*
D03*
X3712777D02*
D03*
X3617777D02*
D03*
D47*
X4059460Y4626000D02*
D03*
X3809460Y4531000D02*
D03*
Y4721000D02*
D03*
D48*
X1875956Y5199000D02*
D03*
X1740956D02*
D03*
X2413000Y5080000D02*
D03*
X2278000D02*
D03*
X2413000Y5257800D02*
D03*
X2278000Y5257800D02*
D03*
X2413000Y5435600D02*
D03*
X2278000Y5435600D02*
D03*
D49*
X3454300Y6462600D02*
D03*
X2869300D02*
D03*
D50*
X3177800Y5856860D02*
D03*
Y5729860D02*
D03*
Y5602860D02*
D03*
Y5475860D02*
D03*
Y5348860D02*
D03*
Y5221860D02*
D03*
Y5094860D02*
D03*
X2637800Y5856860D02*
D03*
Y5729860D02*
D03*
Y5602860D02*
D03*
Y5475860D02*
D03*
Y5348860D02*
D03*
Y5221860D02*
D03*
Y5094860D02*
D03*
D51*
X3548380Y5529580D02*
D03*
X3548380Y5704820D02*
D03*
X4152400Y5656220D02*
D03*
Y5831461D02*
D03*
D52*
X3732280Y5831460D02*
D03*
X3922280Y5831461D02*
D03*
X3732280Y5536460D02*
D03*
X3827280Y5536460D02*
D03*
X3922280Y5536460D02*
D03*
D53*
X3228600Y6075300D02*
D03*
X3053360D02*
D03*
X3557040Y6040200D02*
D03*
X3732280D02*
D03*
D54*
X1513200Y5199000D02*
D03*
Y5453000D02*
D03*
X1668600Y1025000D02*
D03*
X1567000Y1202800D02*
D03*
X1871800Y1025000D02*
D03*
X1770200Y1202800D02*
D03*
X2075000Y1025000D02*
D03*
X1973400Y1202800D02*
D03*
X2278200Y1025000D02*
D03*
X2176600Y1202800D02*
D03*
X1513200Y5961000D02*
D03*
Y6215000D02*
D03*
D55*
X2557600Y771000D02*
D03*
X1287600D02*
D03*
D56*
X4438800Y6100000D02*
D03*
X4938800D02*
D03*
X5438800D02*
D03*
X5938800D02*
D03*
X6438800D02*
D03*
X3066820Y2000000D02*
D03*
X3566820D02*
D03*
X4066820D02*
D03*
D57*
X6938800Y4626000D02*
D03*
Y5376000D02*
D03*
X6438800Y4626000D02*
D03*
Y5376000D02*
D03*
X4438800D02*
D03*
Y4626000D02*
D03*
D58*
X5711000Y2547440D02*
D03*
X6511000D02*
D03*
Y4147440D02*
D03*
X5711000D02*
D03*
D59*
X5206900Y1873000D02*
D03*
X4444900D02*
D03*
X7035700D02*
D03*
X6273700D02*
D03*
D60*
X3903200Y6312600D02*
D03*
X2363200D02*
D03*
X3383200Y3372600D02*
D03*
X2883200D02*
D03*
D61*
X1513200Y4691000D02*
D03*
D62*
Y4437000D02*
D03*
Y4183000D02*
D03*
Y3929000D02*
D03*
Y3675000D02*
D03*
Y3421000D02*
D03*
D63*
X7500000Y7500000D02*
D03*
X500000D02*
D03*
X7500000Y500000D02*
D03*
X500000D02*
D03*
%TF.MD5,05206f2ffbdc6f6cfdd88ee3e2dbc439*%
M02*
