%TF.GenerationSoftware,Altium Limited,Altium Designer,20.1.8 (145)*%
G04 Layer_Physical_Order=2*
G04 Layer_Color=16728128*
%FSLAX45Y45*%
%MOMM*%
%TF.SameCoordinates,6D2D8FCC-EB96-405E-AB85-A4400E8CD33B*%
%TF.FilePolarity,Positive*%
%TF.FileFunction,Copper,L2,Bot,Signal*%
%TF.Part,Single*%
G01*
G75*
%TA.AperFunction,Conductor*%
%ADD10C,0.12700*%
%ADD11C,2.20000*%
%TA.AperFunction,ComponentPad*%
%ADD13C,1.52400*%
%ADD14C,3.25120*%
%ADD15C,1.80000*%
%ADD16C,2.00000*%
%ADD17C,1.50000*%
%ADD18O,2.20000X2.70000*%
%ADD19O,1.50000X3.00000*%
G04:AMPARAMS|DCode=20|XSize=1.5mm|YSize=1.45mm|CornerRadius=0.18125mm|HoleSize=0mm|Usage=FLASHONLY|Rotation=270.000|XOffset=0mm|YOffset=0mm|HoleType=Round|Shape=RoundedRectangle|*
%AMROUNDEDRECTD20*
21,1,1.50000,1.08750,0,0,270.0*
21,1,1.13750,1.45000,0,0,270.0*
1,1,0.36250,-0.54375,-0.56875*
1,1,0.36250,-0.54375,0.56875*
1,1,0.36250,0.54375,0.56875*
1,1,0.36250,0.54375,-0.56875*
%
%ADD20ROUNDEDRECTD20*%
%ADD21O,1.45000X1.50000*%
%TA.AperFunction,ViaPad*%
%ADD22C,5.00000*%
%ADD23C,0.70000*%
%TA.AperFunction,SMDPad,CuDef*%
G04:AMPARAMS|DCode=24|XSize=0.85mm|YSize=0.85mm|CornerRadius=0.0425mm|HoleSize=0mm|Usage=FLASHONLY|Rotation=90.000|XOffset=0mm|YOffset=0mm|HoleType=Round|Shape=RoundedRectangle|*
%AMROUNDEDRECTD24*
21,1,0.85000,0.76500,0,0,90.0*
21,1,0.76500,0.85000,0,0,90.0*
1,1,0.08500,0.38250,0.38250*
1,1,0.08500,0.38250,-0.38250*
1,1,0.08500,-0.38250,-0.38250*
1,1,0.08500,-0.38250,0.38250*
%
%ADD24ROUNDEDRECTD24*%
G04:AMPARAMS|DCode=25|XSize=0.5mm|YSize=0.8mm|CornerRadius=0.0025mm|HoleSize=0mm|Usage=FLASHONLY|Rotation=0.000|XOffset=0mm|YOffset=0mm|HoleType=Round|Shape=RoundedRectangle|*
%AMROUNDEDRECTD25*
21,1,0.50000,0.79500,0,0,0.0*
21,1,0.49500,0.80000,0,0,0.0*
1,1,0.00500,0.24750,-0.39750*
1,1,0.00500,-0.24750,-0.39750*
1,1,0.00500,-0.24750,0.39750*
1,1,0.00500,0.24750,0.39750*
%
%ADD25ROUNDEDRECTD25*%
G04:AMPARAMS|DCode=26|XSize=0.85mm|YSize=0.85mm|CornerRadius=0.0425mm|HoleSize=0mm|Usage=FLASHONLY|Rotation=0.000|XOffset=0mm|YOffset=0mm|HoleType=Round|Shape=RoundedRectangle|*
%AMROUNDEDRECTD26*
21,1,0.85000,0.76500,0,0,0.0*
21,1,0.76500,0.85000,0,0,0.0*
1,1,0.08500,0.38250,-0.38250*
1,1,0.08500,-0.38250,-0.38250*
1,1,0.08500,-0.38250,0.38250*
1,1,0.08500,0.38250,0.38250*
%
%ADD26ROUNDEDRECTD26*%
G04:AMPARAMS|DCode=27|XSize=0.5mm|YSize=1.05mm|CornerRadius=0.025mm|HoleSize=0mm|Usage=FLASHONLY|Rotation=180.000|XOffset=0mm|YOffset=0mm|HoleType=Round|Shape=RoundedRectangle|*
%AMROUNDEDRECTD27*
21,1,0.50000,1.00000,0,0,180.0*
21,1,0.45000,1.05000,0,0,180.0*
1,1,0.05000,-0.22500,0.50000*
1,1,0.05000,0.22500,0.50000*
1,1,0.05000,0.22500,-0.50000*
1,1,0.05000,-0.22500,-0.50000*
%
%ADD27ROUNDEDRECTD27*%
G04:AMPARAMS|DCode=28|XSize=0.6mm|YSize=1.1mm|CornerRadius=0.03mm|HoleSize=0mm|Usage=FLASHONLY|Rotation=270.000|XOffset=0mm|YOffset=0mm|HoleType=Round|Shape=RoundedRectangle|*
%AMROUNDEDRECTD28*
21,1,0.60000,1.04000,0,0,270.0*
21,1,0.54000,1.10000,0,0,270.0*
1,1,0.06000,-0.52000,-0.27000*
1,1,0.06000,-0.52000,0.27000*
1,1,0.06000,0.52000,0.27000*
1,1,0.06000,0.52000,-0.27000*
%
%ADD28ROUNDEDRECTD28*%
G04:AMPARAMS|DCode=29|XSize=0.85mm|YSize=0.9mm|CornerRadius=0.0425mm|HoleSize=0mm|Usage=FLASHONLY|Rotation=270.000|XOffset=0mm|YOffset=0mm|HoleType=Round|Shape=RoundedRectangle|*
%AMROUNDEDRECTD29*
21,1,0.85000,0.81500,0,0,270.0*
21,1,0.76500,0.90000,0,0,270.0*
1,1,0.08500,-0.40750,-0.38250*
1,1,0.08500,-0.40750,0.38250*
1,1,0.08500,0.40750,0.38250*
1,1,0.08500,0.40750,-0.38250*
%
%ADD29ROUNDEDRECTD29*%
G04:AMPARAMS|DCode=30|XSize=2.35mm|YSize=2.1mm|CornerRadius=0.0105mm|HoleSize=0mm|Usage=FLASHONLY|Rotation=270.000|XOffset=0mm|YOffset=0mm|HoleType=Round|Shape=RoundedRectangle|*
%AMROUNDEDRECTD30*
21,1,2.35000,2.07900,0,0,270.0*
21,1,2.32900,2.10000,0,0,270.0*
1,1,0.02100,-1.03950,-1.16450*
1,1,0.02100,-1.03950,1.16450*
1,1,0.02100,1.03950,1.16450*
1,1,0.02100,1.03950,-1.16450*
%
%ADD30ROUNDEDRECTD30*%
%ADD31O,1.50000X0.60000*%
G04:AMPARAMS|DCode=32|XSize=1.275mm|YSize=0.9mm|CornerRadius=0.045mm|HoleSize=0mm|Usage=FLASHONLY|Rotation=0.000|XOffset=0mm|YOffset=0mm|HoleType=Round|Shape=RoundedRectangle|*
%AMROUNDEDRECTD32*
21,1,1.27500,0.81000,0,0,0.0*
21,1,1.18500,0.90000,0,0,0.0*
1,1,0.09000,0.59250,-0.40500*
1,1,0.09000,-0.59250,-0.40500*
1,1,0.09000,-0.59250,0.40500*
1,1,0.09000,0.59250,0.40500*
%
%ADD32ROUNDEDRECTD32*%
G04:AMPARAMS|DCode=33|XSize=0.5mm|YSize=1mm|CornerRadius=0.025mm|HoleSize=0mm|Usage=FLASHONLY|Rotation=0.000|XOffset=0mm|YOffset=0mm|HoleType=Round|Shape=RoundedRectangle|*
%AMROUNDEDRECTD33*
21,1,0.50000,0.95000,0,0,0.0*
21,1,0.45000,1.00000,0,0,0.0*
1,1,0.05000,0.22500,-0.47500*
1,1,0.05000,-0.22500,-0.47500*
1,1,0.05000,-0.22500,0.47500*
1,1,0.05000,0.22500,0.47500*
%
%ADD33ROUNDEDRECTD33*%
G04:AMPARAMS|DCode=34|XSize=1.275mm|YSize=0.9mm|CornerRadius=0.045mm|HoleSize=0mm|Usage=FLASHONLY|Rotation=90.000|XOffset=0mm|YOffset=0mm|HoleType=Round|Shape=RoundedRectangle|*
%AMROUNDEDRECTD34*
21,1,1.27500,0.81000,0,0,90.0*
21,1,1.18500,0.90000,0,0,90.0*
1,1,0.09000,0.40500,0.59250*
1,1,0.09000,0.40500,-0.59250*
1,1,0.09000,-0.40500,-0.59250*
1,1,0.09000,-0.40500,0.59250*
%
%ADD34ROUNDEDRECTD34*%
%TA.AperFunction,Conductor*%
%ADD35C,0.15240*%
%ADD36C,0.25400*%
G36*
X7592691Y7965991D02*
X7652723Y7949906D01*
X7710141Y7926122D01*
X7763962Y7895049D01*
X7813268Y7857215D01*
X7857214Y7813269D01*
X7895049Y7763961D01*
X7926122Y7710141D01*
X7949906Y7652723D01*
X7965991Y7592691D01*
X7974104Y7531074D01*
X7974103Y7500000D01*
Y7500000D01*
Y7500000D01*
X7974104Y500000D01*
Y468926D01*
X7965991Y407308D01*
X7949906Y347277D01*
X7926122Y289858D01*
X7895049Y236038D01*
X7857215Y186731D01*
X7813269Y142786D01*
X7763961Y104950D01*
X7710141Y73877D01*
X7652723Y50093D01*
X7592692Y34008D01*
X7531074Y25896D01*
X468926D01*
X407308Y34008D01*
X347277Y50093D01*
X289858Y73877D01*
X236038Y104950D01*
X186731Y142785D01*
X142786Y186730D01*
X104950Y236038D01*
X73877Y289858D01*
X50093Y347277D01*
X34008Y407308D01*
X25896Y468926D01*
X25897Y500000D01*
Y500000D01*
Y500000D01*
X25896Y7500000D01*
Y7531074D01*
X34008Y7592692D01*
X50093Y7652723D01*
X73877Y7710141D01*
X104950Y7763962D01*
X142785Y7813268D01*
X186730Y7857214D01*
X236038Y7895049D01*
X289858Y7926122D01*
X347277Y7949906D01*
X407308Y7965991D01*
X468926Y7974104D01*
X7531074D01*
X7592691Y7965991D01*
D02*
G37*
%LPC*%
G36*
X6589443Y6461617D02*
X5790426Y6461498D01*
X5689169Y6360226D01*
X5683454Y6355345D01*
X5678564Y6349620D01*
X5578038Y6249079D01*
X5578037Y6104455D01*
X5577687Y6100000D01*
Y4524818D01*
X5455654Y4402786D01*
X5454204Y4401088D01*
X4826930Y3773814D01*
X2747725Y3773786D01*
X2556290Y3582353D01*
X2556294Y3162173D01*
X3201585Y2516865D01*
X3201586Y1852656D01*
X3568430Y1485833D01*
X7183649Y1485828D01*
X7287141Y1589320D01*
X7291046Y1592654D01*
X7294380Y1596559D01*
X7412582Y1714760D01*
X7412583Y5638616D01*
X6589443Y6461617D01*
D02*
G37*
G36*
X1773399Y6799379D02*
X1757127Y6796142D01*
X1753890Y6795498D01*
X1737351Y6784447D01*
X1251564Y6298660D01*
X1240513Y6282121D01*
X1236632Y6262612D01*
X1236621Y977660D01*
X1205863Y968330D01*
X1168937Y948592D01*
X1136570Y922030D01*
X1110008Y889663D01*
X1090270Y852737D01*
X1078116Y812669D01*
X1074012Y771000D01*
X1078116Y729331D01*
X1090270Y689263D01*
X1110008Y652337D01*
X1136570Y619970D01*
X1168937Y593408D01*
X1205863Y573670D01*
X1245931Y561516D01*
X1287600Y557412D01*
X1329269Y561516D01*
X1369337Y573670D01*
X1406263Y593408D01*
X1438630Y619970D01*
X1465192Y652337D01*
X1484930Y689263D01*
X1494260Y720020D01*
X2350940Y720021D01*
X2360270Y689263D01*
X2380008Y652337D01*
X2406570Y619970D01*
X2438937Y593408D01*
X2475863Y573670D01*
X2515931Y561516D01*
X2557600Y557412D01*
X2599269Y561516D01*
X2639337Y573670D01*
X2676263Y593408D01*
X2708630Y619970D01*
X2735192Y652337D01*
X2754930Y689263D01*
X2767084Y729331D01*
X2771188Y771000D01*
X2767084Y812669D01*
X2754930Y852737D01*
X2735192Y889663D01*
X2708630Y922030D01*
X2676263Y948592D01*
X2639337Y968330D01*
X2603168Y979301D01*
X2603170Y1247815D01*
D01*
Y1247815D01*
X2599289Y1267324D01*
X2588238Y1283863D01*
X2032178Y1839923D01*
X2032182Y4085086D01*
X2239501Y4292404D01*
X4546602Y4292421D01*
X4549838Y4293065D01*
X4566111Y4296301D01*
X4582649Y4307352D01*
X4785846Y4510550D01*
X4796897Y4527089D01*
X4800777Y4546598D01*
X4800779Y5678683D01*
X5135866Y6013770D01*
Y6013770D01*
X5135866D01*
X5141354Y6021983D01*
X5146917Y6030309D01*
Y6030309D01*
X5146917Y6030309D01*
X5149254Y6042057D01*
X5150797Y6049818D01*
Y6049818D01*
Y6049818D01*
X5150796Y6150182D01*
X5149253Y6157943D01*
X5146916Y6169691D01*
X5146916Y6169691D01*
Y6169691D01*
X5144687Y6173026D01*
X5135865Y6186230D01*
X4537657Y6784441D01*
X4521118Y6795492D01*
X4501609Y6799372D01*
X4501609D01*
D01*
X1773399Y6799379D01*
D02*
G37*
%LPD*%
G36*
X4501609Y6748393D02*
X5099817Y6150182D01*
X5099818Y6049818D01*
X4749799Y5699800D01*
X4749798Y4546598D01*
X4546601Y4343400D01*
X2218384Y4343384D01*
X1981202Y4106202D01*
X1981199Y1818807D01*
X2552190Y1247815D01*
X2552188Y946376D01*
X2530098Y944638D01*
X2503274Y938198D01*
X2477788Y927641D01*
X2454266Y913227D01*
X2433289Y895311D01*
X2415373Y874334D01*
X2400959Y850812D01*
X2390402Y825326D01*
X2383962Y798502D01*
X2381798Y771001D01*
X1481182Y771000D01*
X1463402Y771000D01*
X1461238Y798502D01*
X1454798Y825326D01*
X1444241Y850812D01*
X1429827Y874334D01*
X1411911Y895311D01*
X1390934Y913227D01*
X1367412Y927641D01*
X1341926Y938198D01*
X1315102Y944638D01*
X1287600Y946802D01*
X1287612Y6262612D01*
X1773399Y6748399D01*
X4501609Y6748393D01*
D02*
G37*
%LPC*%
G36*
X2973250Y6593069D02*
X2882001D01*
Y6475303D01*
X2987270D01*
Y6579050D01*
X2986203Y6584415D01*
X2983163Y6588963D01*
X2978615Y6592002D01*
X2973250Y6593069D01*
D02*
G37*
G36*
X2856601D02*
X2765350D01*
X2759985Y6592002D01*
X2755437Y6588963D01*
X2752398Y6584415D01*
X2751331Y6579050D01*
Y6475303D01*
X2856601D01*
Y6593069D01*
D02*
G37*
G36*
X2987270Y6449903D02*
X2882001D01*
Y6332131D01*
X2973250D01*
X2978615Y6333198D01*
X2983163Y6336237D01*
X2986203Y6340785D01*
X2987270Y6346150D01*
Y6449903D01*
D02*
G37*
G36*
X2856601D02*
X2751331D01*
Y6346150D01*
X2752398Y6340785D01*
X2755437Y6336237D01*
X2759985Y6333198D01*
X2765350Y6332131D01*
X2856601D01*
Y6449903D01*
D02*
G37*
G36*
X2375898Y6474474D02*
Y6325299D01*
X2451324D01*
Y6387600D01*
X2449631Y6404793D01*
X2444616Y6421324D01*
X2436473Y6436560D01*
X2425513Y6449914D01*
X2412159Y6460873D01*
X2396924Y6469017D01*
X2380392Y6474032D01*
X2375898Y6474474D01*
D02*
G37*
G36*
X2350498Y6474474D02*
X2346008Y6474032D01*
X2329476Y6469017D01*
X2314241Y6460873D01*
X2300887Y6449914D01*
X2289927Y6436560D01*
X2281784Y6421324D01*
X2276769Y6404793D01*
X2275076Y6387600D01*
Y6325299D01*
X2350498D01*
Y6474474D01*
D02*
G37*
G36*
X1525900Y6303079D02*
Y6227696D01*
X1601280D01*
X1600814Y6232427D01*
X1595731Y6249185D01*
X1587476Y6264629D01*
X1576366Y6278166D01*
X1562829Y6289275D01*
X1547385Y6297530D01*
X1530628Y6302614D01*
X1525900Y6303079D01*
D02*
G37*
G36*
X1500500D02*
X1495773Y6302614D01*
X1479015Y6297530D01*
X1463571Y6289275D01*
X1450034Y6278166D01*
X1438925Y6264629D01*
X1430670Y6249185D01*
X1425586Y6232427D01*
X1425120Y6227696D01*
X1500500D01*
Y6303079D01*
D02*
G37*
G36*
X2350498Y6299899D02*
X2275076D01*
Y6237600D01*
X2276769Y6220408D01*
X2281784Y6203877D01*
X2289927Y6188641D01*
X2300887Y6175287D01*
X2314241Y6164328D01*
X2329476Y6156184D01*
X2346008Y6151169D01*
X2350498Y6150727D01*
Y6299899D01*
D02*
G37*
G36*
X2451324D02*
X2375898D01*
Y6150727D01*
X2380392Y6151169D01*
X2396924Y6156184D01*
X2412159Y6164328D01*
X2425513Y6175287D01*
X2436473Y6188641D01*
X2444616Y6203877D01*
X2449631Y6220408D01*
X2451324Y6237600D01*
Y6299899D01*
D02*
G37*
G36*
X1500500Y6202296D02*
X1425121D01*
X1425586Y6197573D01*
X1430670Y6180815D01*
X1438925Y6165371D01*
X1450034Y6151834D01*
X1463571Y6140725D01*
X1479015Y6132470D01*
X1495773Y6127386D01*
X1500500Y6126921D01*
Y6202296D01*
D02*
G37*
G36*
X1601279D02*
X1525900D01*
Y6126921D01*
X1530628Y6127386D01*
X1547385Y6132470D01*
X1562829Y6140725D01*
X1576366Y6151834D01*
X1587476Y6165371D01*
X1595731Y6180815D01*
X1600814Y6197573D01*
X1601279Y6202296D01*
D02*
G37*
G36*
X4951500Y6201945D02*
Y6112700D01*
X5040746D01*
X5040014Y6120132D01*
X5034141Y6139491D01*
X5024605Y6157333D01*
X5011771Y6172971D01*
X4996133Y6185804D01*
X4978292Y6195341D01*
X4958932Y6201213D01*
X4951500Y6201945D01*
D02*
G37*
G36*
X4926100D02*
X4918667Y6201213D01*
X4899308Y6195341D01*
X4881467Y6185804D01*
X4865829Y6172971D01*
X4852995Y6157333D01*
X4843459Y6139491D01*
X4837586Y6120132D01*
X4836854Y6112700D01*
X4926100D01*
Y6201945D01*
D02*
G37*
G36*
X3093860Y6152087D02*
X3066062D01*
Y6088002D01*
X3111397D01*
Y6134550D01*
X3110062Y6141261D01*
X3106260Y6146951D01*
X3100571Y6150752D01*
X3093860Y6152087D01*
D02*
G37*
G36*
X3040662D02*
X3012860D01*
X3006149Y6150752D01*
X3000459Y6146951D01*
X2996658Y6141261D01*
X2995323Y6134550D01*
Y6088002D01*
X3040662D01*
Y6152087D01*
D02*
G37*
G36*
X3597540Y6116987D02*
X3569738D01*
Y6052897D01*
X3615077D01*
Y6099450D01*
X3613742Y6106161D01*
X3609941Y6111851D01*
X3604251Y6115652D01*
X3597540Y6116987D01*
D02*
G37*
G36*
X3544338D02*
X3516540D01*
X3509829Y6115652D01*
X3504140Y6111851D01*
X3500338Y6106161D01*
X3499003Y6099450D01*
Y6052897D01*
X3544338D01*
Y6116987D01*
D02*
G37*
G36*
X2649910Y6118592D02*
X2573410D01*
X2566797Y6117277D01*
X2561190Y6113530D01*
X2557444Y6107924D01*
X2556128Y6101310D01*
Y6083778D01*
X2138760D01*
X2130832Y6082201D01*
X2124110Y6077710D01*
X2124110Y6077709D01*
X2028118Y5981718D01*
X1926488D01*
Y5999250D01*
X1925172Y6005863D01*
X1921426Y6011470D01*
X1915819Y6015216D01*
X1909206Y6016532D01*
X1832706D01*
X1826092Y6015216D01*
X1820486Y6011470D01*
X1816739Y6005863D01*
X1815424Y5999250D01*
Y5922750D01*
X1816739Y5916136D01*
X1820486Y5910529D01*
X1826092Y5906783D01*
X1832706Y5905468D01*
X1909206D01*
X1915819Y5906783D01*
X1921426Y5910529D01*
X1925172Y5916136D01*
X1926488Y5922750D01*
Y5940282D01*
X2036698D01*
X2036700Y5940281D01*
X2044628Y5941859D01*
X2051350Y5946350D01*
X2147342Y6042342D01*
X2556128D01*
Y6024810D01*
X2557444Y6018196D01*
X2561190Y6012590D01*
X2566797Y6008843D01*
X2573410Y6007528D01*
X2649910D01*
X2656524Y6008843D01*
X2662131Y6012590D01*
X2665877Y6018196D01*
X2667192Y6024810D01*
Y6101310D01*
X2665877Y6107924D01*
X2662131Y6113530D01*
X2656524Y6117277D01*
X2649910Y6118592D01*
D02*
G37*
G36*
X3111397Y6062602D02*
X3066062D01*
Y5998513D01*
X3093860D01*
X3100571Y5999848D01*
X3106260Y6003649D01*
X3110062Y6009339D01*
X3111397Y6016050D01*
Y6062602D01*
D02*
G37*
G36*
X3040662D02*
X2995323D01*
Y6016050D01*
X2996658Y6009339D01*
X3000459Y6003649D01*
X3006149Y5999848D01*
X3012860Y5998513D01*
X3040662D01*
Y6062602D01*
D02*
G37*
G36*
X5040746Y6087300D02*
X4951500D01*
Y5998054D01*
X4958932Y5998786D01*
X4978292Y6004659D01*
X4996133Y6014195D01*
X5011771Y6027029D01*
X5024605Y6042667D01*
X5034141Y6060508D01*
X5040014Y6079867D01*
X5040746Y6087300D01*
D02*
G37*
G36*
X4926100D02*
X4836854D01*
X4837586Y6079867D01*
X4843459Y6060508D01*
X4852995Y6042667D01*
X4865829Y6027029D01*
X4881467Y6014195D01*
X4899308Y6004659D01*
X4918667Y5998786D01*
X4926100Y5998054D01*
Y6087300D01*
D02*
G37*
G36*
X3615077Y6027497D02*
X3569738D01*
Y5963413D01*
X3597540D01*
X3604251Y5964748D01*
X3609941Y5968549D01*
X3613742Y5974239D01*
X3615077Y5980950D01*
Y6027497D01*
D02*
G37*
G36*
X3544338D02*
X3499003D01*
Y5980950D01*
X3500338Y5974239D01*
X3504140Y5968549D01*
X3509829Y5964748D01*
X3516540Y5963413D01*
X3544338D01*
Y6027497D01*
D02*
G37*
G36*
X2682800Y5899929D02*
X2650502D01*
Y5869562D01*
X2723757D01*
X2720098Y5878394D01*
X2713254Y5887314D01*
X2704334Y5894158D01*
X2693947Y5898461D01*
X2682800Y5899929D01*
D02*
G37*
G36*
X2625102D02*
X2592800D01*
X2581653Y5898461D01*
X2571266Y5894158D01*
X2562346Y5887314D01*
X2555502Y5878394D01*
X2551843Y5869562D01*
X2625102D01*
Y5899929D01*
D02*
G37*
G36*
X2723758Y5844162D02*
X2650502D01*
Y5813792D01*
X2682800D01*
X2693947Y5815259D01*
X2704334Y5819562D01*
X2713254Y5826406D01*
X2720098Y5835326D01*
X2723758Y5844162D01*
D02*
G37*
G36*
X2625102D02*
X2551842D01*
X2555502Y5835326D01*
X2562346Y5826406D01*
X2571266Y5819562D01*
X2581653Y5815259D01*
X2592800Y5813792D01*
X2625102D01*
Y5844162D01*
D02*
G37*
G36*
X3944780Y5894458D02*
X3899780D01*
X3893849Y5893279D01*
X3888822Y5889919D01*
X3885462Y5884891D01*
X3884282Y5878961D01*
Y5783960D01*
X3885462Y5778030D01*
X3888822Y5773002D01*
X3893849Y5769643D01*
X3899780Y5768463D01*
X3944780D01*
X3950711Y5769643D01*
X3955738Y5773002D01*
X3959098Y5778030D01*
X3960278Y5783960D01*
Y5810743D01*
X4075613D01*
Y5790960D01*
X4076948Y5784249D01*
X4080749Y5778560D01*
X4086439Y5774759D01*
X4093150Y5773424D01*
X4211650D01*
X4218361Y5774759D01*
X4224050Y5778560D01*
X4227852Y5784249D01*
X4229187Y5790960D01*
Y5871961D01*
X4227852Y5878672D01*
X4224050Y5884361D01*
X4218361Y5888162D01*
X4211650Y5889497D01*
X4093150D01*
X4086439Y5888162D01*
X4080749Y5884361D01*
X4076948Y5878672D01*
X4075613Y5871961D01*
Y5852179D01*
X3960278D01*
Y5878961D01*
X3959098Y5884891D01*
X3955738Y5889919D01*
X3950711Y5893279D01*
X3944780Y5894458D01*
D02*
G37*
G36*
X2682800Y5772929D02*
X2592800D01*
X2581653Y5771461D01*
X2571266Y5767158D01*
X2562346Y5760314D01*
X2555502Y5751394D01*
X2554627Y5749283D01*
X2189101D01*
X2189100Y5749283D01*
X2181667Y5747805D01*
X2175366Y5743594D01*
X2175365Y5743594D01*
X2037679Y5605908D01*
X2033469Y5599607D01*
X2031991Y5592174D01*
Y4949874D01*
X1637148Y4555031D01*
X1632938Y4548730D01*
X1631459Y4541296D01*
Y4074727D01*
X1559885Y4003154D01*
X1545963Y4010595D01*
X1529902Y4015467D01*
X1513200Y4017112D01*
X1496498Y4015467D01*
X1480438Y4010595D01*
X1465637Y4002684D01*
X1452663Y3992037D01*
X1442016Y3979063D01*
X1434105Y3964262D01*
X1429233Y3948202D01*
X1427588Y3931500D01*
Y3926500D01*
X1429233Y3909798D01*
X1434105Y3893738D01*
X1442016Y3878937D01*
X1452663Y3865963D01*
X1465637Y3855316D01*
X1480438Y3847405D01*
X1496498Y3842533D01*
X1513200Y3840888D01*
X1529902Y3842533D01*
X1545963Y3847405D01*
X1560764Y3855316D01*
X1573737Y3865963D01*
X1584384Y3878937D01*
X1592296Y3893738D01*
X1597167Y3909798D01*
X1598812Y3926500D01*
Y3931500D01*
X1597167Y3948202D01*
X1592296Y3964262D01*
X1586595Y3974927D01*
X1664616Y4052947D01*
X1664616Y4052948D01*
X1668827Y4059249D01*
X1670306Y4066682D01*
X1670305Y4066683D01*
Y4533251D01*
X2065148Y4928094D01*
X2069358Y4934395D01*
X2070837Y4941828D01*
X2070837Y4941829D01*
Y5584128D01*
X2197145Y5710437D01*
X2554627D01*
X2555502Y5708326D01*
X2562346Y5699406D01*
X2571266Y5692562D01*
X2581653Y5688259D01*
X2592800Y5686792D01*
X2682800D01*
X2693947Y5688259D01*
X2704334Y5692562D01*
X2713254Y5699406D01*
X2720098Y5708326D01*
X2724401Y5718713D01*
X2725868Y5729860D01*
X2724401Y5741007D01*
X2720098Y5751394D01*
X2713254Y5760314D01*
X2704334Y5767158D01*
X2693947Y5771461D01*
X2682800Y5772929D01*
D02*
G37*
G36*
X3607630Y5762857D02*
X3561080D01*
Y5717520D01*
X3625167D01*
Y5745320D01*
X3623832Y5752031D01*
X3620030Y5757721D01*
X3614341Y5761522D01*
X3607630Y5762857D01*
D02*
G37*
G36*
X3535680D02*
X3489130D01*
X3482418Y5761522D01*
X3476729Y5757721D01*
X3472928Y5752031D01*
X3471593Y5745320D01*
Y5717520D01*
X3535680D01*
Y5762857D01*
D02*
G37*
G36*
X2779910Y6118592D02*
X2703410D01*
X2696796Y6117277D01*
X2691190Y6113531D01*
X2687443Y6107924D01*
X2686128Y6101310D01*
Y6024810D01*
X2687443Y6018197D01*
X2691190Y6012590D01*
X2696796Y6008844D01*
X2703410Y6007528D01*
X2779910D01*
X2786524Y6008844D01*
X2792130Y6012590D01*
X2795877Y6018197D01*
X2797192Y6024810D01*
Y6042342D01*
X2839300D01*
X2889602Y5992041D01*
Y5789182D01*
X2889602Y5789180D01*
X2891179Y5781252D01*
X2895670Y5774530D01*
X2954990Y5715211D01*
X2954990Y5715210D01*
X2961712Y5710719D01*
X2969640Y5709142D01*
X2969642Y5709142D01*
X3095163D01*
X3095502Y5708326D01*
X3102346Y5699406D01*
X3111266Y5692562D01*
X3121653Y5688259D01*
X3132800Y5686792D01*
X3222800D01*
X3233947Y5688259D01*
X3244334Y5692562D01*
X3253254Y5699406D01*
X3260098Y5708326D01*
X3264401Y5718713D01*
X3265868Y5729860D01*
X3264401Y5741007D01*
X3260098Y5751394D01*
X3253254Y5760314D01*
X3244334Y5767158D01*
X3233947Y5771461D01*
X3222800Y5772929D01*
X3132800D01*
X3121653Y5771461D01*
X3111266Y5767158D01*
X3102346Y5760314D01*
X3095502Y5751394D01*
X3095163Y5750578D01*
X2978222D01*
X2931038Y5797762D01*
Y6000621D01*
X2931038Y6000622D01*
X2929461Y6008551D01*
X2924970Y6015272D01*
X2924969Y6015273D01*
X2862532Y6077710D01*
X2855810Y6082201D01*
X2847882Y6083779D01*
X2847881Y6083778D01*
X2797192D01*
Y6101310D01*
X2795877Y6107924D01*
X2792130Y6113531D01*
X2786524Y6117277D01*
X2779910Y6118592D01*
D02*
G37*
G36*
X4211650Y5714257D02*
X4093150D01*
X4086439Y5712922D01*
X4080749Y5709121D01*
X4076948Y5703431D01*
X4075613Y5696720D01*
Y5675643D01*
X3753536D01*
X3753534Y5675643D01*
X3746101Y5674165D01*
X3739800Y5669954D01*
X3739799Y5669954D01*
X3718546Y5648700D01*
X3714335Y5642399D01*
X3712857Y5634966D01*
Y5599458D01*
X3709780D01*
X3703849Y5598278D01*
X3698822Y5594918D01*
X3695462Y5589891D01*
X3694282Y5583960D01*
Y5488960D01*
X3695462Y5483029D01*
X3698822Y5478002D01*
X3703849Y5474642D01*
X3709780Y5473463D01*
X3754780D01*
X3760711Y5474642D01*
X3765738Y5478002D01*
X3769098Y5483029D01*
X3770278Y5488960D01*
Y5583960D01*
X3769098Y5589891D01*
X3765738Y5594918D01*
X3760711Y5598278D01*
X3754780Y5599458D01*
X3751703D01*
Y5626920D01*
X3761579Y5636797D01*
X4075613D01*
Y5615720D01*
X4076948Y5609009D01*
X4080749Y5603320D01*
X4086439Y5599518D01*
X4093150Y5598183D01*
X4211650D01*
X4218361Y5599518D01*
X4224050Y5603320D01*
X4227852Y5609009D01*
X4229187Y5615720D01*
Y5696720D01*
X4227852Y5703431D01*
X4224050Y5709121D01*
X4218361Y5712922D01*
X4211650Y5714257D01*
D02*
G37*
G36*
X3625167Y5692120D02*
X3561080D01*
Y5646783D01*
X3607630D01*
X3614341Y5648118D01*
X3620030Y5651919D01*
X3623832Y5657609D01*
X3625167Y5664320D01*
Y5692120D01*
D02*
G37*
G36*
X3535680D02*
X3471593D01*
Y5664320D01*
X3472928Y5657609D01*
X3476729Y5651919D01*
X3482418Y5648118D01*
X3489130Y5646783D01*
X3535680D01*
Y5692120D01*
D02*
G37*
G36*
X3222800Y5645929D02*
X3132800D01*
X3121653Y5644461D01*
X3111266Y5640158D01*
X3102346Y5633314D01*
X3095502Y5624394D01*
X3091199Y5614007D01*
X3089731Y5602860D01*
X3091199Y5591713D01*
X3095502Y5581326D01*
X3102346Y5572406D01*
X3111266Y5565562D01*
X3121653Y5561259D01*
X3132800Y5559792D01*
X3222800D01*
X3233947Y5561259D01*
X3244334Y5565562D01*
X3253254Y5572406D01*
X3260098Y5581326D01*
X3264401Y5591713D01*
X3265868Y5602860D01*
X3264401Y5614007D01*
X3260098Y5624394D01*
X3253254Y5633314D01*
X3244334Y5640158D01*
X3233947Y5644461D01*
X3222800Y5645929D01*
D02*
G37*
G36*
X2682800D02*
X2592800D01*
X2581653Y5644461D01*
X2571266Y5640158D01*
X2562346Y5633314D01*
X2556045Y5625102D01*
X2236344D01*
X2228415Y5623525D01*
X2221694Y5619034D01*
X2221694Y5619033D01*
X2109790Y5507130D01*
X2105299Y5500408D01*
X2103721Y5492480D01*
X2103722Y5492478D01*
Y4868305D01*
X1698050Y4462633D01*
X1693559Y4455912D01*
X1691981Y4447983D01*
X1691982Y4447982D01*
Y3883081D01*
X1558692Y3749791D01*
X1545963Y3756595D01*
X1529902Y3761467D01*
X1513200Y3763112D01*
X1496498Y3761467D01*
X1480438Y3756595D01*
X1465637Y3748684D01*
X1452663Y3738037D01*
X1442016Y3725063D01*
X1434105Y3710262D01*
X1429233Y3694202D01*
X1427588Y3677500D01*
Y3672500D01*
X1429233Y3655798D01*
X1434105Y3639738D01*
X1442016Y3624937D01*
X1452663Y3611963D01*
X1465637Y3601316D01*
X1480438Y3593405D01*
X1496498Y3588533D01*
X1513200Y3586888D01*
X1529902Y3588533D01*
X1545963Y3593405D01*
X1560764Y3601316D01*
X1573737Y3611963D01*
X1584384Y3624937D01*
X1592296Y3639738D01*
X1597167Y3655798D01*
X1598812Y3672500D01*
Y3677500D01*
X1597167Y3694202D01*
X1592296Y3710262D01*
X1587233Y3719733D01*
X1727349Y3859849D01*
X1727350Y3859850D01*
X1731841Y3866571D01*
X1733418Y3874499D01*
Y4439401D01*
X2139089Y4845073D01*
X2139090Y4845073D01*
X2143581Y4851794D01*
X2145158Y4859723D01*
X2145158Y4859724D01*
Y5483898D01*
X2244926Y5583666D01*
X2554532D01*
X2555502Y5581326D01*
X2562346Y5572406D01*
X2571266Y5565562D01*
X2581653Y5561259D01*
X2592800Y5559792D01*
X2682800D01*
X2693947Y5561259D01*
X2704334Y5565562D01*
X2713254Y5572406D01*
X2720098Y5581326D01*
X2724401Y5591713D01*
X2725868Y5602860D01*
X2724401Y5614007D01*
X2720098Y5624394D01*
X2713254Y5633314D01*
X2704334Y5640158D01*
X2693947Y5644461D01*
X2682800Y5645929D01*
D02*
G37*
G36*
X3944780Y5599458D02*
X3934980D01*
Y5549160D01*
X3960278D01*
Y5583960D01*
X3959098Y5589891D01*
X3955738Y5594918D01*
X3950711Y5598278D01*
X3944780Y5599458D01*
D02*
G37*
G36*
X3909580D02*
X3899780D01*
X3893849Y5598278D01*
X3888822Y5594918D01*
X3885462Y5589891D01*
X3884282Y5583960D01*
Y5549160D01*
X3909580D01*
Y5599458D01*
D02*
G37*
G36*
X3411370Y5534392D02*
X3385820D01*
Y5491563D01*
X3428652D01*
Y5517110D01*
X3427337Y5523724D01*
X3423590Y5529330D01*
X3417984Y5533077D01*
X3411370Y5534392D01*
D02*
G37*
G36*
X3360420D02*
X3334870D01*
X3328256Y5533077D01*
X3322650Y5529330D01*
X3318903Y5523724D01*
X3317588Y5517110D01*
Y5491563D01*
X3360420D01*
Y5534392D01*
D02*
G37*
G36*
X3960278Y5523760D02*
X3934980D01*
Y5473463D01*
X3944780D01*
X3950711Y5474642D01*
X3955738Y5478002D01*
X3959098Y5483029D01*
X3960278Y5488960D01*
Y5523760D01*
D02*
G37*
G36*
X3909580D02*
X3884282D01*
Y5488960D01*
X3885462Y5483029D01*
X3888822Y5478002D01*
X3893849Y5474642D01*
X3899780Y5473463D01*
X3909580D01*
Y5523760D01*
D02*
G37*
G36*
X2318750Y5491132D02*
X2290706D01*
Y5448302D01*
X2336032D01*
Y5473850D01*
X2334716Y5480464D01*
X2330970Y5486071D01*
X2325363Y5489817D01*
X2318750Y5491132D01*
D02*
G37*
G36*
X2265306D02*
X2237250D01*
X2230637Y5489817D01*
X2225030Y5486071D01*
X2221284Y5480464D01*
X2219968Y5473850D01*
Y5448302D01*
X2265306D01*
Y5491132D01*
D02*
G37*
G36*
X3849780Y5599457D02*
X3804780D01*
X3798849Y5598278D01*
X3793821Y5594918D01*
X3790462Y5589891D01*
X3789282Y5583960D01*
Y5488960D01*
X3790462Y5483029D01*
X3793821Y5478001D01*
X3798849Y5474642D01*
X3804780Y5473462D01*
X3807857D01*
Y5454874D01*
X3787686Y5434703D01*
X3581529D01*
X3567803Y5448429D01*
Y5471543D01*
X3607630D01*
X3614341Y5472878D01*
X3620031Y5476679D01*
X3623832Y5482369D01*
X3625167Y5489080D01*
Y5570080D01*
X3623832Y5576791D01*
X3620031Y5582481D01*
X3614341Y5586282D01*
X3607630Y5587617D01*
X3489130D01*
X3482419Y5586282D01*
X3476729Y5582481D01*
X3472928Y5576791D01*
X3471593Y5570080D01*
Y5489080D01*
X3472928Y5482369D01*
X3476729Y5476679D01*
X3482419Y5472878D01*
X3489130Y5471543D01*
X3528957D01*
Y5440383D01*
X3530435Y5432950D01*
X3534646Y5426649D01*
X3559749Y5401546D01*
X3559749Y5401546D01*
X3566051Y5397335D01*
X3573483Y5395857D01*
X3573485Y5395857D01*
X3693354D01*
Y5321178D01*
X3690277D01*
X3684346Y5319999D01*
X3679319Y5316639D01*
X3675959Y5311611D01*
X3674779Y5305681D01*
Y5205680D01*
X3675192Y5203604D01*
Y5183582D01*
X3663799Y5172189D01*
X3480456D01*
X3476404Y5174897D01*
X3469790Y5176212D01*
X3393290D01*
X3386676Y5174897D01*
X3381070Y5171151D01*
X3377323Y5165544D01*
X3376008Y5158930D01*
Y5082430D01*
X3377323Y5075817D01*
X3381070Y5070210D01*
X3386676Y5066464D01*
X3393290Y5065148D01*
X3469790D01*
X3476404Y5066464D01*
X3482010Y5070210D01*
X3485757Y5075817D01*
X3487072Y5082430D01*
Y5133343D01*
X3671844D01*
X3679277Y5134821D01*
X3685579Y5139032D01*
X3708350Y5161803D01*
X3712560Y5168104D01*
X3714039Y5175537D01*
Y5190183D01*
X3735277D01*
X3741208Y5191362D01*
X3746235Y5194722D01*
X3749595Y5199750D01*
X3750775Y5205680D01*
Y5305681D01*
X3749595Y5311611D01*
X3746235Y5316639D01*
X3741208Y5319999D01*
X3735277Y5321178D01*
X3732200D01*
Y5395857D01*
X3795731D01*
X3803164Y5397335D01*
X3809466Y5401546D01*
X3841014Y5433094D01*
X3845224Y5439396D01*
X3846703Y5446829D01*
Y5473462D01*
X3849780D01*
X3855711Y5474642D01*
X3860738Y5478001D01*
X3864098Y5483029D01*
X3865278Y5488960D01*
Y5583960D01*
X3864098Y5589891D01*
X3860738Y5594918D01*
X3855711Y5598278D01*
X3849780Y5599457D01*
D02*
G37*
G36*
X2266030Y5970643D02*
X2258597Y5969165D01*
X2252295Y5964954D01*
X2252295Y5964954D01*
X2013764Y5726423D01*
X1926488D01*
Y5745250D01*
X1925172Y5751863D01*
X1921426Y5757470D01*
X1915819Y5761216D01*
X1909206Y5762532D01*
X1832706D01*
X1826092Y5761216D01*
X1820486Y5757470D01*
X1816739Y5751863D01*
X1815424Y5745250D01*
Y5668749D01*
X1815662Y5667554D01*
Y5619931D01*
X1763372Y5567641D01*
X1759161Y5561340D01*
X1757683Y5553907D01*
Y5508532D01*
X1702706D01*
X1696092Y5507217D01*
X1690486Y5503470D01*
X1686739Y5497864D01*
X1685424Y5491250D01*
Y5472423D01*
X1600209D01*
X1595731Y5487185D01*
X1587476Y5502629D01*
X1576366Y5516166D01*
X1562829Y5527275D01*
X1547385Y5535530D01*
X1530628Y5540614D01*
X1513200Y5542330D01*
X1495773Y5540614D01*
X1479015Y5535530D01*
X1463571Y5527275D01*
X1450034Y5516166D01*
X1438925Y5502629D01*
X1430670Y5487185D01*
X1425586Y5470427D01*
X1423870Y5453000D01*
X1425586Y5435573D01*
X1430670Y5418815D01*
X1438925Y5403371D01*
X1450034Y5389834D01*
X1463571Y5378725D01*
X1479015Y5370470D01*
X1495773Y5365386D01*
X1513200Y5363670D01*
X1530628Y5365386D01*
X1547385Y5370470D01*
X1562829Y5378725D01*
X1576366Y5389834D01*
X1587476Y5403371D01*
X1595731Y5418815D01*
X1600209Y5433577D01*
X1685424D01*
Y5414750D01*
X1686739Y5408137D01*
X1690486Y5402530D01*
X1696092Y5398783D01*
X1702706Y5397468D01*
X1779206D01*
X1785819Y5398783D01*
X1791426Y5402530D01*
X1795172Y5408137D01*
X1796488Y5414750D01*
Y5488943D01*
X1796529Y5489150D01*
Y5545862D01*
X1848818Y5598151D01*
X1848819Y5598152D01*
X1853029Y5604453D01*
X1854508Y5611886D01*
X1854508Y5611887D01*
Y5651467D01*
X1909206D01*
X1915819Y5652783D01*
X1921426Y5656529D01*
X1925172Y5662136D01*
X1926488Y5668749D01*
Y5687576D01*
X2021809D01*
X2029242Y5689055D01*
X2035543Y5693265D01*
X2274075Y5931797D01*
X2798842D01*
X2822113Y5908525D01*
Y5573484D01*
X2823592Y5566051D01*
X2827802Y5559749D01*
X2925426Y5462126D01*
X2931727Y5457915D01*
X2939160Y5456437D01*
X3094627D01*
X3095502Y5454326D01*
X3102346Y5445406D01*
X3111266Y5438562D01*
X3121653Y5434259D01*
X3132800Y5432792D01*
X3222800D01*
X3233947Y5434259D01*
X3244334Y5438562D01*
X3253254Y5445406D01*
X3260098Y5454326D01*
X3264401Y5464713D01*
X3265868Y5475860D01*
X3264401Y5487007D01*
X3260098Y5497394D01*
X3253254Y5506314D01*
X3244334Y5513158D01*
X3233947Y5517461D01*
X3222800Y5518929D01*
X3132800D01*
X3121653Y5517461D01*
X3111266Y5513158D01*
X3102346Y5506314D01*
X3095502Y5497394D01*
X3094627Y5495283D01*
X2947206D01*
X2860960Y5581529D01*
Y5916571D01*
X2859481Y5924004D01*
X2855271Y5930305D01*
X2820621Y5964954D01*
X2814320Y5969165D01*
X2806887Y5970643D01*
X2266031D01*
X2266030Y5970643D01*
D02*
G37*
G36*
X2682800Y5518929D02*
X2592800D01*
X2581653Y5517461D01*
X2571266Y5513158D01*
X2562346Y5506314D01*
X2555502Y5497394D01*
X2551199Y5487007D01*
X2549732Y5475860D01*
X2551199Y5464713D01*
X2555502Y5454326D01*
X2562346Y5445406D01*
X2571266Y5438562D01*
X2581653Y5434259D01*
X2592800Y5432792D01*
X2682800D01*
X2693947Y5434259D01*
X2704334Y5438562D01*
X2713254Y5445406D01*
X2720098Y5454326D01*
X2724401Y5464713D01*
X2725868Y5475860D01*
X2724401Y5487007D01*
X2720098Y5497394D01*
X2713254Y5506314D01*
X2704334Y5513158D01*
X2693947Y5517461D01*
X2682800Y5518929D01*
D02*
G37*
G36*
X3428652Y5466163D02*
X3385820D01*
Y5423328D01*
X3411370D01*
X3417984Y5424643D01*
X3423590Y5428390D01*
X3427337Y5433996D01*
X3428652Y5440610D01*
Y5466163D01*
D02*
G37*
G36*
X3360420D02*
X3317588D01*
Y5440610D01*
X3318903Y5433996D01*
X3322650Y5428390D01*
X3328256Y5424643D01*
X3334870Y5423328D01*
X3360420D01*
Y5466163D01*
D02*
G37*
G36*
X4237755Y6698098D02*
X1768155D01*
X1758244Y6696126D01*
X1749843Y6690512D01*
X1327888Y6268557D01*
X1322274Y6260156D01*
X1320302Y6250245D01*
Y5964538D01*
Y4604001D01*
X1322274Y4594090D01*
X1327888Y4585688D01*
X1436616Y4476960D01*
X1434105Y4472262D01*
X1429233Y4456202D01*
X1427588Y4439500D01*
Y4434500D01*
X1429233Y4417798D01*
X1434105Y4401738D01*
X1442016Y4386937D01*
X1452663Y4373963D01*
X1465637Y4363316D01*
X1480438Y4355405D01*
X1496498Y4350533D01*
X1513200Y4348888D01*
X1529902Y4350533D01*
X1545963Y4355405D01*
X1560764Y4363316D01*
X1573737Y4373963D01*
X1584384Y4386937D01*
X1592296Y4401738D01*
X1597167Y4417798D01*
X1598812Y4434500D01*
Y4439500D01*
X1597167Y4456202D01*
X1592296Y4472262D01*
X1584384Y4487063D01*
X1573737Y4500037D01*
X1560764Y4510684D01*
X1545963Y4518595D01*
X1529902Y4523467D01*
X1513200Y4525112D01*
X1496498Y4523467D01*
X1480438Y4518595D01*
X1472482Y4514343D01*
X1372098Y4614728D01*
Y5938640D01*
X1427083D01*
X1430670Y5926815D01*
X1438925Y5911371D01*
X1450034Y5897834D01*
X1463571Y5886725D01*
X1479015Y5878470D01*
X1495773Y5873386D01*
X1513200Y5871670D01*
X1530628Y5873386D01*
X1547385Y5878470D01*
X1562829Y5886725D01*
X1576366Y5897834D01*
X1587476Y5911371D01*
X1595731Y5926815D01*
X1600814Y5943573D01*
X1600820Y5943637D01*
X1685424D01*
Y5922750D01*
X1686739Y5916136D01*
X1690486Y5910529D01*
X1696092Y5906783D01*
X1702706Y5905468D01*
X1720238D01*
Y5762532D01*
X1702706D01*
X1696092Y5761216D01*
X1690486Y5757470D01*
X1686739Y5751863D01*
X1685424Y5745250D01*
Y5668749D01*
X1686739Y5662136D01*
X1690486Y5656529D01*
X1696092Y5652783D01*
X1702706Y5651467D01*
X1779206D01*
X1785819Y5652783D01*
X1791426Y5656529D01*
X1795172Y5662136D01*
X1796488Y5668749D01*
Y5745250D01*
X1795172Y5751863D01*
X1791426Y5757470D01*
X1785819Y5761216D01*
X1779206Y5762532D01*
X1761674D01*
Y5905468D01*
X1779206D01*
X1785819Y5906783D01*
X1791426Y5910529D01*
X1795172Y5916136D01*
X1796488Y5922750D01*
Y5999250D01*
X1795172Y6005863D01*
X1791426Y6011470D01*
X1785819Y6015216D01*
X1779206Y6016532D01*
X1702706D01*
X1696092Y6015216D01*
X1690486Y6011470D01*
X1686739Y6005863D01*
X1685424Y5999250D01*
Y5985073D01*
X1598798D01*
X1595731Y5995185D01*
X1587476Y6010629D01*
X1576366Y6024166D01*
X1562829Y6035275D01*
X1547385Y6043530D01*
X1530628Y6048614D01*
X1513200Y6050330D01*
X1495773Y6048614D01*
X1479015Y6043530D01*
X1463571Y6035275D01*
X1450034Y6024166D01*
X1438925Y6010629D01*
X1430670Y5995185D01*
X1429229Y5990435D01*
X1372098D01*
Y6239518D01*
X1778882Y6646302D01*
X3428402D01*
Y6593069D01*
X3350350D01*
X3344985Y6592002D01*
X3340436Y6588963D01*
X3337397Y6584415D01*
X3336330Y6579050D01*
Y6365867D01*
X3336201Y6365220D01*
X3336202Y6365219D01*
Y6307161D01*
X3251330Y6222290D01*
X3246839Y6215568D01*
X3245262Y6207640D01*
X3245262Y6207638D01*
Y6152087D01*
X3188100D01*
X3181389Y6150752D01*
X3175699Y6146951D01*
X3171898Y6141261D01*
X3170563Y6134550D01*
Y6016050D01*
X3171898Y6009339D01*
X3175699Y6003649D01*
X3181389Y5999848D01*
X3183202Y5999487D01*
Y5899929D01*
X3132800D01*
X3121653Y5898461D01*
X3111266Y5894158D01*
X3102346Y5887314D01*
X3095502Y5878394D01*
X3091199Y5868007D01*
X3089731Y5856860D01*
X3091199Y5845713D01*
X3095502Y5835326D01*
X3102346Y5826406D01*
X3111266Y5819562D01*
X3121653Y5815259D01*
X3132800Y5813792D01*
X3222800D01*
X3233947Y5815259D01*
X3244334Y5819562D01*
X3253254Y5826406D01*
X3260098Y5835326D01*
X3264401Y5845713D01*
X3265868Y5856860D01*
X3264401Y5868007D01*
X3260098Y5878394D01*
X3253254Y5887314D01*
X3244334Y5894158D01*
X3233947Y5898461D01*
X3224638Y5899686D01*
Y5998513D01*
X3269100D01*
X3275811Y5999848D01*
X3281500Y6003649D01*
X3285302Y6009339D01*
X3286637Y6016050D01*
Y6112372D01*
X3286698Y6112680D01*
Y6199058D01*
X3371569Y6283929D01*
X3371570Y6283929D01*
X3376061Y6290651D01*
X3377638Y6298579D01*
X3377638Y6298580D01*
Y6332131D01*
X3558250D01*
X3563615Y6333198D01*
X3568163Y6336237D01*
X3571202Y6340785D01*
X3572269Y6346150D01*
Y6355383D01*
X3712857D01*
Y6116987D01*
X3691780D01*
X3685069Y6115652D01*
X3679379Y6111851D01*
X3675578Y6106161D01*
X3674243Y6099450D01*
Y5980950D01*
X3675578Y5974239D01*
X3679379Y5968549D01*
X3685069Y5964748D01*
X3691780Y5963413D01*
X3712857D01*
Y5894458D01*
X3709780D01*
X3703849Y5893278D01*
X3698822Y5889918D01*
X3695462Y5884891D01*
X3694282Y5878960D01*
Y5783960D01*
X3695462Y5778029D01*
X3698822Y5773002D01*
X3703849Y5769642D01*
X3709780Y5768462D01*
X3754780D01*
X3760711Y5769642D01*
X3765738Y5773002D01*
X3769098Y5778029D01*
X3770278Y5783960D01*
Y5878960D01*
X3769098Y5884891D01*
X3765738Y5889918D01*
X3760711Y5893278D01*
X3754780Y5894458D01*
X3751703D01*
Y5963413D01*
X3772780D01*
X3779491Y5964748D01*
X3785181Y5968549D01*
X3788982Y5974239D01*
X3790317Y5980950D01*
Y6099450D01*
X3788982Y6106161D01*
X3785181Y6111851D01*
X3779491Y6115652D01*
X3772780Y6116987D01*
X3751703D01*
Y6355383D01*
X3815076D01*
Y6237600D01*
X3816769Y6220408D01*
X3821784Y6203877D01*
X3829927Y6188641D01*
X3840887Y6175287D01*
X3854241Y6164328D01*
X3869476Y6156184D01*
X3886008Y6151169D01*
X3903200Y6149476D01*
X3920392Y6151169D01*
X3936924Y6156184D01*
X3952159Y6164328D01*
X3965513Y6175287D01*
X3976473Y6188641D01*
X3984616Y6203877D01*
X3989631Y6220408D01*
X3991324Y6237600D01*
Y6387600D01*
X3989631Y6404793D01*
X3984616Y6421324D01*
X3976473Y6436560D01*
X3965513Y6449914D01*
X3952159Y6460873D01*
X3936924Y6469017D01*
X3920392Y6474032D01*
X3903200Y6475725D01*
X3886008Y6474032D01*
X3869476Y6469017D01*
X3854241Y6460873D01*
X3840887Y6449914D01*
X3829927Y6436560D01*
X3821784Y6421324D01*
X3817492Y6407178D01*
X3572269D01*
Y6579050D01*
X3571202Y6584415D01*
X3568163Y6588963D01*
X3563615Y6592002D01*
X3558250Y6593069D01*
X3480197D01*
Y6646302D01*
X4227027D01*
X4612146Y6261184D01*
Y5401898D01*
X4548715D01*
X4543425Y5419337D01*
X4532960Y5438916D01*
X4518876Y5456076D01*
X4501716Y5470160D01*
X4482137Y5480625D01*
X4460893Y5487069D01*
X4438800Y5489245D01*
X4416707Y5487069D01*
X4395463Y5480625D01*
X4375884Y5470160D01*
X4358723Y5456076D01*
X4344640Y5438916D01*
X4334175Y5419337D01*
X4327730Y5398093D01*
X4325554Y5376000D01*
X4327730Y5353907D01*
X4334175Y5332663D01*
X4342766Y5316590D01*
X4318916Y5292741D01*
X4313303Y5284339D01*
X4311331Y5274429D01*
Y5152932D01*
X4299110D01*
X4292496Y5151617D01*
X4286890Y5147870D01*
X4283143Y5142264D01*
X4281828Y5135650D01*
Y5123298D01*
X4178214D01*
Y5143050D01*
X4177209Y5148102D01*
X4174347Y5152386D01*
X4170063Y5155248D01*
X4165010Y5156253D01*
X4115510D01*
X4110457Y5155248D01*
X4106174Y5152386D01*
X4103312Y5148102D01*
X4102307Y5143050D01*
Y5063550D01*
X4103312Y5058497D01*
X4106174Y5054213D01*
X4110457Y5051351D01*
X4115510Y5050346D01*
X4165010D01*
X4170063Y5051351D01*
X4174347Y5054213D01*
X4177209Y5058497D01*
X4178214Y5063550D01*
Y5071502D01*
X4281828D01*
Y5059150D01*
X4283143Y5052537D01*
X4286890Y5046930D01*
X4292496Y5043183D01*
X4299110Y5041868D01*
X4375610D01*
X4382223Y5043183D01*
X4387830Y5046930D01*
X4391576Y5052537D01*
X4392892Y5059150D01*
Y5135650D01*
X4391576Y5142264D01*
X4387830Y5147870D01*
X4382223Y5151617D01*
X4375610Y5152932D01*
X4363126D01*
Y5263702D01*
X4379390Y5279966D01*
X4395463Y5271375D01*
X4416707Y5264931D01*
X4438800Y5262755D01*
X4460893Y5264931D01*
X4482137Y5271375D01*
X4501716Y5281840D01*
X4518876Y5295923D01*
X4532960Y5313084D01*
X4543425Y5332663D01*
X4548715Y5350102D01*
X4612146D01*
Y4582410D01*
X4497070Y4467333D01*
X3241732D01*
Y4508651D01*
X3240417Y4515265D01*
X3236671Y4520871D01*
X3231064Y4524618D01*
X3224450Y4525933D01*
X3208623D01*
Y4618068D01*
X3227450D01*
X3234063Y4619383D01*
X3239670Y4623130D01*
X3243416Y4628736D01*
X3244732Y4635350D01*
Y4711850D01*
X3243416Y4718464D01*
X3239670Y4724070D01*
X3234063Y4727817D01*
X3227450Y4729132D01*
X3208623D01*
Y4821269D01*
X3227450D01*
X3234064Y4822584D01*
X3239670Y4826331D01*
X3243417Y4831938D01*
X3244732Y4838551D01*
Y4915051D01*
X3243417Y4921665D01*
X3239670Y4927271D01*
X3234064Y4931018D01*
X3227450Y4932333D01*
X3150950D01*
X3144337Y4931018D01*
X3138730Y4927271D01*
X3134984Y4921665D01*
X3133668Y4915051D01*
Y4838551D01*
X3134984Y4831938D01*
X3138730Y4826331D01*
X3144337Y4822584D01*
X3150950Y4821269D01*
X3169777D01*
Y4729132D01*
X3150950D01*
X3144336Y4727817D01*
X3138730Y4724070D01*
X3134983Y4718464D01*
X3133668Y4711850D01*
Y4635350D01*
X3134983Y4628736D01*
X3138730Y4623130D01*
X3144336Y4619383D01*
X3150950Y4618068D01*
X3169777D01*
Y4525933D01*
X3147950D01*
X3141337Y4524618D01*
X3135730Y4520871D01*
X3131984Y4515265D01*
X3130668Y4508651D01*
Y4432151D01*
X3131984Y4425538D01*
X3135730Y4419931D01*
X3141337Y4416184D01*
X3147950Y4414869D01*
X3224450D01*
X3227815Y4415538D01*
X4507797D01*
X4517708Y4417510D01*
X4526109Y4423123D01*
X4656356Y4553370D01*
X4661970Y4561772D01*
X4663941Y4571683D01*
Y5376000D01*
Y6271911D01*
X4661970Y6281821D01*
X4656356Y6290223D01*
X4256067Y6690512D01*
X4247665Y6696126D01*
X4237755Y6698098D01*
D02*
G37*
G36*
X2336032Y5422902D02*
X2290706D01*
Y5380068D01*
X2318750D01*
X2325363Y5381384D01*
X2330970Y5385130D01*
X2334716Y5390737D01*
X2336032Y5397350D01*
Y5422902D01*
D02*
G37*
G36*
X2265306D02*
X2219968D01*
Y5397350D01*
X2221284Y5390737D01*
X2225030Y5385130D01*
X2230637Y5381384D01*
X2237250Y5380068D01*
X2265306D01*
Y5422902D01*
D02*
G37*
G36*
X3411370Y5404392D02*
X3334870D01*
X3328256Y5403077D01*
X3322650Y5399330D01*
X3318903Y5393724D01*
X3317588Y5387110D01*
Y5368283D01*
X3260973D01*
X3260098Y5370394D01*
X3253254Y5379314D01*
X3244334Y5386158D01*
X3233947Y5390461D01*
X3222800Y5391929D01*
X3132800D01*
X3121653Y5390461D01*
X3111266Y5386158D01*
X3102346Y5379314D01*
X3095502Y5370394D01*
X3091199Y5360007D01*
X3089731Y5348860D01*
X3091199Y5337713D01*
X3095502Y5327326D01*
X3102346Y5318406D01*
X3111266Y5311562D01*
X3121653Y5307259D01*
X3132800Y5305792D01*
X3222800D01*
X3233947Y5307259D01*
X3244334Y5311562D01*
X3253254Y5318406D01*
X3260098Y5327326D01*
X3260973Y5329437D01*
X3317588D01*
Y5310610D01*
X3318903Y5303997D01*
X3322650Y5298390D01*
X3328256Y5294643D01*
X3334870Y5293328D01*
X3411370D01*
X3417984Y5294643D01*
X3423590Y5298390D01*
X3427337Y5303997D01*
X3428652Y5310610D01*
Y5329437D01*
X3449185D01*
X3536676Y5241946D01*
X3542978Y5237736D01*
X3550410Y5236257D01*
X3579779D01*
Y5205680D01*
X3580959Y5199750D01*
X3584318Y5194722D01*
X3589346Y5191362D01*
X3595277Y5190183D01*
X3640277D01*
X3646208Y5191362D01*
X3651235Y5194722D01*
X3654595Y5199750D01*
X3655775Y5205680D01*
Y5305681D01*
X3654595Y5311611D01*
X3651235Y5316639D01*
X3646208Y5319999D01*
X3640277Y5321178D01*
X3595277D01*
X3589346Y5319999D01*
X3584318Y5316639D01*
X3580959Y5311611D01*
X3579779Y5305681D01*
Y5275103D01*
X3558456D01*
X3470965Y5362594D01*
X3464664Y5366805D01*
X3457231Y5368283D01*
X3428652D01*
Y5387110D01*
X3427337Y5393724D01*
X3423590Y5399330D01*
X3417984Y5403077D01*
X3411370Y5404392D01*
D02*
G37*
G36*
X4015890Y5405232D02*
X3990340D01*
Y5362400D01*
X4033172D01*
Y5387950D01*
X4031857Y5394564D01*
X4028111Y5400170D01*
X4022504Y5403917D01*
X4015890Y5405232D01*
D02*
G37*
G36*
X3964940D02*
X3939390D01*
X3932777Y5403917D01*
X3927170Y5400170D01*
X3923424Y5394564D01*
X3922108Y5387950D01*
Y5362400D01*
X3964940D01*
Y5405232D01*
D02*
G37*
G36*
X4033172Y5337000D02*
X3990340D01*
Y5294168D01*
X4015890D01*
X4022504Y5295483D01*
X4028111Y5299230D01*
X4031857Y5304836D01*
X4033172Y5311450D01*
Y5337000D01*
D02*
G37*
G36*
X3964940D02*
X3922108D01*
Y5311450D01*
X3923424Y5304836D01*
X3927170Y5299230D01*
X3932777Y5295483D01*
X3939390Y5294168D01*
X3964940D01*
Y5337000D01*
D02*
G37*
G36*
X2318750Y5313332D02*
X2290698D01*
Y5270494D01*
X2336032D01*
Y5296050D01*
X2334717Y5302663D01*
X2330970Y5308270D01*
X2325364Y5312016D01*
X2318750Y5313332D01*
D02*
G37*
G36*
X2265298D02*
X2237250D01*
X2230637Y5312016D01*
X2225030Y5308270D01*
X2221284Y5302663D01*
X2219968Y5296050D01*
Y5270494D01*
X2265298D01*
Y5313332D01*
D02*
G37*
G36*
X4438800Y6203196D02*
X4418667Y6201213D01*
X4399308Y6195341D01*
X4381467Y6185804D01*
X4365829Y6172971D01*
X4352995Y6157333D01*
X4343459Y6139491D01*
X4337586Y6120132D01*
X4335603Y6100000D01*
X4337586Y6079867D01*
X4343459Y6060508D01*
X4352995Y6042667D01*
X4365829Y6027029D01*
X4381467Y6014195D01*
X4399308Y6004659D01*
X4418082Y5998964D01*
Y5756404D01*
X4145870Y5484192D01*
X4141379Y5477471D01*
X4139802Y5469543D01*
X4139802Y5469541D01*
Y5297809D01*
X4082411Y5240418D01*
X4033172D01*
Y5257950D01*
X4031857Y5264564D01*
X4028110Y5270170D01*
X4022504Y5273917D01*
X4015890Y5275232D01*
X3939390D01*
X3932776Y5273917D01*
X3927170Y5270170D01*
X3923423Y5264564D01*
X3922108Y5257950D01*
Y5181450D01*
X3923423Y5174836D01*
X3927170Y5169230D01*
X3932776Y5165483D01*
X3939390Y5164168D01*
X3956922D01*
Y5065722D01*
X3902598Y5011398D01*
X3845774D01*
Y5040681D01*
X3844595Y5046611D01*
X3841235Y5051639D01*
X3836207Y5054999D01*
X3830277Y5056178D01*
X3785277D01*
X3779346Y5054999D01*
X3774318Y5051639D01*
X3770959Y5046611D01*
X3769779Y5040681D01*
Y4940680D01*
X3770959Y4934750D01*
X3774318Y4929722D01*
X3779346Y4926362D01*
X3785277Y4925183D01*
X3830277D01*
X3836207Y4926362D01*
X3841235Y4929722D01*
X3844595Y4934750D01*
X3845774Y4940680D01*
Y4969962D01*
X3911179D01*
X3911180Y4969962D01*
X3919109Y4971539D01*
X3925830Y4976030D01*
X3992289Y5042490D01*
X3992290Y5042490D01*
X3996781Y5049212D01*
X3998358Y5057140D01*
X3998358Y5057141D01*
Y5164168D01*
X4015890D01*
X4022504Y5165483D01*
X4028110Y5169230D01*
X4031857Y5174836D01*
X4033172Y5181450D01*
Y5198982D01*
X4090992D01*
X4090993Y5198982D01*
X4098922Y5200559D01*
X4105643Y5205050D01*
X4175169Y5274576D01*
X4175170Y5274577D01*
X4179661Y5281299D01*
X4181238Y5289227D01*
X4181238Y5289228D01*
Y5460961D01*
X4453449Y5733172D01*
X4453450Y5733172D01*
X4457941Y5739894D01*
X4459518Y5747822D01*
Y5998964D01*
X4478292Y6004659D01*
X4496133Y6014195D01*
X4511771Y6027029D01*
X4524605Y6042667D01*
X4534141Y6060508D01*
X4540014Y6079867D01*
X4541997Y6100000D01*
X4540014Y6120132D01*
X4534141Y6139491D01*
X4524605Y6157333D01*
X4511771Y6172971D01*
X4496133Y6185804D01*
X4478292Y6195341D01*
X4458932Y6201213D01*
X4438800Y6203196D01*
D02*
G37*
G36*
X1916706Y5254532D02*
X1888657D01*
Y5211697D01*
X1933987D01*
Y5237250D01*
X1932672Y5243864D01*
X1928926Y5249470D01*
X1923319Y5253217D01*
X1916706Y5254532D01*
D02*
G37*
G36*
X1863257D02*
X1835206D01*
X1828592Y5253217D01*
X1822985Y5249470D01*
X1819239Y5243864D01*
X1817924Y5237250D01*
Y5211697D01*
X1863257D01*
Y5254532D01*
D02*
G37*
G36*
X2336032Y5245094D02*
X2290698D01*
Y5202268D01*
X2318750D01*
X2325364Y5203583D01*
X2330970Y5207329D01*
X2334717Y5212936D01*
X2336032Y5219550D01*
Y5245094D01*
D02*
G37*
G36*
X2265298D02*
X2219968D01*
Y5219550D01*
X2221284Y5212936D01*
X2225030Y5207329D01*
X2230637Y5203583D01*
X2237250Y5202268D01*
X2265298D01*
Y5245094D01*
D02*
G37*
G36*
X3222800Y5264929D02*
X3132800D01*
X3121653Y5263461D01*
X3111266Y5259158D01*
X3102346Y5252314D01*
X3095502Y5243394D01*
X3091199Y5233007D01*
X3089731Y5221860D01*
X3091199Y5210713D01*
X3095502Y5200326D01*
X3102346Y5191406D01*
X3111266Y5184562D01*
X3121653Y5180259D01*
X3132800Y5178792D01*
X3222800D01*
X3233947Y5180259D01*
X3244334Y5184562D01*
X3253254Y5191406D01*
X3260098Y5200326D01*
X3264401Y5210713D01*
X3265868Y5221860D01*
X3264401Y5233007D01*
X3260098Y5243394D01*
X3253254Y5252314D01*
X3244334Y5259158D01*
X3233947Y5263461D01*
X3222800Y5264929D01*
D02*
G37*
G36*
X1933987Y5186297D02*
X1888657D01*
Y5143468D01*
X1916706D01*
X1923319Y5144783D01*
X1928926Y5148530D01*
X1932672Y5154137D01*
X1933987Y5160750D01*
Y5186297D01*
D02*
G37*
G36*
X1863257D02*
X1817924D01*
Y5160750D01*
X1819239Y5154137D01*
X1822985Y5148530D01*
X1828592Y5144783D01*
X1835206Y5143468D01*
X1863257D01*
Y5186297D01*
D02*
G37*
G36*
X1513200Y5288330D02*
X1495773Y5286614D01*
X1479015Y5281530D01*
X1463571Y5273275D01*
X1450034Y5262166D01*
X1438925Y5248629D01*
X1430670Y5233185D01*
X1425586Y5216427D01*
X1423870Y5199000D01*
X1425586Y5181573D01*
X1430670Y5164815D01*
X1438925Y5149371D01*
X1450034Y5135834D01*
X1463571Y5124725D01*
X1479015Y5116470D01*
X1495773Y5111386D01*
X1513200Y5109670D01*
X1530628Y5111386D01*
X1547385Y5116470D01*
X1562829Y5124725D01*
X1576366Y5135834D01*
X1587476Y5149371D01*
X1595731Y5164815D01*
X1600209Y5179577D01*
X1682924D01*
Y5160750D01*
X1684239Y5154137D01*
X1687986Y5148530D01*
X1693592Y5144783D01*
X1700206Y5143468D01*
X1781706D01*
X1788319Y5144783D01*
X1793926Y5148530D01*
X1797672Y5154137D01*
X1798988Y5160750D01*
Y5237250D01*
X1797672Y5243864D01*
X1793926Y5249470D01*
X1788319Y5253217D01*
X1781706Y5254532D01*
X1700206D01*
X1693592Y5253217D01*
X1687986Y5249470D01*
X1684239Y5243864D01*
X1682924Y5237250D01*
Y5218423D01*
X1600209D01*
X1595731Y5233185D01*
X1587476Y5248629D01*
X1576366Y5262166D01*
X1562829Y5273275D01*
X1547385Y5281530D01*
X1530628Y5286614D01*
X1513200Y5288330D01*
D02*
G37*
G36*
X2682800Y5137929D02*
X2592800D01*
X2581653Y5136461D01*
X2571266Y5132158D01*
X2562346Y5125314D01*
X2555502Y5116394D01*
X2554627Y5114283D01*
X2471032D01*
Y5118250D01*
X2469716Y5124864D01*
X2465970Y5130470D01*
X2460363Y5134217D01*
X2453750Y5135532D01*
X2372250D01*
X2365637Y5134217D01*
X2360030Y5130470D01*
X2356284Y5124864D01*
X2354968Y5118250D01*
Y5041750D01*
X2356284Y5035136D01*
X2360030Y5029530D01*
X2365637Y5025783D01*
X2372250Y5024468D01*
X2453750D01*
X2460363Y5025783D01*
X2465970Y5029530D01*
X2469716Y5035136D01*
X2471032Y5041750D01*
Y5075437D01*
X2554627D01*
X2555502Y5073326D01*
X2562346Y5064406D01*
X2571266Y5057562D01*
X2581653Y5053259D01*
X2592800Y5051792D01*
X2618377D01*
Y4932332D01*
X2599550D01*
X2592936Y4931017D01*
X2587330Y4927270D01*
X2583583Y4921664D01*
X2582268Y4915050D01*
Y4838550D01*
X2583583Y4831936D01*
X2587330Y4826330D01*
X2592936Y4822583D01*
X2599550Y4821268D01*
X2676050D01*
X2682663Y4822583D01*
X2688270Y4826330D01*
X2692016Y4831936D01*
X2693332Y4838550D01*
Y4857377D01*
X3003668D01*
Y4838551D01*
X3004984Y4831938D01*
X3008730Y4826331D01*
X3014337Y4822584D01*
X3020950Y4821269D01*
X3097450D01*
X3104064Y4822584D01*
X3109671Y4826331D01*
X3113417Y4831938D01*
X3114732Y4838551D01*
Y4915051D01*
X3113417Y4921665D01*
X3109671Y4927271D01*
X3104064Y4931018D01*
X3097450Y4932333D01*
X3020950D01*
X3014337Y4931018D01*
X3008730Y4927271D01*
X3004984Y4921665D01*
X3003668Y4915051D01*
Y4896223D01*
X2693332D01*
Y4915050D01*
X2692016Y4921664D01*
X2688270Y4927270D01*
X2682663Y4931017D01*
X2676050Y4932332D01*
X2657223D01*
Y5051792D01*
X2682800D01*
X2693947Y5053259D01*
X2704334Y5057562D01*
X2713254Y5064406D01*
X2720098Y5073326D01*
X2724401Y5083713D01*
X2725868Y5094860D01*
X2724401Y5106007D01*
X2720098Y5116394D01*
X2713254Y5125314D01*
X2704334Y5132158D01*
X2693947Y5136461D01*
X2682800Y5137929D01*
D02*
G37*
G36*
X2318750Y5135532D02*
X2290706D01*
Y5092702D01*
X2336032D01*
Y5118250D01*
X2334717Y5124864D01*
X2330970Y5130470D01*
X2325364Y5134217D01*
X2318750Y5135532D01*
D02*
G37*
G36*
X2265306D02*
X2237250D01*
X2230637Y5134217D01*
X2225030Y5130470D01*
X2221284Y5124864D01*
X2219968Y5118250D01*
Y5092702D01*
X2265306D01*
Y5135532D01*
D02*
G37*
G36*
X2336032Y5067302D02*
X2290706D01*
Y5024468D01*
X2318750D01*
X2325364Y5025783D01*
X2330970Y5029530D01*
X2334717Y5035136D01*
X2336032Y5041750D01*
Y5067302D01*
D02*
G37*
G36*
X2265306D02*
X2219968D01*
Y5041750D01*
X2221284Y5035136D01*
X2225030Y5029530D01*
X2230637Y5025783D01*
X2237250Y5024468D01*
X2265306D01*
Y5067302D01*
D02*
G37*
G36*
X3830277Y5321178D02*
X3785277D01*
X3779346Y5319999D01*
X3774318Y5316639D01*
X3770959Y5311611D01*
X3769779Y5305681D01*
Y5237410D01*
X3769704Y5237030D01*
Y5175929D01*
X3708559Y5114784D01*
X3667572D01*
X3660139Y5113305D01*
X3653838Y5109095D01*
X3653837Y5109094D01*
X3622693Y5077950D01*
X3618482Y5071649D01*
X3617004Y5064216D01*
Y5056178D01*
X3595277D01*
X3589346Y5054999D01*
X3584318Y5051639D01*
X3580959Y5046611D01*
X3579779Y5040681D01*
Y5010104D01*
X3487072D01*
Y5028931D01*
X3485757Y5035544D01*
X3482010Y5041151D01*
X3476404Y5044897D01*
X3469790Y5046212D01*
X3393290D01*
X3386676Y5044897D01*
X3381070Y5041151D01*
X3377323Y5035544D01*
X3376008Y5028931D01*
Y4952430D01*
X3377323Y4945817D01*
X3381070Y4940210D01*
X3386676Y4936464D01*
X3393290Y4935148D01*
X3469790D01*
X3476404Y4936464D01*
X3482010Y4940210D01*
X3485757Y4945817D01*
X3487072Y4952430D01*
Y4971258D01*
X3579779D01*
Y4940680D01*
X3580959Y4934750D01*
X3584318Y4929722D01*
X3589346Y4926362D01*
X3595277Y4925183D01*
X3640277D01*
X3646208Y4926362D01*
X3651235Y4929722D01*
X3654595Y4934750D01*
X3655775Y4940680D01*
Y5008950D01*
X3655850Y5009330D01*
X3655850Y5009332D01*
Y5056170D01*
X3675617Y5075938D01*
X3716604D01*
X3724037Y5077416D01*
X3730338Y5081627D01*
X3802861Y5154149D01*
X3807071Y5160450D01*
X3808550Y5167883D01*
Y5190183D01*
X3830277D01*
X3836207Y5191362D01*
X3841235Y5194722D01*
X3844595Y5199750D01*
X3845774Y5205680D01*
Y5305681D01*
X3844595Y5311611D01*
X3841235Y5316639D01*
X3836207Y5319999D01*
X3830277Y5321178D01*
D02*
G37*
G36*
X3735277Y5056178D02*
X3725477D01*
Y5003374D01*
X3750775D01*
Y5040681D01*
X3749595Y5046611D01*
X3746235Y5051639D01*
X3741208Y5054999D01*
X3735277Y5056178D01*
D02*
G37*
G36*
X3700077D02*
X3690277D01*
X3684346Y5054999D01*
X3679319Y5051639D01*
X3675959Y5046611D01*
X3674779Y5040681D01*
Y5003374D01*
X3700077D01*
Y5056178D01*
D02*
G37*
G36*
X2453750Y5491132D02*
X2372250D01*
X2365637Y5489817D01*
X2360030Y5486070D01*
X2356284Y5480464D01*
X2354968Y5473850D01*
Y5397350D01*
X2356284Y5390736D01*
X2360030Y5385130D01*
X2365637Y5381383D01*
X2372250Y5380068D01*
X2448943D01*
X2449150Y5380027D01*
X2534164D01*
X2552073Y5362118D01*
X2551199Y5360007D01*
X2549732Y5348860D01*
X2551199Y5337713D01*
X2555502Y5327326D01*
X2562346Y5318406D01*
X2571266Y5311562D01*
X2581653Y5307259D01*
X2592800Y5305792D01*
X2682800D01*
X2693947Y5307259D01*
X2704334Y5311562D01*
X2713254Y5318406D01*
X2720098Y5327326D01*
X2720973Y5329437D01*
X2771095D01*
X2876177Y5224355D01*
Y5021845D01*
X2871544Y5019926D01*
X2861580Y5012280D01*
X2853934Y5002316D01*
X2849128Y4990712D01*
X2847489Y4978260D01*
X2849128Y4965808D01*
X2853934Y4954204D01*
X2861580Y4944240D01*
X2871544Y4936594D01*
X2883148Y4931788D01*
X2895600Y4930149D01*
X2908052Y4931788D01*
X2919656Y4936594D01*
X2929620Y4944240D01*
X2937266Y4954204D01*
X2942072Y4965808D01*
X2943711Y4978260D01*
X2942072Y4990712D01*
X2937266Y5002316D01*
X2929620Y5012280D01*
X2919656Y5019926D01*
X2915023Y5021845D01*
Y5232399D01*
X2915023Y5232400D01*
X2913545Y5239833D01*
X2909334Y5246134D01*
X2909334Y5246135D01*
X2792874Y5362594D01*
X2786573Y5366805D01*
X2779140Y5368283D01*
X2720973D01*
X2720098Y5370394D01*
X2713254Y5379314D01*
X2704334Y5386158D01*
X2693947Y5390461D01*
X2682800Y5391929D01*
X2592800D01*
X2581653Y5390461D01*
X2579542Y5389586D01*
X2555944Y5413184D01*
X2549643Y5417395D01*
X2542210Y5418873D01*
X2471032D01*
Y5473850D01*
X2469716Y5480464D01*
X2465970Y5486070D01*
X2460363Y5489817D01*
X2453750Y5491132D01*
D02*
G37*
G36*
Y5313332D02*
X2372250D01*
X2365637Y5312017D01*
X2360030Y5308270D01*
X2356284Y5302664D01*
X2354968Y5296050D01*
Y5219550D01*
X2356284Y5212936D01*
X2360030Y5207330D01*
X2365637Y5203583D01*
X2372250Y5202268D01*
X2453750D01*
X2454599Y5202437D01*
X2554627D01*
X2555502Y5200326D01*
X2562346Y5191406D01*
X2571266Y5184562D01*
X2581653Y5180259D01*
X2592800Y5178792D01*
X2682800D01*
X2693947Y5180259D01*
X2704334Y5184562D01*
X2713254Y5191406D01*
X2720098Y5200326D01*
X2720973Y5202437D01*
X2738863D01*
X2752177Y5189123D01*
Y5021845D01*
X2747544Y5019926D01*
X2737580Y5012280D01*
X2729934Y5002316D01*
X2725128Y4990712D01*
X2723488Y4978260D01*
X2725128Y4965808D01*
X2729934Y4954204D01*
X2737580Y4944240D01*
X2747544Y4936594D01*
X2759148Y4931788D01*
X2771600Y4930149D01*
X2784052Y4931788D01*
X2795656Y4936594D01*
X2805620Y4944240D01*
X2813265Y4954204D01*
X2818072Y4965808D01*
X2819711Y4978260D01*
X2818072Y4990712D01*
X2813265Y5002316D01*
X2805620Y5012280D01*
X2795656Y5019926D01*
X2791023Y5021845D01*
Y5197169D01*
X2789544Y5204602D01*
X2785334Y5210903D01*
X2760643Y5235594D01*
X2754342Y5239805D01*
X2746909Y5241283D01*
X2720973D01*
X2720098Y5243394D01*
X2713254Y5252314D01*
X2704334Y5259158D01*
X2693947Y5263461D01*
X2682800Y5264929D01*
X2592800D01*
X2581653Y5263461D01*
X2571266Y5259158D01*
X2562346Y5252314D01*
X2555502Y5243394D01*
X2554627Y5241283D01*
X2471032D01*
Y5296050D01*
X2469716Y5302664D01*
X2465970Y5308270D01*
X2460363Y5312017D01*
X2453750Y5313332D01*
D02*
G37*
G36*
X3750775Y4977974D02*
X3725477D01*
Y4925183D01*
X3735277D01*
X3741208Y4926362D01*
X3746235Y4929722D01*
X3749595Y4934750D01*
X3750775Y4940680D01*
Y4977974D01*
D02*
G37*
G36*
X3700077D02*
X3674779D01*
Y4940680D01*
X3675959Y4934750D01*
X3679319Y4929722D01*
X3684346Y4926362D01*
X3690277Y4925183D01*
X3700077D01*
Y4977974D01*
D02*
G37*
G36*
X4375610Y4941332D02*
X4299110D01*
X4292497Y4940017D01*
X4286890Y4936271D01*
X4283144Y4930664D01*
X4281828Y4924050D01*
Y4911698D01*
X4178214D01*
Y4923050D01*
X4177209Y4928103D01*
X4174347Y4932387D01*
X4170063Y4935249D01*
X4165010Y4936254D01*
X4115510D01*
X4110457Y4935249D01*
X4106174Y4932387D01*
X4103312Y4928103D01*
X4102307Y4923050D01*
Y4843550D01*
X4103312Y4838497D01*
X4106174Y4834214D01*
X4110457Y4831352D01*
X4115510Y4830346D01*
X4165010D01*
X4170063Y4831352D01*
X4174347Y4834214D01*
X4177209Y4838497D01*
X4178214Y4843550D01*
Y4859903D01*
X4281828D01*
Y4847550D01*
X4283144Y4840937D01*
X4286890Y4835330D01*
X4292497Y4831584D01*
X4299110Y4830268D01*
X4311463D01*
Y4727440D01*
X4313434Y4717529D01*
X4319048Y4709127D01*
X4342766Y4685409D01*
X4334175Y4669337D01*
X4328884Y4651897D01*
X4127468D01*
Y4653000D01*
X4126249Y4659126D01*
X4122779Y4664319D01*
X4117586Y4667789D01*
X4111460Y4669007D01*
X4007460D01*
X4001335Y4667789D01*
X3996141Y4664319D01*
X3992671Y4659126D01*
X3991453Y4653000D01*
Y4599000D01*
X3992671Y4592874D01*
X3996141Y4587681D01*
X4001335Y4584211D01*
X4007460Y4582992D01*
X4111460D01*
X4117586Y4584211D01*
X4122779Y4587681D01*
X4126249Y4592874D01*
X4127468Y4599000D01*
Y4600102D01*
X4328884D01*
X4334175Y4582663D01*
X4344640Y4563084D01*
X4358723Y4545923D01*
X4375884Y4531840D01*
X4395463Y4521375D01*
X4416707Y4514931D01*
X4438800Y4512754D01*
X4460893Y4514931D01*
X4482137Y4521375D01*
X4501716Y4531840D01*
X4518876Y4545923D01*
X4532960Y4563084D01*
X4543425Y4582663D01*
X4549869Y4603907D01*
X4552045Y4626000D01*
X4549869Y4648093D01*
X4543425Y4669337D01*
X4532960Y4688916D01*
X4518876Y4706076D01*
X4501716Y4720160D01*
X4482137Y4730625D01*
X4460893Y4737069D01*
X4438800Y4739245D01*
X4416707Y4737069D01*
X4395463Y4730625D01*
X4379391Y4722034D01*
X4363258Y4738167D01*
Y4830268D01*
X4375610D01*
X4382224Y4831584D01*
X4387830Y4835330D01*
X4391577Y4840937D01*
X4392892Y4847550D01*
Y4924050D01*
X4391577Y4930664D01*
X4387830Y4936271D01*
X4382224Y4940017D01*
X4375610Y4941332D01*
D02*
G37*
G36*
X2546050Y4932332D02*
X2469550D01*
X2462936Y4931017D01*
X2457330Y4927270D01*
X2453583Y4921664D01*
X2452268Y4915050D01*
Y4896224D01*
X2308708D01*
X2308707Y4896225D01*
X2301274Y4894746D01*
X2294973Y4890536D01*
X2294972Y4890535D01*
X1764266Y4359829D01*
X1760055Y4353527D01*
X1758577Y4346094D01*
Y1601400D01*
X1760055Y1593967D01*
X1764266Y1587666D01*
X2101341Y1250590D01*
X2094069Y1236985D01*
X2088986Y1220227D01*
X2087270Y1202800D01*
X2088986Y1185373D01*
X2094069Y1168615D01*
X2102324Y1153171D01*
X2113434Y1139634D01*
X2126971Y1128525D01*
X2142415Y1120270D01*
X2159172Y1115186D01*
X2176600Y1113470D01*
X2194027Y1115186D01*
X2210785Y1120270D01*
X2226229Y1128525D01*
X2239766Y1139634D01*
X2250875Y1153171D01*
X2259130Y1168615D01*
X2264214Y1185373D01*
X2265930Y1202800D01*
X2264214Y1220227D01*
X2259130Y1236985D01*
X2250875Y1252429D01*
X2239766Y1265966D01*
X2226229Y1277075D01*
X2210785Y1285330D01*
X2194027Y1290414D01*
X2176600Y1292130D01*
X2159172Y1290414D01*
X2142415Y1285330D01*
X2128810Y1278058D01*
X1797423Y1609445D01*
Y4338049D01*
X2316752Y4857378D01*
X2452268D01*
Y4838550D01*
X2453583Y4831936D01*
X2457330Y4826330D01*
X2462936Y4822583D01*
X2469550Y4821268D01*
X2546050D01*
X2552663Y4822583D01*
X2558270Y4826330D01*
X2562016Y4831936D01*
X2563332Y4838550D01*
Y4915050D01*
X2562016Y4921664D01*
X2558270Y4927270D01*
X2552663Y4931017D01*
X2546050Y4932332D01*
D02*
G37*
G36*
X4505610Y5152932D02*
X4429110D01*
X4422496Y5151617D01*
X4416890Y5147870D01*
X4413143Y5142264D01*
X4411828Y5135650D01*
Y5059150D01*
X4413143Y5052537D01*
X4416890Y5046930D01*
X4422496Y5043183D01*
X4429110Y5041868D01*
X4447937D01*
Y4941332D01*
X4429110D01*
X4422496Y4940017D01*
X4416890Y4936271D01*
X4413143Y4930664D01*
X4411828Y4924050D01*
Y4847550D01*
X4413143Y4840937D01*
X4416890Y4835330D01*
X4422496Y4831584D01*
X4429110Y4830268D01*
X4505610D01*
X4512223Y4831584D01*
X4517830Y4835330D01*
X4521576Y4840937D01*
X4522892Y4847550D01*
Y4924050D01*
X4521576Y4930664D01*
X4517830Y4936271D01*
X4512223Y4940017D01*
X4505610Y4941332D01*
X4486783D01*
Y5041868D01*
X4505610D01*
X4512223Y5043183D01*
X4517830Y5046930D01*
X4521576Y5052537D01*
X4522892Y5059150D01*
Y5135650D01*
X4521576Y5142264D01*
X4517830Y5147870D01*
X4512223Y5151617D01*
X4505610Y5152932D01*
D02*
G37*
G36*
X3861460Y4764007D02*
X3822161D01*
Y4733698D01*
X3877467D01*
Y4748000D01*
X3876249Y4754125D01*
X3872779Y4759319D01*
X3867586Y4762789D01*
X3861460Y4764007D01*
D02*
G37*
G36*
X3796761D02*
X3757460D01*
X3751334Y4762789D01*
X3746141Y4759319D01*
X3742671Y4754125D01*
X3741453Y4748000D01*
Y4733698D01*
X3796761D01*
Y4764007D01*
D02*
G37*
G36*
X1909206Y5508532D02*
X1832706D01*
X1826092Y5507216D01*
X1820486Y5503470D01*
X1816739Y5497863D01*
X1815424Y5491250D01*
Y5414750D01*
X1816739Y5408136D01*
X1820486Y5402529D01*
X1826092Y5398783D01*
X1832706Y5397468D01*
X1909206D01*
X1915819Y5398783D01*
X1921426Y5402529D01*
X1925172Y5408136D01*
X1926488Y5414750D01*
Y5433577D01*
X1947188D01*
X1961777Y5418988D01*
Y5024545D01*
X1647655Y4710423D01*
X1599004D01*
Y4747875D01*
X1596612Y4759902D01*
X1589799Y4770099D01*
X1579603Y4776911D01*
X1567575Y4779304D01*
X1458825D01*
X1446798Y4776911D01*
X1436601Y4770099D01*
X1429789Y4759902D01*
X1427396Y4747875D01*
Y4634125D01*
X1429789Y4622098D01*
X1436601Y4611901D01*
X1446798Y4605089D01*
X1458825Y4602696D01*
X1567575D01*
X1579603Y4605089D01*
X1589799Y4611901D01*
X1596612Y4622098D01*
X1599004Y4634125D01*
Y4671577D01*
X1655700D01*
X1663133Y4673055D01*
X1669434Y4677266D01*
X1994934Y5002766D01*
X1999145Y5009067D01*
X2000623Y5016500D01*
Y5427033D01*
X1999145Y5434466D01*
X1994934Y5440768D01*
X1968968Y5466734D01*
X1962667Y5470944D01*
X1955234Y5472423D01*
X1926488D01*
Y5491250D01*
X1925172Y5497863D01*
X1921426Y5503470D01*
X1915819Y5507216D01*
X1909206Y5508532D01*
D02*
G37*
G36*
X2546050Y4729132D02*
X2469550D01*
X2462936Y4727817D01*
X2457330Y4724070D01*
X2453583Y4718464D01*
X2452268Y4711850D01*
Y4693023D01*
X2262337D01*
X2262335Y4693023D01*
X2254903Y4691545D01*
X2248601Y4687334D01*
X1840685Y4279418D01*
X1836475Y4273117D01*
X1834996Y4265684D01*
Y1730160D01*
X1836475Y1722727D01*
X1840685Y1716426D01*
X2342646Y1214465D01*
Y1116914D01*
X2325990Y1100259D01*
X2312385Y1107530D01*
X2295627Y1112614D01*
X2278200Y1114330D01*
X2260772Y1112614D01*
X2244015Y1107530D01*
X2228571Y1099275D01*
X2215034Y1088166D01*
X2203924Y1074629D01*
X2195669Y1059185D01*
X2190586Y1042427D01*
X2188870Y1025000D01*
X2190586Y1007573D01*
X2195669Y990815D01*
X2203924Y975371D01*
X2215034Y961834D01*
X2228571Y950725D01*
X2244015Y942470D01*
X2260772Y937386D01*
X2278200Y935670D01*
X2295627Y937386D01*
X2312385Y942470D01*
X2327829Y950725D01*
X2341366Y961834D01*
X2352475Y975371D01*
X2360730Y990815D01*
X2365814Y1007573D01*
X2367530Y1025000D01*
X2365814Y1042427D01*
X2360730Y1059185D01*
X2353459Y1072790D01*
X2375803Y1095134D01*
X2380013Y1101436D01*
X2381492Y1108869D01*
Y1222511D01*
X2380013Y1229944D01*
X2375803Y1236245D01*
X1873843Y1738205D01*
Y4257639D01*
X2270381Y4654177D01*
X2452268D01*
Y4635350D01*
X2453583Y4628736D01*
X2457330Y4623130D01*
X2462936Y4619383D01*
X2469550Y4618068D01*
X2546050D01*
X2552663Y4619383D01*
X2558270Y4623130D01*
X2562016Y4628736D01*
X2563332Y4635350D01*
Y4711850D01*
X2562016Y4718464D01*
X2558270Y4724070D01*
X2552663Y4727817D01*
X2546050Y4729132D01*
D02*
G37*
G36*
X2771600Y4820312D02*
X2759148Y4818672D01*
X2747544Y4813866D01*
X2737580Y4806220D01*
X2729934Y4796256D01*
X2725128Y4784652D01*
X2723488Y4772200D01*
X2725128Y4759748D01*
X2729934Y4748144D01*
X2737580Y4738180D01*
X2747544Y4730535D01*
X2752177Y4728616D01*
Y4693023D01*
X2693332D01*
Y4711850D01*
X2692016Y4718464D01*
X2688270Y4724070D01*
X2682663Y4727817D01*
X2676050Y4729132D01*
X2599550D01*
X2592936Y4727817D01*
X2587330Y4724070D01*
X2583583Y4718464D01*
X2582268Y4711850D01*
Y4635350D01*
X2583583Y4628736D01*
X2587330Y4623130D01*
X2592936Y4619383D01*
X2599550Y4618068D01*
X2676050D01*
X2682663Y4619383D01*
X2688270Y4623130D01*
X2692016Y4628736D01*
X2693332Y4635350D01*
Y4654176D01*
X3003668D01*
Y4635350D01*
X3004983Y4628736D01*
X3008730Y4623130D01*
X3014336Y4619383D01*
X3020950Y4618068D01*
X3097450D01*
X3104063Y4619383D01*
X3109670Y4623130D01*
X3113416Y4628736D01*
X3114732Y4635350D01*
Y4711850D01*
X3113416Y4718464D01*
X3109670Y4724070D01*
X3104063Y4727817D01*
X3097450Y4729132D01*
X3020950D01*
X3014336Y4727817D01*
X3008730Y4724070D01*
X3004983Y4718464D01*
X3003668Y4711850D01*
Y4693023D01*
X2791023D01*
Y4728616D01*
X2795656Y4730535D01*
X2805620Y4738180D01*
X2813265Y4748144D01*
X2818072Y4759748D01*
X2819711Y4772200D01*
X2818072Y4784652D01*
X2813265Y4796256D01*
X2805620Y4806220D01*
X2795656Y4813866D01*
X2784052Y4818672D01*
X2771600Y4820312D01*
D02*
G37*
G36*
X3877467Y4708298D02*
X3822161D01*
Y4677992D01*
X3861460D01*
X3867586Y4679211D01*
X3872779Y4682681D01*
X3876249Y4687874D01*
X3877467Y4694000D01*
Y4708298D01*
D02*
G37*
G36*
X3796761D02*
X3741453D01*
Y4694000D01*
X3742671Y4687874D01*
X3746141Y4682681D01*
X3751334Y4679211D01*
X3757460Y4677992D01*
X3796761D01*
Y4708298D01*
D02*
G37*
G36*
X3510150Y4611932D02*
X3484601D01*
Y4569098D01*
X3527432D01*
Y4594650D01*
X3526116Y4601263D01*
X3522370Y4606870D01*
X3516763Y4610616D01*
X3510150Y4611932D01*
D02*
G37*
G36*
X3459201D02*
X3433650D01*
X3427036Y4610616D01*
X3421430Y4606870D01*
X3417683Y4601263D01*
X3416368Y4594650D01*
Y4569098D01*
X3459201D01*
Y4611932D01*
D02*
G37*
G36*
X3527432Y4543698D02*
X3484601D01*
Y4500868D01*
X3510150D01*
X3516763Y4502183D01*
X3522370Y4505930D01*
X3526116Y4511536D01*
X3527432Y4518150D01*
Y4543698D01*
D02*
G37*
G36*
X3459201D02*
X3416368D01*
Y4518150D01*
X3417683Y4511536D01*
X3421430Y4505930D01*
X3427036Y4502183D01*
X3433650Y4500868D01*
X3459201D01*
Y4543698D01*
D02*
G37*
G36*
X2895600Y4620111D02*
X2883148Y4618472D01*
X2871544Y4613666D01*
X2861580Y4606020D01*
X2853934Y4596056D01*
X2849128Y4584452D01*
X2847489Y4572000D01*
X2849128Y4559548D01*
X2853934Y4547944D01*
X2861580Y4537980D01*
X2871544Y4530334D01*
X2876177Y4528415D01*
Y4489823D01*
X2693332D01*
Y4508650D01*
X2692016Y4515264D01*
X2688270Y4520870D01*
X2682663Y4524617D01*
X2676050Y4525932D01*
X2599550D01*
X2592936Y4524617D01*
X2587330Y4520870D01*
X2583583Y4515264D01*
X2582268Y4508650D01*
Y4432150D01*
X2583583Y4425536D01*
X2587330Y4419930D01*
X2592936Y4416183D01*
X2599550Y4414868D01*
X2676050D01*
X2682663Y4416183D01*
X2688270Y4419930D01*
X2692016Y4425536D01*
X2693332Y4432150D01*
Y4450977D01*
X3000668D01*
Y4432151D01*
X3001984Y4425538D01*
X3005730Y4419931D01*
X3011337Y4416184D01*
X3017950Y4414869D01*
X3094451D01*
X3101064Y4416184D01*
X3106671Y4419931D01*
X3110417Y4425538D01*
X3111732Y4432151D01*
Y4508651D01*
X3110417Y4515265D01*
X3106671Y4520871D01*
X3101064Y4524618D01*
X3094451Y4525933D01*
X3017950D01*
X3011337Y4524618D01*
X3005730Y4520871D01*
X3001984Y4515265D01*
X3000668Y4508651D01*
Y4489823D01*
X2915023D01*
Y4528415D01*
X2919656Y4530334D01*
X2929620Y4537980D01*
X2937266Y4547944D01*
X2942072Y4559548D01*
X2943711Y4572000D01*
X2942072Y4584452D01*
X2937266Y4596056D01*
X2929620Y4606020D01*
X2919656Y4613666D01*
X2908052Y4618472D01*
X2895600Y4620111D01*
D02*
G37*
G36*
X3222800Y5137929D02*
X3132800D01*
X3121653Y5136461D01*
X3111266Y5132158D01*
X3102346Y5125314D01*
X3095502Y5116394D01*
X3091199Y5106007D01*
X3089731Y5094860D01*
X3091199Y5083713D01*
X3095502Y5073326D01*
X3102346Y5064406D01*
X3111266Y5057562D01*
X3121653Y5053259D01*
X3132800Y5051792D01*
X3222800D01*
X3233947Y5053259D01*
X3244334Y5057562D01*
X3253254Y5064406D01*
X3260098Y5073326D01*
X3260973Y5075437D01*
X3287353D01*
X3294976Y5067814D01*
Y4760261D01*
X3296455Y4752828D01*
X3300665Y4746526D01*
X3356845Y4690346D01*
X3356846Y4690346D01*
X3363147Y4686135D01*
X3370580Y4684657D01*
X3558485D01*
X3582484Y4660657D01*
Y4611932D01*
X3563650D01*
X3557036Y4610616D01*
X3551430Y4606870D01*
X3547683Y4601263D01*
X3546368Y4594650D01*
Y4518150D01*
X3547683Y4511536D01*
X3551430Y4505930D01*
X3557036Y4502183D01*
X3563650Y4500868D01*
X3640150D01*
X3646763Y4502183D01*
X3652370Y4505930D01*
X3656116Y4511536D01*
X3657432Y4518150D01*
Y4521971D01*
X3741453D01*
Y4504000D01*
X3742671Y4497874D01*
X3746141Y4492681D01*
X3751334Y4489211D01*
X3757460Y4487992D01*
X3861460D01*
X3867586Y4489211D01*
X3872779Y4492681D01*
X3876249Y4497874D01*
X3877467Y4504000D01*
Y4558000D01*
X3876249Y4564125D01*
X3872779Y4569319D01*
X3867586Y4572789D01*
X3861460Y4574007D01*
X3757460D01*
X3751334Y4572789D01*
X3746141Y4569319D01*
X3742671Y4564125D01*
X3742013Y4560817D01*
X3657432D01*
Y4594650D01*
X3656116Y4601263D01*
X3652370Y4606870D01*
X3646763Y4610616D01*
X3640150Y4611932D01*
X3621330D01*
Y4668702D01*
X3621331Y4668703D01*
X3619852Y4676136D01*
X3615641Y4682437D01*
X3580264Y4717814D01*
X3573963Y4722025D01*
X3566530Y4723503D01*
X3378625D01*
X3333822Y4768306D01*
Y5075859D01*
X3332344Y5083292D01*
X3328134Y5089593D01*
X3309133Y5108594D01*
X3302831Y5112805D01*
X3295398Y5114283D01*
X3260973D01*
X3260098Y5116394D01*
X3253254Y5125314D01*
X3244334Y5132158D01*
X3233947Y5136461D01*
X3222800Y5137929D01*
D02*
G37*
G36*
X2546050Y4525932D02*
X2469550D01*
X2462936Y4524617D01*
X2457330Y4520870D01*
X2453583Y4515264D01*
X2452268Y4508650D01*
Y4489823D01*
X2220244D01*
X2212811Y4488345D01*
X2206510Y4484134D01*
X1920969Y4198594D01*
X1916759Y4192292D01*
X1915281Y4184859D01*
Y1775819D01*
X1916759Y1768386D01*
X1920969Y1762084D01*
X2458209Y1224844D01*
Y1027132D01*
X2332029Y900952D01*
X2226517D01*
X2150259Y977210D01*
X2157530Y990815D01*
X2162614Y1007573D01*
X2164330Y1025000D01*
X2162614Y1042427D01*
X2157530Y1059185D01*
X2149275Y1074629D01*
X2138166Y1088166D01*
X2124629Y1099275D01*
X2109185Y1107530D01*
X2092427Y1112614D01*
X2075000Y1114330D01*
X2057572Y1112614D01*
X2040815Y1107530D01*
X2025371Y1099275D01*
X2011834Y1088166D01*
X2000724Y1074629D01*
X1992469Y1059185D01*
X1987386Y1042427D01*
X1985670Y1025000D01*
X1987386Y1007573D01*
X1992469Y990815D01*
X2000724Y975371D01*
X2011834Y961834D01*
X2025371Y950725D01*
X2040815Y942470D01*
X2057572Y937386D01*
X2075000Y935670D01*
X2092427Y937386D01*
X2109185Y942470D01*
X2122790Y949741D01*
X2204737Y867794D01*
X2211039Y863584D01*
X2218471Y862105D01*
X2218473Y862105D01*
X2340074D01*
X2347507Y863584D01*
X2353809Y867794D01*
X2491367Y1005353D01*
X2495577Y1011654D01*
X2497056Y1019087D01*
Y1232889D01*
X2497056Y1232890D01*
X2495577Y1240323D01*
X2491367Y1246624D01*
X1954127Y1783864D01*
Y4176814D01*
X2228290Y4450977D01*
X2452268D01*
Y4432150D01*
X2453583Y4425536D01*
X2457330Y4419930D01*
X2462936Y4416183D01*
X2469550Y4414868D01*
X2546050D01*
X2552663Y4416183D01*
X2558270Y4419930D01*
X2562016Y4425536D01*
X2563332Y4432150D01*
Y4508650D01*
X2562016Y4515264D01*
X2558270Y4520870D01*
X2552663Y4524617D01*
X2546050Y4525932D01*
D02*
G37*
G36*
X1525904Y4269861D02*
Y4195700D01*
X1597808D01*
X1597167Y4202202D01*
X1592296Y4218262D01*
X1584384Y4233063D01*
X1573737Y4246037D01*
X1560764Y4256684D01*
X1545963Y4264595D01*
X1529902Y4269467D01*
X1525904Y4269861D01*
D02*
G37*
G36*
X1500504Y4269862D02*
X1496498Y4269467D01*
X1480438Y4264595D01*
X1465637Y4256684D01*
X1452663Y4246037D01*
X1442016Y4233063D01*
X1434105Y4218262D01*
X1429233Y4202202D01*
X1428593Y4195700D01*
X1500504D01*
Y4269862D01*
D02*
G37*
G36*
X1597808Y4170300D02*
X1525904D01*
Y4096139D01*
X1529902Y4096533D01*
X1545963Y4101405D01*
X1560764Y4109316D01*
X1573737Y4119963D01*
X1584384Y4132937D01*
X1592296Y4147738D01*
X1597167Y4163798D01*
X1597808Y4170300D01*
D02*
G37*
G36*
X1500504D02*
X1428593D01*
X1429233Y4163798D01*
X1434105Y4147738D01*
X1442016Y4132937D01*
X1452663Y4119963D01*
X1465637Y4109316D01*
X1480438Y4101405D01*
X1496498Y4096533D01*
X1500504Y4096138D01*
Y4170300D01*
D02*
G37*
G36*
X1513200Y3509112D02*
X1496498Y3507467D01*
X1480438Y3502595D01*
X1465637Y3494684D01*
X1452663Y3484037D01*
X1442016Y3471063D01*
X1434105Y3456262D01*
X1429233Y3440202D01*
X1427588Y3423500D01*
Y3418500D01*
X1429233Y3401798D01*
X1434105Y3385738D01*
X1442016Y3370937D01*
X1452663Y3357963D01*
X1465637Y3347316D01*
X1480438Y3339405D01*
X1496498Y3334533D01*
X1513200Y3332888D01*
X1529902Y3334533D01*
X1545963Y3339405D01*
X1560764Y3347316D01*
X1573737Y3357963D01*
X1584384Y3370937D01*
X1592296Y3385738D01*
X1597167Y3401798D01*
X1598812Y3418500D01*
Y3423500D01*
X1597167Y3440202D01*
X1592296Y3456262D01*
X1584384Y3471063D01*
X1573737Y3484037D01*
X1560764Y3494684D01*
X1545963Y3502595D01*
X1529902Y3507467D01*
X1513200Y3509112D01*
D02*
G37*
G36*
X1986100Y1290879D02*
Y1215500D01*
X2061479D01*
X2061014Y1220227D01*
X2055930Y1236985D01*
X2047675Y1252429D01*
X2036566Y1265966D01*
X2023029Y1277075D01*
X2007585Y1285330D01*
X1990827Y1290414D01*
X1986100Y1290879D01*
D02*
G37*
G36*
X1960700D02*
X1955972Y1290414D01*
X1939215Y1285330D01*
X1923771Y1277075D01*
X1910234Y1265966D01*
X1899124Y1252429D01*
X1890869Y1236985D01*
X1885786Y1220227D01*
X1885321Y1215500D01*
X1960700D01*
Y1290879D01*
D02*
G37*
G36*
X1782900D02*
Y1215500D01*
X1858279D01*
X1857814Y1220227D01*
X1852730Y1236985D01*
X1844475Y1252429D01*
X1833366Y1265966D01*
X1819829Y1277075D01*
X1804385Y1285330D01*
X1787627Y1290414D01*
X1782900Y1290879D01*
D02*
G37*
G36*
X1757500D02*
X1752772Y1290414D01*
X1736015Y1285330D01*
X1720571Y1277075D01*
X1707034Y1265966D01*
X1695924Y1252429D01*
X1687669Y1236985D01*
X1682586Y1220227D01*
X1682121Y1215500D01*
X1757500D01*
Y1290879D01*
D02*
G37*
G36*
X1579700D02*
Y1215500D01*
X1655079D01*
X1654614Y1220227D01*
X1649530Y1236985D01*
X1641275Y1252429D01*
X1630166Y1265966D01*
X1616629Y1277075D01*
X1601185Y1285330D01*
X1584427Y1290414D01*
X1579700Y1290879D01*
D02*
G37*
G36*
X1554300D02*
X1549572Y1290414D01*
X1532815Y1285330D01*
X1517371Y1277075D01*
X1503834Y1265966D01*
X1492724Y1252429D01*
X1484469Y1236985D01*
X1479386Y1220227D01*
X1478921Y1215500D01*
X1554300D01*
Y1290879D01*
D02*
G37*
G36*
X2061479Y1190100D02*
X1986100D01*
Y1114721D01*
X1990827Y1115186D01*
X2007585Y1120270D01*
X2023029Y1128525D01*
X2036566Y1139634D01*
X2047675Y1153171D01*
X2055930Y1168615D01*
X2061014Y1185373D01*
X2061479Y1190100D01*
D02*
G37*
G36*
X1960700D02*
X1885321D01*
X1885786Y1185373D01*
X1890869Y1168615D01*
X1899124Y1153171D01*
X1910234Y1139634D01*
X1923771Y1128525D01*
X1939215Y1120270D01*
X1955972Y1115186D01*
X1960700Y1114721D01*
Y1190100D01*
D02*
G37*
G36*
X1858279D02*
X1782900D01*
Y1114721D01*
X1787627Y1115186D01*
X1804385Y1120270D01*
X1819829Y1128525D01*
X1833366Y1139634D01*
X1844475Y1153171D01*
X1852730Y1168615D01*
X1857814Y1185373D01*
X1858279Y1190100D01*
D02*
G37*
G36*
X1757500D02*
X1682121D01*
X1682586Y1185373D01*
X1687669Y1168615D01*
X1695924Y1153171D01*
X1707034Y1139634D01*
X1720571Y1128525D01*
X1736015Y1120270D01*
X1752772Y1115186D01*
X1757500Y1114721D01*
Y1190100D01*
D02*
G37*
G36*
X1655079D02*
X1579700D01*
Y1114721D01*
X1584427Y1115186D01*
X1601185Y1120270D01*
X1616629Y1128525D01*
X1630166Y1139634D01*
X1641275Y1153171D01*
X1649530Y1168615D01*
X1654614Y1185373D01*
X1655079Y1190100D01*
D02*
G37*
G36*
X1554300D02*
X1478921D01*
X1479386Y1185373D01*
X1484469Y1168615D01*
X1492724Y1153171D01*
X1503834Y1139634D01*
X1517371Y1128525D01*
X1532815Y1120270D01*
X1549572Y1115186D01*
X1554300Y1114721D01*
Y1190100D01*
D02*
G37*
G36*
X1884500Y1113079D02*
Y1037700D01*
X1959879D01*
X1959414Y1042427D01*
X1954330Y1059185D01*
X1946075Y1074629D01*
X1934966Y1088166D01*
X1921429Y1099275D01*
X1905985Y1107530D01*
X1889227Y1112614D01*
X1884500Y1113079D01*
D02*
G37*
G36*
X1859100D02*
X1854372Y1112614D01*
X1837615Y1107530D01*
X1822171Y1099275D01*
X1808634Y1088166D01*
X1797524Y1074629D01*
X1789269Y1059185D01*
X1784186Y1042427D01*
X1783721Y1037700D01*
X1859100D01*
Y1113079D01*
D02*
G37*
G36*
X1681300D02*
Y1037700D01*
X1756679D01*
X1756214Y1042427D01*
X1751130Y1059185D01*
X1742875Y1074629D01*
X1731766Y1088166D01*
X1718229Y1099275D01*
X1702785Y1107530D01*
X1686027Y1112614D01*
X1681300Y1113079D01*
D02*
G37*
G36*
X1655900D02*
X1651172Y1112614D01*
X1634415Y1107530D01*
X1618971Y1099275D01*
X1605434Y1088166D01*
X1594324Y1074629D01*
X1586069Y1059185D01*
X1580986Y1042427D01*
X1580521Y1037700D01*
X1655900D01*
Y1113079D01*
D02*
G37*
G36*
X1959879Y1012300D02*
X1884500D01*
Y936921D01*
X1889227Y937386D01*
X1905985Y942470D01*
X1921429Y950725D01*
X1934966Y961834D01*
X1946075Y975371D01*
X1954330Y990815D01*
X1959414Y1007573D01*
X1959879Y1012300D01*
D02*
G37*
G36*
X1859100D02*
X1783721D01*
X1784186Y1007573D01*
X1789269Y990815D01*
X1797524Y975371D01*
X1808634Y961834D01*
X1822171Y950725D01*
X1837615Y942470D01*
X1854372Y937386D01*
X1859100Y936921D01*
Y1012300D01*
D02*
G37*
G36*
X1756679D02*
X1681300D01*
Y936921D01*
X1686027Y937386D01*
X1702785Y942470D01*
X1718229Y950725D01*
X1731766Y961834D01*
X1742875Y975371D01*
X1751130Y990815D01*
X1756214Y1007573D01*
X1756679Y1012300D01*
D02*
G37*
G36*
X1655900D02*
X1580521D01*
X1580986Y1007573D01*
X1586069Y990815D01*
X1594324Y975371D01*
X1605434Y961834D01*
X1618971Y950725D01*
X1634415Y942470D01*
X1651172Y937386D01*
X1655900Y936921D01*
Y1012300D01*
D02*
G37*
%LPD*%
D10*
X3732280Y6040200D02*
Y6381281D01*
Y5831460D02*
Y6040200D01*
X3671844Y5152766D02*
X3694615Y5175537D01*
X3431540Y5120680D02*
X3463626Y5152766D01*
X3671844D01*
X3550410Y5255680D02*
X3617777D01*
X3457231Y5348860D02*
X3550410Y5255680D01*
X3667572Y5095361D02*
X3716604D01*
X3789127Y5167883D02*
Y5237030D01*
X3716604Y5095361D02*
X3789127Y5167883D01*
X3373120Y5348860D02*
X3457231D01*
X3431540Y4990680D02*
X3431540Y4990681D01*
X3617777D02*
X3617777Y4990680D01*
X3431540Y4990681D02*
X3617777D01*
X3617777Y4990680D02*
X3636427Y5009330D01*
Y5064216D01*
X3566530Y4704080D02*
X3601907Y4668703D01*
X3370580Y4704080D02*
X3566530D01*
X3314399Y4760261D02*
X3370580Y4704080D01*
X3314399Y4760261D02*
Y5075859D01*
X3601907Y4556407D02*
Y4668703D01*
X3601900Y4556400D02*
X3601907Y4556407D01*
X3601900Y4556400D02*
X3616906Y4541394D01*
X3799066D02*
X3809460Y4531000D01*
X3616906Y4541394D02*
X3799066D01*
X3795731Y5415280D02*
X3827280Y5446829D01*
X3712777Y5415280D02*
X3795731D01*
X3827280Y5446829D02*
Y5536460D01*
X3789127Y5237030D02*
X3807777Y5255680D01*
X3636427Y5064216D02*
X3667572Y5095361D01*
X3295398Y5094860D02*
X3314399Y5075859D01*
X3573483Y5415280D02*
X3712777D01*
X3548380Y5440383D02*
Y5529580D01*
Y5440383D02*
X3573483Y5415280D01*
X3694615Y5175537D02*
Y5237519D01*
X3712777Y5255680D01*
X3177800Y5348860D02*
X3373120D01*
X3712777Y5255680D02*
Y5415280D01*
X3189200Y4470400D02*
Y4673600D01*
Y4876801D01*
X2220244Y4470400D02*
X2507800D01*
X2262335Y4673600D02*
X2507800D01*
X2308707Y4876801D02*
X2507799D01*
X2507800Y4876800D01*
X1778000Y4346094D02*
X2308707Y4876801D01*
X3732280Y5634966D02*
X3753534Y5656220D01*
X4152400D01*
X3177800Y5094860D02*
X3295398D01*
X1955234Y5453000D02*
X1981200Y5427033D01*
Y5016500D02*
Y5427033D01*
X1870956Y5453000D02*
X1955234D01*
X1655700Y4691000D02*
X1981200Y5016500D01*
X1650882Y4541296D02*
X2051414Y4941828D01*
Y5592174D02*
X2189100Y5729860D01*
X2051414Y4941828D02*
Y5592174D01*
X1513200Y5453000D02*
X1740956D01*
X1870956Y5707000D02*
X2021809D01*
X2266030Y5951220D01*
X2806887D01*
X1777106Y5553907D02*
X1835085Y5611886D01*
X1777106Y5489150D02*
Y5553907D01*
X1835085Y5611886D02*
Y5671128D01*
X1740956Y5453000D02*
X1777106Y5489150D01*
X1835085Y5671128D02*
X1870956Y5707000D01*
X2189100Y5729860D02*
X2637800D01*
X2806887Y5951220D02*
X2841537Y5916571D01*
Y5573484D02*
X2939160Y5475860D01*
X2841537Y5573484D02*
Y5916571D01*
X2939160Y5475860D02*
X3158975D01*
X1513200Y4691000D02*
X1655700D01*
X1650882Y4066682D02*
Y4541296D01*
X2449150Y5399450D02*
X2542210D01*
X2592800Y5348860D01*
X2413000Y5435600D02*
X2449150Y5399450D01*
X2592800Y5348860D02*
X2779140D01*
X2448940Y5221860D02*
X2746909D01*
X2413000Y5257800D02*
X2448940Y5221860D01*
X2413000Y5080000D02*
X2427860Y5094860D01*
X2637800D01*
X2895600Y5003660D02*
Y5232400D01*
X2779140Y5348860D02*
X2895600Y5232400D01*
X1934704Y1775819D02*
Y4184859D01*
X2220244Y4470400D01*
X1854419Y1730160D02*
Y4265684D01*
X2262335Y4673600D01*
X1778000Y1601400D02*
Y4346094D01*
Y1601400D02*
X2176600Y1202800D01*
X1854419Y1730160D02*
X2362069Y1222511D01*
X1934704Y1775819D02*
X2477633Y1232890D01*
X2771600Y4673599D02*
Y4772200D01*
X2637800Y4876800D02*
Y5094860D01*
Y4470400D02*
X2895600D01*
X2637800Y4673599D02*
X2771600D01*
X2895600Y4470400D02*
X3056200D01*
X2895600D02*
Y4572000D01*
X2771600Y4673599D02*
X3059200D01*
X2746909Y5221860D02*
X2771600Y5197169D01*
Y5003660D02*
Y5197169D01*
X2641520Y4876800D02*
X3059200D01*
X2362069Y1108869D02*
Y1222511D01*
X2278200Y1025000D02*
X2362069Y1108869D01*
X2340074Y881529D02*
X2477633Y1019087D01*
X2075000Y1025000D02*
X2218471Y881529D01*
X2477633Y1019087D02*
Y1232890D01*
X2218471Y881529D02*
X2340074D01*
X1513200Y3929000D02*
X1650882Y4066682D01*
X3732280Y5536460D02*
Y5634966D01*
X4467360Y4885800D02*
Y5097400D01*
X1513200Y5199000D02*
X1740956D01*
D11*
X6511000Y4147440D02*
X6689110D01*
X6938800Y4397130D01*
Y5376000D01*
X5938800Y4375240D02*
Y6100000D01*
X5711000Y4147440D02*
X5938800Y4375240D01*
X6511000Y1873000D02*
Y2547440D01*
X6273700Y1873000D02*
X6511000D01*
X7035700D01*
X4444900D02*
X5206900D01*
X4193820D02*
X4444900D01*
X6438800Y5376000D02*
Y6100000D01*
Y4626000D02*
Y5376000D01*
X3822440Y2547440D02*
X5711000D01*
X3566820Y2291820D02*
X3822440Y2547440D01*
X3566820Y2000000D02*
Y2291820D01*
X4066820Y2000000D02*
X4193820Y1873000D01*
D13*
X1513200Y5199000D02*
D03*
Y5453000D02*
D03*
X1668600Y1025000D02*
D03*
X1567000Y1202800D02*
D03*
X1871800Y1025000D02*
D03*
X1770200Y1202800D02*
D03*
X2075000Y1025000D02*
D03*
X1973400Y1202800D02*
D03*
X2278200Y1025000D02*
D03*
X2176600Y1202800D02*
D03*
X1513200Y5961000D02*
D03*
Y6215000D02*
D03*
D14*
X2557600Y771000D02*
D03*
X1287600D02*
D03*
D15*
X4438800Y6100000D02*
D03*
X4938800D02*
D03*
X5438800D02*
D03*
X5938800D02*
D03*
X6438800D02*
D03*
X3066820Y2000000D02*
D03*
X3566820D02*
D03*
X4066820D02*
D03*
D16*
X6938800Y4626000D02*
D03*
Y5376000D02*
D03*
X6438800Y4626000D02*
D03*
Y5376000D02*
D03*
X4438800D02*
D03*
Y4626000D02*
D03*
D17*
X5711000Y2547440D02*
D03*
X6511000D02*
D03*
Y4147440D02*
D03*
X5711000D02*
D03*
D18*
X5206900Y1873000D02*
D03*
X4444900D02*
D03*
X7035700D02*
D03*
X6273700D02*
D03*
D19*
X3903200Y6312600D02*
D03*
X2363200D02*
D03*
X3383200Y3372600D02*
D03*
X2883200D02*
D03*
D20*
X1513200Y4691000D02*
D03*
D21*
Y4437000D02*
D03*
Y4183000D02*
D03*
Y3929000D02*
D03*
Y3675000D02*
D03*
Y3421000D02*
D03*
D22*
X7500000Y7500000D02*
D03*
X500000D02*
D03*
X7500000Y500000D02*
D03*
X500000D02*
D03*
D23*
X4066540Y5349700D02*
D03*
X3710877Y4890936D02*
D03*
X3911259Y4721000D02*
D03*
X3809460Y4797304D02*
D03*
X3707583Y4721000D02*
D03*
X3373120Y5568136D02*
D03*
X1875956Y5288276D02*
D03*
X2188724Y5080000D02*
D03*
Y5257800D02*
D03*
X2188724Y5435600D02*
D03*
X3383460Y4557020D02*
D03*
X2771600Y4772200D02*
D03*
X2895600Y4978260D02*
D03*
Y4572000D02*
D03*
X2771600Y4978260D02*
D03*
X1677560Y3197480D02*
D03*
X1575960D02*
D03*
X1474360D02*
D03*
X1372760D02*
D03*
X2514161Y5856860D02*
D03*
X2761500D02*
D03*
X3994790Y5536460D02*
D03*
X3464292Y6040200D02*
D03*
X3548380Y5800080D02*
D03*
X3053360Y6185849D02*
D03*
D24*
X4337360Y4885800D02*
D03*
X4467360D02*
D03*
Y5097400D02*
D03*
X4337360D02*
D03*
X3059200Y4876801D02*
D03*
X3189200D02*
D03*
X2637800Y4876800D02*
D03*
X2507800D02*
D03*
X2637800Y4673600D02*
D03*
X2507800D02*
D03*
X3059200D02*
D03*
X3189200D02*
D03*
X3056200Y4470401D02*
D03*
X3186200D02*
D03*
X2637800Y4470400D02*
D03*
X2507800D02*
D03*
X1870956Y5453000D02*
D03*
X1740956Y5453000D02*
D03*
Y5707000D02*
D03*
X1870956D02*
D03*
X2741660Y6063060D02*
D03*
X2611660Y6063060D02*
D03*
X3601900Y4556400D02*
D03*
X3471900D02*
D03*
X1870956Y5961000D02*
D03*
X1740956D02*
D03*
D25*
X4140260Y5103300D02*
D03*
Y4883300D02*
D03*
D26*
X3431540Y4990680D02*
D03*
Y5120680D02*
D03*
X3977640Y5219700D02*
D03*
X3977640Y5349700D02*
D03*
X3373120Y5478860D02*
D03*
Y5348860D02*
D03*
D27*
X3617777Y4990680D02*
D03*
X3712777D02*
D03*
X3807777D02*
D03*
Y5255680D02*
D03*
X3712777D02*
D03*
X3617777D02*
D03*
D28*
X4059460Y4626000D02*
D03*
X3809460Y4531000D02*
D03*
Y4721000D02*
D03*
D29*
X1875956Y5199000D02*
D03*
X1740956D02*
D03*
X2413000Y5080000D02*
D03*
X2278000D02*
D03*
X2413000Y5257800D02*
D03*
X2278000Y5257800D02*
D03*
X2413000Y5435600D02*
D03*
X2278000Y5435600D02*
D03*
D30*
X3454300Y6462600D02*
D03*
X2869300D02*
D03*
D31*
X3177800Y5856860D02*
D03*
Y5729860D02*
D03*
Y5602860D02*
D03*
Y5475860D02*
D03*
Y5348860D02*
D03*
Y5221860D02*
D03*
Y5094860D02*
D03*
X2637800Y5856860D02*
D03*
Y5729860D02*
D03*
Y5602860D02*
D03*
Y5475860D02*
D03*
Y5348860D02*
D03*
Y5221860D02*
D03*
Y5094860D02*
D03*
D32*
X3548380Y5529580D02*
D03*
X3548380Y5704820D02*
D03*
X4152400Y5656220D02*
D03*
Y5831461D02*
D03*
D33*
X3732280Y5831460D02*
D03*
X3922280Y5831461D02*
D03*
X3732280Y5536460D02*
D03*
X3827280Y5536460D02*
D03*
X3922280Y5536460D02*
D03*
D34*
X3228600Y6075300D02*
D03*
X3053360D02*
D03*
X3557040Y6040200D02*
D03*
X3732280D02*
D03*
D35*
X1866059Y5961000D02*
X2036700D01*
X2138760Y6063060D01*
X3977640Y5219700D02*
X4090993D01*
X4160520Y5289227D02*
Y5469543D01*
X4090993Y5219700D02*
X4160520Y5289227D01*
X3977640Y5057140D02*
Y5219700D01*
X3807777Y4990680D02*
X3911180D01*
X3977640Y5057140D01*
X4438800Y5747822D02*
Y6100000D01*
X4160520Y5469543D02*
X4438800Y5747822D01*
X1516555Y5964355D02*
X1740956D01*
X3922280Y5831461D02*
X4152400D01*
X2741660Y6063060D02*
X2847882D01*
X2910320Y5789180D02*
Y6000622D01*
X2847882Y6063060D02*
X2910320Y6000622D01*
X2611660Y6063060D02*
X2611660Y6063060D01*
X2138760Y6063060D02*
X2611660D01*
X2124440Y4859723D02*
Y5492480D01*
X2236344Y5604384D01*
X1712700Y4447983D02*
X2124440Y4859723D01*
X1740956Y5961000D02*
Y5964355D01*
Y5707000D02*
Y5961000D01*
X2910320Y5789180D02*
X2969640Y5729860D01*
X3177800D01*
X2236344Y5604384D02*
X2636276D01*
X1712700Y3874499D02*
Y4447983D01*
X1513200Y5961000D02*
X1516555Y5964355D01*
X1513200Y3675000D02*
X1712700Y3874499D01*
X2636276Y5604384D02*
X2637800Y5602860D01*
X3183243Y5856860D02*
X3203920Y5877536D01*
X3177800Y5856860D02*
X3183243D01*
X3203920Y6050620D02*
X3228600Y6075300D01*
X3356920Y6365220D02*
X3454300Y6462600D01*
X3356920Y6298579D02*
Y6365220D01*
X3203920Y5877536D02*
Y6050620D01*
X3265980Y6207640D02*
X3356920Y6298579D01*
X3228600Y6075300D02*
X3265980Y6112680D01*
Y6207640D01*
D36*
X4140260Y4883300D02*
X4142761Y4885800D01*
X4337360D01*
X4337360Y4885800D01*
X4140260Y5103300D02*
X4146160Y5097400D01*
X4337360D01*
X4059460Y4626000D02*
X4438800D01*
X3732280Y6381281D02*
X3845642D01*
X3535619D02*
X3732280D01*
X4507797Y4441436D02*
X4638044Y4571683D01*
X4337229Y5097531D02*
Y5274429D01*
X3186200Y4470401D02*
X3215166Y4441436D01*
X4507797D01*
X4638044Y4571683D02*
Y5376000D01*
X4237755Y6672200D02*
X4638044Y6271911D01*
X4438800Y5376000D02*
X4638044D01*
X4638044Y5376000D01*
Y6271911D01*
X1346200Y5964538D02*
Y6250245D01*
Y4604001D02*
Y5964538D01*
X1509662D01*
X1346200Y4604001D02*
X1513200Y4437001D01*
X1346200Y6250245D02*
X1768155Y6672200D01*
X3454300D01*
X4337360Y4727440D02*
Y4885800D01*
X4438800Y4626000D02*
Y4626000D01*
X4337360Y4727440D02*
X4438800Y4626000D01*
X3903200Y6312600D02*
Y6323723D01*
X3454300Y6462600D02*
X3535619Y6381281D01*
X3845642D02*
X3903200Y6323723D01*
X3454300Y6672200D02*
X4237755D01*
X4337229Y5274429D02*
X4438800Y5376000D01*
X3454300Y6462600D02*
Y6672200D01*
%TF.MD5,48d034e84ae6b65d91b20caea66ad99d*%
M02*
