%TF.GenerationSoftware,Altium Limited,Altium Designer,20.1.8 (145)*%
G04 Layer_Color=39423*
%FSLAX45Y45*%
%MOMM*%
%TF.SameCoordinates,6D2D8FCC-EB96-405E-AB85-A4400E8CD33B*%
%TF.FilePolarity,Negative*%
%TF.FileFunction,Soldermask,Top*%
%TF.Part,Single*%
G01*
G75*
%TA.AperFunction,ComponentPad*%
%ADD54C,1.72720*%
%ADD55C,3.45440*%
%ADD56C,2.00320*%
%ADD57C,2.20320*%
%ADD58C,1.70320*%
%ADD59O,2.40320X2.90320*%
%ADD60O,1.70320X3.20320*%
G04:AMPARAMS|DCode=61|XSize=1.7032mm|YSize=1.6532mm|CornerRadius=0.28285mm|HoleSize=0mm|Usage=FLASHONLY|Rotation=270.000|XOffset=0mm|YOffset=0mm|HoleType=Round|Shape=RoundedRectangle|*
%AMROUNDEDRECTD61*
21,1,1.70320,1.08750,0,0,270.0*
21,1,1.13750,1.65320,0,0,270.0*
1,1,0.56570,-0.54375,-0.56875*
1,1,0.56570,-0.54375,0.56875*
1,1,0.56570,0.54375,0.56875*
1,1,0.56570,0.54375,-0.56875*
%
%ADD61ROUNDEDRECTD61*%
%ADD62O,1.65320X1.70320*%
%TA.AperFunction,ViaPad*%
%ADD63C,5.20320*%
D54*
X1513200Y5199000D02*
D03*
Y5453000D02*
D03*
X1668600Y1025000D02*
D03*
X1567000Y1202800D02*
D03*
X1871800Y1025000D02*
D03*
X1770200Y1202800D02*
D03*
X2075000Y1025000D02*
D03*
X1973400Y1202800D02*
D03*
X2278200Y1025000D02*
D03*
X2176600Y1202800D02*
D03*
X1513200Y5961000D02*
D03*
Y6215000D02*
D03*
D55*
X2557600Y771000D02*
D03*
X1287600D02*
D03*
D56*
X4438800Y6100000D02*
D03*
X4938800D02*
D03*
X5438800D02*
D03*
X5938800D02*
D03*
X6438800D02*
D03*
X3066820Y2000000D02*
D03*
X3566820D02*
D03*
X4066820D02*
D03*
D57*
X6938800Y4626000D02*
D03*
Y5376000D02*
D03*
X6438800Y4626000D02*
D03*
Y5376000D02*
D03*
X4438800D02*
D03*
Y4626000D02*
D03*
D58*
X5711000Y2547440D02*
D03*
X6511000D02*
D03*
Y4147440D02*
D03*
X5711000D02*
D03*
D59*
X5206900Y1873000D02*
D03*
X4444900D02*
D03*
X7035700D02*
D03*
X6273700D02*
D03*
D60*
X3903200Y6312600D02*
D03*
X2363200D02*
D03*
X3383200Y3372600D02*
D03*
X2883200D02*
D03*
D61*
X1513200Y4691000D02*
D03*
D62*
Y4437000D02*
D03*
Y4183000D02*
D03*
Y3929000D02*
D03*
Y3675000D02*
D03*
Y3421000D02*
D03*
D63*
X7500000Y7500000D02*
D03*
X500000D02*
D03*
X7500000Y500000D02*
D03*
X500000D02*
D03*
%TF.MD5,32313b0c7a060bfb8299e01cfd511c76*%
M02*
