%TF.GenerationSoftware,Altium Limited,Altium Designer,20.1.8 (145)*%
G04 Layer_Color=16777215*
%FSLAX45Y45*%
%MOMM*%
%TF.SameCoordinates,6D2D8FCC-EB96-405E-AB85-A4400E8CD33B*%
%TF.FilePolarity,Positive*%
%TF.FileFunction,Legend,Top*%
%TF.Part,Single*%
G01*
G75*
%TA.AperFunction,NonConductor*%
%ADD38C,0.25000*%
%ADD39C,0.25400*%
%ADD41C,0.10160*%
%ADD42C,0.12700*%
%ADD64C,0.40000*%
G36*
X1663200Y4841000D02*
Y4741000D01*
X1563200Y4841000D01*
X1663200D01*
D02*
G37*
G36*
X1680840Y4754500D02*
D01*
D02*
G37*
G36*
X3154518Y1496794D02*
X3158221Y1496331D01*
X3162386Y1495405D01*
X3166551Y1494017D01*
X3170716Y1492166D01*
X3173955Y1489389D01*
X3174418Y1488926D01*
X3175344Y1488001D01*
X3176732Y1486149D01*
X3178583Y1483835D01*
X3179972Y1481059D01*
X3181360Y1477819D01*
X3182285Y1473654D01*
X3182748Y1469489D01*
Y1469026D01*
Y1467638D01*
X3182285Y1465324D01*
X3181823Y1462084D01*
X3180434Y1458845D01*
X3179046Y1455605D01*
X3176732Y1452366D01*
X3173955Y1449126D01*
X3173493Y1448664D01*
X3172567Y1448201D01*
X3170253Y1446812D01*
X3167939Y1445424D01*
X3164237Y1444036D01*
X3160072Y1443110D01*
X3154981Y1442185D01*
X3148965Y1441722D01*
X3015682D01*
Y1375543D01*
X3141097D01*
X3143874Y1375080D01*
X3147114Y1374618D01*
X3151279Y1373692D01*
X3154981Y1372304D01*
X3159146Y1370452D01*
X3162386Y1367676D01*
X3162848Y1367213D01*
X3163774Y1366287D01*
X3165162Y1364899D01*
X3166551Y1362585D01*
X3167939Y1359808D01*
X3169327Y1356569D01*
X3170253Y1352404D01*
X3170716Y1348239D01*
Y1347776D01*
Y1346387D01*
X3170253Y1344074D01*
X3169790Y1341297D01*
X3168865Y1338057D01*
X3167013Y1334818D01*
X3165162Y1331578D01*
X3162386Y1328339D01*
X3161923Y1327876D01*
X3160997Y1327413D01*
X3159146Y1326025D01*
X3156369Y1324636D01*
X3153130Y1323248D01*
X3148965Y1322322D01*
X3143874Y1321397D01*
X3138321Y1320934D01*
X3015682D01*
Y1242723D01*
X3156832D01*
X3159609Y1242260D01*
X3163311Y1241797D01*
X3167476Y1240872D01*
X3171641Y1239021D01*
X3175344Y1237169D01*
X3179046Y1234393D01*
X3179509Y1233930D01*
X3180434Y1233004D01*
X3181823Y1231153D01*
X3183674Y1228839D01*
X3185062Y1226063D01*
X3186451Y1222360D01*
X3187376Y1218658D01*
X3187839Y1214030D01*
Y1213567D01*
Y1212179D01*
X3187376Y1209865D01*
X3186913Y1206625D01*
X3185525Y1203386D01*
X3184137Y1200146D01*
X3181823Y1196907D01*
X3179046Y1193667D01*
X3178583Y1193205D01*
X3177658Y1192279D01*
X3175344Y1191353D01*
X3172567Y1189965D01*
X3168865Y1188114D01*
X3164700Y1187188D01*
X3159609Y1186263D01*
X3154055Y1185800D01*
X2983287D01*
X2979584Y1186263D01*
X2974956Y1187188D01*
X2969866Y1188114D01*
X2964775Y1189965D01*
X2959684Y1192279D01*
X2955519Y1195519D01*
X2955057Y1195981D01*
X2954131Y1197370D01*
X2952280Y1199684D01*
X2950891Y1203386D01*
X2949040Y1208014D01*
X2947189Y1213105D01*
X2946264Y1220046D01*
X2945801Y1227451D01*
Y1455143D01*
Y1455605D01*
Y1457457D01*
X2946264Y1460233D01*
Y1463473D01*
X2947652Y1471340D01*
X2948578Y1475043D01*
X2949966Y1478745D01*
X2950429Y1479208D01*
X2950891Y1480133D01*
X2951817Y1481984D01*
X2953668Y1484298D01*
X2957833Y1488926D01*
X2960610Y1490777D01*
X2963850Y1492628D01*
X2964312D01*
X2965701Y1493554D01*
X2967552Y1494017D01*
X2970329Y1494942D01*
X2973568Y1495868D01*
X2977733Y1496331D01*
X2981898Y1497256D01*
X3151741D01*
X3154518Y1496794D01*
D02*
G37*
G36*
X1261058Y6255117D02*
X1263557Y6254561D01*
X1265778Y6253728D01*
X1267444Y6252618D01*
X1268832Y6251785D01*
X1269942Y6250952D01*
X1270498Y6250397D01*
X1270775Y6250119D01*
X1272441Y6247898D01*
X1273551Y6245400D01*
X1274384Y6242901D01*
X1274940Y6240403D01*
X1275217Y6238182D01*
X1275495Y6236516D01*
Y6195705D01*
X1275217Y6192096D01*
X1274662Y6188765D01*
X1274107Y6185989D01*
X1272996Y6183768D01*
X1272163Y6182102D01*
X1271608Y6180991D01*
X1271053Y6180159D01*
X1270775Y6179881D01*
X1268832Y6178215D01*
X1266611Y6176827D01*
X1264668Y6175994D01*
X1262724Y6175161D01*
X1260781Y6174884D01*
X1259393Y6174606D01*
X1258560D01*
X1258282D01*
X1255506Y6174884D01*
X1253007Y6175439D01*
X1250786Y6176272D01*
X1248843Y6177382D01*
X1247455Y6178493D01*
X1246344Y6179326D01*
X1245789Y6179881D01*
X1245512Y6180159D01*
X1243846Y6182380D01*
X1242735Y6184878D01*
X1241625Y6187377D01*
X1241070Y6189875D01*
X1240792Y6192096D01*
X1240514Y6194040D01*
Y6234850D01*
X1240792Y6238459D01*
X1241347Y6241513D01*
X1242180Y6244289D01*
X1243013Y6246510D01*
X1243846Y6248176D01*
X1244679Y6249286D01*
X1245234Y6250119D01*
X1245512Y6250397D01*
X1247455Y6252063D01*
X1249676Y6253173D01*
X1251619Y6254284D01*
X1253840Y6254839D01*
X1255506Y6255117D01*
X1256894Y6255394D01*
X1258005D01*
X1258282D01*
X1261058Y6255117D01*
D02*
G37*
G36*
X1277326Y5979601D02*
X1324799D01*
Y5942400D01*
X1277326D01*
Y5894649D01*
X1239847D01*
Y5942400D01*
X1192374D01*
Y5979601D01*
X1239847D01*
Y6027352D01*
X1277326D01*
Y5979601D01*
D02*
G37*
G36*
X4976980Y6737468D02*
X4980682Y6737005D01*
X4984847Y6736079D01*
X4989012Y6734228D01*
X4993177Y6732377D01*
X4996880Y6729600D01*
X4997343Y6729138D01*
X4998268Y6728212D01*
X4999656Y6726361D01*
X5001508Y6724047D01*
X5003359Y6720807D01*
X5004747Y6717105D01*
X5005673Y6712940D01*
X5006136Y6708312D01*
Y6707849D01*
Y6706461D01*
X5005673Y6704147D01*
X5005210Y6700908D01*
X5003822Y6697668D01*
X5002433Y6694429D01*
X5000119Y6690726D01*
X4997343Y6687487D01*
X4996880Y6687024D01*
X4995491Y6686098D01*
X4993640Y6685173D01*
X4990864Y6683784D01*
X4987161Y6681933D01*
X4982533Y6681008D01*
X4976980Y6680082D01*
X4970964Y6679619D01*
X4902934D01*
X4900157Y6680082D01*
X4896455Y6680545D01*
X4892290Y6681471D01*
X4888125Y6682859D01*
X4883959Y6684710D01*
X4880257Y6687487D01*
X4879794Y6687950D01*
X4878869Y6688875D01*
X4877480Y6690726D01*
X4876092Y6693040D01*
X4874241Y6695817D01*
X4872853Y6699519D01*
X4871927Y6703684D01*
X4871464Y6708312D01*
Y6708775D01*
Y6710626D01*
X4871927Y6712940D01*
X4872390Y6715717D01*
X4873315Y6719419D01*
X4875167Y6722659D01*
X4877018Y6726361D01*
X4879794Y6729600D01*
X4880257Y6730063D01*
X4881646Y6730989D01*
X4883497Y6732377D01*
X4886273Y6733766D01*
X4889976Y6735154D01*
X4894604Y6736542D01*
X4899694Y6737468D01*
X4905711Y6737931D01*
X4973740D01*
X4976980Y6737468D01*
D02*
G37*
G36*
X4469807Y6740013D02*
X4549406D01*
Y6677537D01*
X4469807D01*
Y6598400D01*
X4407793D01*
Y6677537D01*
X4328194D01*
Y6740013D01*
X4407793D01*
Y6819150D01*
X4469807D01*
Y6740013D01*
D02*
G37*
G36*
X3669790Y1506975D02*
X3673493Y1506049D01*
X3677195Y1505124D01*
X3681360Y1503273D01*
X3685062Y1500496D01*
X3688765Y1497256D01*
X3689227Y1496794D01*
X3690153Y1495405D01*
X3691541Y1493091D01*
X3693392Y1489852D01*
X3695244Y1485687D01*
X3696632Y1480596D01*
X3697558Y1475043D01*
X3698020Y1468101D01*
Y1229765D01*
Y1229302D01*
Y1227914D01*
X3697558Y1225600D01*
Y1222823D01*
X3697095Y1219584D01*
X3696169Y1215881D01*
X3693392Y1208014D01*
X3691078Y1203849D01*
X3688765Y1199684D01*
X3685525Y1195981D01*
X3681823Y1192742D01*
X3677658Y1189965D01*
X3672567Y1187651D01*
X3666551Y1186263D01*
X3660072Y1185800D01*
X3656832D01*
X3654518Y1186263D01*
X3648965Y1187188D01*
X3643411Y1188577D01*
X3642949D01*
X3642023Y1189040D01*
X3641097Y1189502D01*
X3639246Y1190428D01*
X3634618Y1192742D01*
X3629990Y1196444D01*
X3629528Y1196907D01*
X3629065Y1197370D01*
X3626288Y1200146D01*
X3622586Y1203849D01*
X3618884Y1208477D01*
Y1208939D01*
X3617958Y1209402D01*
X3617495Y1210791D01*
X3616107Y1212642D01*
X3612867Y1217270D01*
X3609165Y1222823D01*
X3501798Y1398682D01*
Y1225137D01*
Y1224211D01*
Y1221897D01*
X3501335Y1218658D01*
X3500410Y1214493D01*
X3499484Y1209865D01*
X3497633Y1204774D01*
X3495319Y1200146D01*
X3492080Y1195981D01*
X3491617Y1195519D01*
X3490228Y1194593D01*
X3488377Y1192742D01*
X3485601Y1190891D01*
X3482361Y1189040D01*
X3478196Y1187188D01*
X3473568Y1186263D01*
X3468477Y1185800D01*
X3466164D01*
X3463387Y1186263D01*
X3459684Y1187188D01*
X3455982Y1188114D01*
X3451817Y1189965D01*
X3448115Y1192742D01*
X3444412Y1195981D01*
X3443950Y1196444D01*
X3443024Y1197833D01*
X3441636Y1200146D01*
X3440247Y1203386D01*
X3438396Y1207551D01*
X3437008Y1212179D01*
X3436082Y1218195D01*
X3435619Y1224674D01*
Y1458382D01*
Y1459308D01*
Y1461159D01*
Y1463936D01*
X3436082Y1467175D01*
X3437008Y1475043D01*
X3437933Y1479208D01*
X3438859Y1482447D01*
X3439322Y1482910D01*
X3439785Y1484298D01*
X3440710Y1486612D01*
X3442561Y1488926D01*
X3444412Y1492166D01*
X3447189Y1494942D01*
X3449966Y1497719D01*
X3453668Y1500496D01*
X3454131Y1500959D01*
X3455519Y1501421D01*
X3457371Y1502810D01*
X3460147Y1504198D01*
X3463387Y1505124D01*
X3467089Y1506512D01*
X3471254Y1506975D01*
X3475419Y1507438D01*
X3478659D01*
X3480973Y1506975D01*
X3486063Y1506049D01*
X3491154Y1504198D01*
X3491617D01*
X3492542Y1503735D01*
X3495319Y1501884D01*
X3499021Y1499107D01*
X3503187Y1495868D01*
X3503649D01*
X3504112Y1494942D01*
X3506426Y1492628D01*
X3509666Y1488463D01*
X3512905Y1483373D01*
Y1482910D01*
X3513831Y1481984D01*
X3514756Y1480596D01*
X3516145Y1478745D01*
X3519384Y1473654D01*
X3523086Y1467638D01*
X3632767Y1292241D01*
Y1468101D01*
Y1469026D01*
Y1471340D01*
X3633230Y1474580D01*
X3633693Y1478745D01*
X3634618Y1483373D01*
X3636469Y1488463D01*
X3638321Y1493091D01*
X3641097Y1497256D01*
X3641560Y1497719D01*
X3642949Y1498645D01*
X3644800Y1500496D01*
X3647576Y1502347D01*
X3650816Y1504198D01*
X3654981Y1506049D01*
X3659609Y1506975D01*
X3664700Y1507438D01*
X3667013D01*
X3669790Y1506975D01*
D02*
G37*
G36*
X3994162Y1501884D02*
X3997864Y1500959D01*
X4001567Y1499570D01*
X4006195Y1497719D01*
X4010360Y1495405D01*
X4014062Y1491703D01*
X4014525Y1491240D01*
X4015450Y1489852D01*
X4017302Y1487075D01*
X4019153Y1483835D01*
X4021004Y1479670D01*
X4022855Y1474117D01*
X4023781Y1468101D01*
X4024243Y1460696D01*
Y1244574D01*
X4146419D01*
X4149659Y1244111D01*
X4153361Y1243649D01*
X4157526Y1242260D01*
X4162154Y1240872D01*
X4166319Y1238558D01*
X4170022Y1235781D01*
X4170484Y1235318D01*
X4171410Y1234393D01*
X4172798Y1232542D01*
X4174650Y1230228D01*
X4176501Y1226988D01*
X4177889Y1223286D01*
X4178815Y1219584D01*
X4179277Y1214956D01*
Y1214493D01*
Y1212642D01*
X4178815Y1210328D01*
X4178352Y1207551D01*
X4176963Y1203849D01*
X4175575Y1200609D01*
X4173261Y1196907D01*
X4170022Y1193667D01*
X4169559Y1193205D01*
X4168170Y1192279D01*
X4166319Y1191353D01*
X4163080Y1189965D01*
X4159378Y1188114D01*
X4155212Y1187188D01*
X4149659Y1186263D01*
X4143643Y1185800D01*
X3991848D01*
X3988146Y1186263D01*
X3983518Y1187188D01*
X3978427Y1188114D01*
X3973337Y1189965D01*
X3968246Y1192279D01*
X3964081Y1195519D01*
X3963618Y1195981D01*
X3962693Y1197370D01*
X3960841Y1199684D01*
X3959453Y1203386D01*
X3957602Y1208014D01*
X3955751Y1213105D01*
X3954825Y1220046D01*
X3954362Y1227451D01*
Y1460696D01*
Y1461159D01*
Y1461622D01*
Y1463936D01*
X3954825Y1467638D01*
X3955751Y1472266D01*
X3956676Y1477356D01*
X3958065Y1482447D01*
X3960379Y1487538D01*
X3963618Y1491703D01*
X3964081Y1492166D01*
X3965469Y1493554D01*
X3967320Y1494942D01*
X3970560Y1497256D01*
X3973800Y1499107D01*
X3978427Y1500496D01*
X3983055Y1501884D01*
X3988609Y1502347D01*
X3991385D01*
X3994162Y1501884D01*
D02*
G37*
G36*
X6366142Y6866586D02*
X6369845Y6865660D01*
X6373547Y6864272D01*
X6378175Y6862421D01*
X6382340Y6860107D01*
X6386042Y6856404D01*
X6386505Y6855942D01*
X6387430Y6854553D01*
X6389282Y6851776D01*
X6391133Y6848537D01*
X6392984Y6844372D01*
X6394835Y6838818D01*
X6395761Y6832802D01*
X6396223Y6825398D01*
Y6609276D01*
X6518399D01*
X6521639Y6608813D01*
X6525341Y6608350D01*
X6529506Y6606962D01*
X6534134Y6605573D01*
X6538299Y6603259D01*
X6542002Y6600483D01*
X6542464Y6600020D01*
X6543390Y6599094D01*
X6544778Y6597243D01*
X6546630Y6594929D01*
X6548481Y6591690D01*
X6549869Y6587987D01*
X6550795Y6584285D01*
X6551257Y6579657D01*
Y6579194D01*
Y6577343D01*
X6550795Y6575029D01*
X6550332Y6572253D01*
X6548943Y6568550D01*
X6547555Y6565311D01*
X6545241Y6561608D01*
X6542002Y6558369D01*
X6541539Y6557906D01*
X6540150Y6556981D01*
X6538299Y6556055D01*
X6535060Y6554667D01*
X6531358Y6552815D01*
X6527192Y6551890D01*
X6521639Y6550964D01*
X6515623Y6550502D01*
X6363828D01*
X6360126Y6550964D01*
X6355498Y6551890D01*
X6350407Y6552815D01*
X6345317Y6554667D01*
X6340226Y6556981D01*
X6336061Y6560220D01*
X6335598Y6560683D01*
X6334673Y6562071D01*
X6332821Y6564385D01*
X6331433Y6568087D01*
X6329582Y6572715D01*
X6327731Y6577806D01*
X6326805Y6584748D01*
X6326342Y6592152D01*
Y6825398D01*
Y6825860D01*
Y6826323D01*
Y6828637D01*
X6326805Y6832339D01*
X6327731Y6836967D01*
X6328656Y6842058D01*
X6330045Y6847149D01*
X6332359Y6852239D01*
X6335598Y6856404D01*
X6336061Y6856867D01*
X6337449Y6858256D01*
X6339301Y6859644D01*
X6342540Y6861958D01*
X6345780Y6863809D01*
X6350407Y6865197D01*
X6355035Y6866586D01*
X6360589Y6867048D01*
X6363365D01*
X6366142Y6866586D01*
D02*
G37*
G36*
X6041770Y6869131D02*
X6045473Y6868205D01*
X6049175Y6867280D01*
X6053340Y6865429D01*
X6057042Y6862652D01*
X6060745Y6859412D01*
X6061207Y6858950D01*
X6062133Y6857561D01*
X6063521Y6855247D01*
X6065372Y6852008D01*
X6067224Y6847843D01*
X6068612Y6842752D01*
X6069538Y6837199D01*
X6070000Y6830257D01*
Y6591921D01*
Y6591458D01*
Y6590070D01*
X6069538Y6587756D01*
Y6584979D01*
X6069075Y6581740D01*
X6068149Y6578037D01*
X6065372Y6570170D01*
X6063058Y6566005D01*
X6060745Y6561840D01*
X6057505Y6558138D01*
X6053803Y6554898D01*
X6049638Y6552121D01*
X6044547Y6549807D01*
X6038531Y6548419D01*
X6032052Y6547956D01*
X6028812D01*
X6026498Y6548419D01*
X6020945Y6549345D01*
X6015391Y6550733D01*
X6014929D01*
X6014003Y6551196D01*
X6013077Y6551658D01*
X6011226Y6552584D01*
X6006598Y6554898D01*
X6001970Y6558600D01*
X6001508Y6559063D01*
X6001045Y6559526D01*
X5998268Y6562303D01*
X5994566Y6566005D01*
X5990864Y6570633D01*
Y6571096D01*
X5989938Y6571558D01*
X5989475Y6572947D01*
X5988087Y6574798D01*
X5984847Y6579426D01*
X5981145Y6584979D01*
X5873778Y6760839D01*
Y6587293D01*
Y6586368D01*
Y6584054D01*
X5873315Y6580814D01*
X5872390Y6576649D01*
X5871464Y6572021D01*
X5869613Y6566930D01*
X5867299Y6562303D01*
X5864060Y6558138D01*
X5863597Y6557675D01*
X5862208Y6556749D01*
X5860357Y6554898D01*
X5857581Y6553047D01*
X5854341Y6551196D01*
X5850176Y6549345D01*
X5845548Y6548419D01*
X5840457Y6547956D01*
X5838144D01*
X5835367Y6548419D01*
X5831664Y6549345D01*
X5827962Y6550270D01*
X5823797Y6552121D01*
X5820095Y6554898D01*
X5816392Y6558138D01*
X5815930Y6558600D01*
X5815004Y6559989D01*
X5813616Y6562303D01*
X5812227Y6565542D01*
X5810376Y6569707D01*
X5808988Y6574335D01*
X5808062Y6580351D01*
X5807600Y6586830D01*
Y6820538D01*
Y6821464D01*
Y6823315D01*
Y6826092D01*
X5808062Y6829331D01*
X5808988Y6837199D01*
X5809913Y6841364D01*
X5810839Y6844603D01*
X5811302Y6845066D01*
X5811765Y6846454D01*
X5812690Y6848768D01*
X5814541Y6851082D01*
X5816392Y6854322D01*
X5819169Y6857099D01*
X5821946Y6859875D01*
X5825648Y6862652D01*
X5826111Y6863115D01*
X5827499Y6863578D01*
X5829351Y6864966D01*
X5832127Y6866354D01*
X5835367Y6867280D01*
X5839069Y6868668D01*
X5843234Y6869131D01*
X5847399Y6869594D01*
X5850639D01*
X5852953Y6869131D01*
X5858043Y6868205D01*
X5863134Y6866354D01*
X5863597D01*
X5864522Y6865892D01*
X5867299Y6864040D01*
X5871001Y6861264D01*
X5875167Y6858024D01*
X5875629D01*
X5876092Y6857099D01*
X5878406Y6854785D01*
X5881646Y6850620D01*
X5884885Y6845529D01*
Y6845066D01*
X5885811Y6844140D01*
X5886736Y6842752D01*
X5888125Y6840901D01*
X5891364Y6835810D01*
X5895066Y6829794D01*
X6004747Y6654397D01*
Y6830257D01*
Y6831182D01*
Y6833496D01*
X6005210Y6836736D01*
X6005673Y6840901D01*
X6006598Y6845529D01*
X6008450Y6850620D01*
X6010301Y6855247D01*
X6013077Y6859412D01*
X6013540Y6859875D01*
X6014929Y6860801D01*
X6016780Y6862652D01*
X6019556Y6864503D01*
X6022796Y6866354D01*
X6026961Y6868205D01*
X6031589Y6869131D01*
X6036680Y6869594D01*
X6038994D01*
X6041770Y6869131D01*
D02*
G37*
G36*
X5526498Y6864040D02*
X5530201Y6863578D01*
X5534366Y6862652D01*
X5538531Y6861264D01*
X5542696Y6859412D01*
X5545935Y6856636D01*
X5546398Y6856173D01*
X5547324Y6855247D01*
X5548712Y6853396D01*
X5550563Y6851082D01*
X5551952Y6848306D01*
X5553340Y6845066D01*
X5554265Y6840901D01*
X5554728Y6836736D01*
Y6836273D01*
Y6834885D01*
X5554265Y6832571D01*
X5553803Y6829331D01*
X5552414Y6826092D01*
X5551026Y6822852D01*
X5548712Y6819613D01*
X5545935Y6816373D01*
X5545473Y6815910D01*
X5544547Y6815448D01*
X5542233Y6814059D01*
X5539919Y6812671D01*
X5536217Y6811283D01*
X5532052Y6810357D01*
X5526961Y6809431D01*
X5520945Y6808969D01*
X5387662D01*
Y6742790D01*
X5513077D01*
X5515854Y6742327D01*
X5519094Y6741864D01*
X5523259Y6740939D01*
X5526961Y6739550D01*
X5531126Y6737699D01*
X5534366Y6734923D01*
X5534828Y6734460D01*
X5535754Y6733534D01*
X5537142Y6732146D01*
X5538531Y6729832D01*
X5539919Y6727055D01*
X5541307Y6723816D01*
X5542233Y6719651D01*
X5542696Y6715485D01*
Y6715023D01*
Y6713634D01*
X5542233Y6711320D01*
X5541770Y6708544D01*
X5540845Y6705304D01*
X5538993Y6702065D01*
X5537142Y6698825D01*
X5534366Y6695586D01*
X5533903Y6695123D01*
X5532977Y6694660D01*
X5531126Y6693272D01*
X5528349Y6691883D01*
X5525110Y6690495D01*
X5520945Y6689569D01*
X5515854Y6688644D01*
X5510301Y6688181D01*
X5387662D01*
Y6609970D01*
X5528812D01*
X5531589Y6609507D01*
X5535291Y6609044D01*
X5539456Y6608119D01*
X5543621Y6606267D01*
X5547324Y6604416D01*
X5551026Y6601640D01*
X5551489Y6601177D01*
X5552414Y6600251D01*
X5553803Y6598400D01*
X5555654Y6596086D01*
X5557042Y6593309D01*
X5558431Y6589607D01*
X5559356Y6585905D01*
X5559819Y6581277D01*
Y6580814D01*
Y6579426D01*
X5559356Y6577112D01*
X5558893Y6573872D01*
X5557505Y6570633D01*
X5556117Y6567393D01*
X5553803Y6564154D01*
X5551026Y6560914D01*
X5550563Y6560451D01*
X5549638Y6559526D01*
X5547324Y6558600D01*
X5544547Y6557212D01*
X5540845Y6555361D01*
X5536680Y6554435D01*
X5531589Y6553510D01*
X5526035Y6553047D01*
X5355267D01*
X5351564Y6553510D01*
X5346936Y6554435D01*
X5341846Y6555361D01*
X5336755Y6557212D01*
X5331664Y6559526D01*
X5327499Y6562765D01*
X5327037Y6563228D01*
X5326111Y6564617D01*
X5324260Y6566930D01*
X5322871Y6570633D01*
X5321020Y6575261D01*
X5319169Y6580351D01*
X5318244Y6587293D01*
X5317781Y6594698D01*
Y6822389D01*
Y6822852D01*
Y6824703D01*
X5318244Y6827480D01*
Y6830720D01*
X5319632Y6838587D01*
X5320558Y6842289D01*
X5321946Y6845992D01*
X5322409Y6846454D01*
X5322871Y6847380D01*
X5323797Y6849231D01*
X5325648Y6851545D01*
X5329813Y6856173D01*
X5332590Y6858024D01*
X5335830Y6859875D01*
X5336292D01*
X5337681Y6860801D01*
X5339532Y6861264D01*
X5342309Y6862189D01*
X5345548Y6863115D01*
X5349713Y6863578D01*
X5353878Y6864503D01*
X5523721D01*
X5526498Y6864040D01*
D02*
G37*
D38*
X5200000Y6525000D02*
Y7425000D01*
D39*
X7933013Y750000D02*
G03*
X7250000Y66987I-433013J-250000D01*
G01*
Y7935784D02*
G03*
X7933013Y7252771I250000J-433013D01*
G01*
X66987Y7254405D02*
G03*
X750000Y7937418I433013J250000D01*
G01*
Y66987D02*
G03*
X66987Y750000I-250000J433013D01*
G01*
D41*
X4588800Y6100000D02*
G03*
X4588800Y6100000I-150000J0D01*
G01*
X3216820Y2000000D02*
G03*
X3216820Y2000000I-150000J0D01*
G01*
X1360800Y5605400D02*
X1665600D01*
X1360800Y5046600D02*
Y5605400D01*
Y5046600D02*
X1665600D01*
Y5605400D01*
X2712600Y266000D02*
Y1768500D01*
X1135100D02*
X2712600D01*
X1135100Y266000D02*
Y1768500D01*
Y266000D02*
X2712600D01*
X4188800Y6501320D02*
X6703800D01*
Y5698680D02*
Y6501320D01*
X4188800Y5698680D02*
X6703800D01*
X4188800D02*
Y6501320D01*
X4207660Y4364380D02*
Y5636920D01*
Y4364380D02*
X7110880D01*
Y5636920D01*
X4207660D02*
X7110880D01*
X4860100Y2395040D02*
Y4300040D01*
Y2395040D02*
X7362000D01*
Y4300040D01*
X4860100D02*
X7362000D01*
X2799740Y2401320D02*
X4318660D01*
Y1598680D02*
Y2401320D01*
X2799740Y1598680D02*
X4318660D01*
X2799740D02*
Y2401320D01*
X2117200Y3144000D02*
Y6547600D01*
X4149200D01*
Y3144000D02*
Y6547600D01*
X2117200Y3144000D02*
X4149200D01*
X1360800Y3268600D02*
X1665600D01*
Y4843400D01*
X1360800Y3268600D02*
Y4843400D01*
X1665600D01*
X1360800Y5808600D02*
Y6367400D01*
X1665600D01*
Y5808600D02*
Y6367400D01*
X1360800Y5808600D02*
X1665600D01*
D42*
X4470300Y2065000D02*
Y2248000D01*
Y1498000D02*
Y1681000D01*
Y1498000D02*
X5181500D01*
Y1681000D01*
Y2065000D02*
Y2248000D01*
X4470300D02*
X5181500D01*
X6299100Y2065000D02*
Y2248000D01*
Y1498000D02*
Y1681000D01*
Y1498000D02*
X7010300D01*
Y1681000D01*
Y2065000D02*
Y2248000D01*
X6299100D02*
X7010300D01*
X1284666Y6504549D02*
Y6443608D01*
X1315136D01*
X1325293Y6453765D01*
Y6494392D01*
X1315136Y6504549D01*
X1284666D01*
X1345606D02*
Y6443608D01*
X1376076D01*
X1386233Y6453765D01*
Y6463922D01*
X1376076Y6474078D01*
X1345606D01*
X1376076D01*
X1386233Y6484235D01*
Y6494392D01*
X1376076Y6504549D01*
X1345606D01*
X1447173Y6494392D02*
X1437017Y6504549D01*
X1416703D01*
X1406547Y6494392D01*
Y6453765D01*
X1416703Y6443608D01*
X1437017D01*
X1447173Y6453765D01*
Y6474078D01*
X1426860D01*
X1467487Y6433452D02*
X1508114D01*
X1528427Y6443608D02*
Y6504549D01*
X1558897D01*
X1569054Y6494392D01*
Y6474078D01*
X1558897Y6463922D01*
X1528427D01*
X1589367Y6504549D02*
Y6443608D01*
X1609681Y6463922D01*
X1629994Y6443608D01*
Y6504549D01*
X1650307Y6443608D02*
Y6504549D01*
X1680777D01*
X1690934Y6494392D01*
Y6474078D01*
X1680777Y6463922D01*
X1650307D01*
X1670621D02*
X1690934Y6443608D01*
X7244953Y4843658D02*
X7184013D01*
Y4874128D01*
X7194170Y4884285D01*
X7214483D01*
X7224640Y4874128D01*
Y4843658D01*
Y4863971D02*
X7244953Y4884285D01*
X7184013Y4945225D02*
Y4904598D01*
X7244953D01*
Y4945225D01*
X7214483Y4904598D02*
Y4924911D01*
X7184013Y4965538D02*
X7244953D01*
Y5006165D01*
Y5026478D02*
X7204326D01*
X7184013Y5046792D01*
X7204326Y5067105D01*
X7244953D01*
X7214483D01*
Y5026478D01*
X7184013Y5087419D02*
X7194170D01*
X7214483Y5107732D01*
X7194170Y5128045D01*
X7184013D01*
X7214483Y5107732D02*
X7244953D01*
X3044096Y6617531D02*
Y6678472D01*
X3074566D01*
X3084723Y6668315D01*
Y6648001D01*
X3074566Y6637845D01*
X3044096D01*
X3145663Y6668315D02*
X3135506Y6678472D01*
X3115193D01*
X3105036Y6668315D01*
Y6658158D01*
X3115193Y6648001D01*
X3135506D01*
X3145663Y6637845D01*
Y6627688D01*
X3135506Y6617531D01*
X3115193D01*
X3105036Y6627688D01*
X3165976Y6678472D02*
Y6627688D01*
X3176133Y6617531D01*
X3196446D01*
X3206603Y6627688D01*
Y6678472D01*
X7427218Y3363129D02*
X7488158D01*
Y3403756D01*
Y3424070D02*
Y3444383D01*
Y3434226D01*
X7427218D01*
X7437375Y3424070D01*
X1274356Y5308974D02*
Y5288661D01*
Y5298818D01*
X1325140D01*
X1335297Y5288661D01*
Y5278504D01*
X1325140Y5268348D01*
X1335297Y5329288D02*
X1274356D01*
Y5359758D01*
X1284513Y5369915D01*
X1304826D01*
X1314983Y5359758D01*
Y5329288D01*
X1335297Y5390228D02*
Y5410541D01*
Y5400385D01*
X1274356D01*
X1284513Y5390228D01*
X1271910Y3982375D02*
Y4002688D01*
Y3992531D01*
X1332850D01*
Y3982375D01*
Y4002688D01*
X1282067Y4073785D02*
X1271910Y4063628D01*
Y4043315D01*
X1282067Y4033158D01*
X1322693D01*
X1332850Y4043315D01*
Y4063628D01*
X1322693Y4073785D01*
X1282067Y4134725D02*
X1271910Y4124568D01*
Y4104255D01*
X1282067Y4094098D01*
X1292223D01*
X1302380Y4104255D01*
Y4124568D01*
X1312537Y4134725D01*
X1322693D01*
X1332850Y4124568D01*
Y4104255D01*
X1322693Y4094098D01*
X1332850Y4155038D02*
X1271910D01*
Y4185509D01*
X1282067Y4195665D01*
X1302380D01*
X1312537Y4185509D01*
Y4155038D01*
X1641492Y1896048D02*
X1631335Y1906204D01*
X1611021D01*
X1600865Y1896048D01*
Y1855421D01*
X1611021Y1845264D01*
X1631335D01*
X1641492Y1855421D01*
X1692275Y1906204D02*
X1671962D01*
X1661805Y1896048D01*
Y1855421D01*
X1671962Y1845264D01*
X1692275D01*
X1702432Y1855421D01*
Y1896048D01*
X1692275Y1906204D01*
X1722745Y1845264D02*
Y1906204D01*
X1763372Y1845264D01*
Y1906204D01*
X1783685D02*
X1824312D01*
X1803999D01*
Y1845264D01*
X1844625D02*
Y1906204D01*
X1875096D01*
X1885252Y1896048D01*
Y1875734D01*
X1875096Y1865577D01*
X1844625D01*
X1864939D02*
X1885252Y1845264D01*
X1936036Y1906204D02*
X1915722D01*
X1905566Y1896048D01*
Y1855421D01*
X1915722Y1845264D01*
X1936036D01*
X1946192Y1855421D01*
Y1896048D01*
X1936036Y1906204D01*
X1966506D02*
Y1845264D01*
X2007133D01*
X2027446Y1906204D02*
Y1845264D01*
X2068073D01*
X2129013Y1906204D02*
X2088386D01*
Y1845264D01*
X2129013D01*
X2088386Y1875734D02*
X2108700D01*
X2149326Y1845264D02*
Y1906204D01*
X2179797D01*
X2189953Y1896048D01*
Y1875734D01*
X2179797Y1865577D01*
X2149326D01*
X2169640D02*
X2189953Y1845264D01*
D64*
X4621448Y7131564D02*
Y7281516D01*
X4696423D01*
X4721415Y7256524D01*
Y7206540D01*
X4696423Y7181548D01*
X4621448D01*
X4771399Y7281516D02*
Y7131564D01*
X4821383Y7181548D01*
X4871367Y7131564D01*
Y7281516D01*
X4921351Y7131564D02*
Y7281516D01*
X4971334Y7231532D01*
X5021318Y7281516D01*
Y7131564D01*
X5371205D02*
Y7281516D01*
X5421189Y7231532D01*
X5471172Y7281516D01*
Y7131564D01*
X5521156D02*
Y7231532D01*
X5571140Y7281516D01*
X5621124Y7231532D01*
Y7131564D01*
Y7206540D01*
X5521156D01*
X5671108Y7281516D02*
X5721092D01*
X5696100D01*
Y7131564D01*
X5671108D01*
X5721092D01*
X5796067D02*
Y7281516D01*
X5896035Y7131564D01*
Y7281516D01*
X6045986Y7256524D02*
X6020995Y7281516D01*
X5971011D01*
X5946019Y7256524D01*
Y7231532D01*
X5971011Y7206540D01*
X6020995D01*
X6045986Y7181548D01*
Y7156556D01*
X6020995Y7131564D01*
X5971011D01*
X5946019Y7156556D01*
X6320897Y7281516D02*
X6270914D01*
X6245922Y7256524D01*
Y7156556D01*
X6270914Y7131564D01*
X6320897D01*
X6345889Y7156556D01*
Y7256524D01*
X6320897Y7281516D01*
X6395873D02*
Y7156556D01*
X6420865Y7131564D01*
X6470849D01*
X6495841Y7156556D01*
Y7281516D01*
X6545825D02*
X6645792D01*
X6595808D01*
Y7131564D01*
X3031478Y871860D02*
Y1021812D01*
X3081462Y971828D01*
X3131446Y1021812D01*
Y871860D01*
X3181430D02*
Y971828D01*
X3231413Y1021812D01*
X3281397Y971828D01*
Y871860D01*
Y946836D01*
X3181430D01*
X3331381Y1021812D02*
X3381365D01*
X3356373D01*
Y871860D01*
X3331381D01*
X3381365D01*
X3456341D02*
Y1021812D01*
X3556308Y871860D01*
Y1021812D01*
X3706260Y996820D02*
X3681268Y1021812D01*
X3631284D01*
X3606292Y996820D01*
Y971828D01*
X3631284Y946836D01*
X3681268D01*
X3706260Y921844D01*
Y896852D01*
X3681268Y871860D01*
X3631284D01*
X3606292Y896852D01*
X3756243Y846869D02*
X3856211D01*
X3906195Y1021812D02*
X3956179D01*
X3931187D01*
Y871860D01*
X3906195D01*
X3956179D01*
X4031154D02*
Y1021812D01*
X4131122Y871860D01*
Y1021812D01*
X5322816Y1374708D02*
X5222849D01*
Y1299732D01*
X5272832D01*
X5222849D01*
Y1224757D01*
X5372800Y1374708D02*
Y1249748D01*
X5397792Y1224757D01*
X5447776D01*
X5472768Y1249748D01*
Y1374708D01*
X5622719Y1349716D02*
X5597727Y1374708D01*
X5547743D01*
X5522751Y1349716D01*
Y1324724D01*
X5547743Y1299732D01*
X5597727D01*
X5622719Y1274740D01*
Y1249748D01*
X5597727Y1224757D01*
X5547743D01*
X5522751Y1249748D01*
X5772670Y1374708D02*
X5672703D01*
Y1224757D01*
X5772670D01*
X5672703Y1299732D02*
X5722687D01*
X6072573Y1374708D02*
X5972606D01*
Y1299732D01*
X6022590Y1324724D01*
X6047582D01*
X6072573Y1299732D01*
Y1249748D01*
X6047582Y1224757D01*
X5997598D01*
X5972606Y1249748D01*
X6122557Y1224757D02*
Y1324724D01*
X6172541Y1374708D01*
X6222525Y1324724D01*
Y1224757D01*
Y1299732D01*
X6122557D01*
%TF.MD5,a596c79e4e470e8e081026c04e6d758f*%
M02*
