%TF.GenerationSoftware,Altium Limited,Altium Designer,20.1.8 (145)*%
G04 Layer_Physical_Order=1*
G04 Layer_Color=2232046*
%FSLAX45Y45*%
%MOMM*%
%TF.SameCoordinates,6D2D8FCC-EB96-405E-AB85-A4400E8CD33B*%
%TF.FilePolarity,Positive*%
%TF.FileFunction,Copper,L1,Top,Signal*%
%TF.Part,Single*%
G01*
G75*
%TA.AperFunction,Conductor*%
%ADD10C,0.12700*%
%ADD11C,2.20000*%
%ADD12C,0.40640*%
%TA.AperFunction,ComponentPad*%
%ADD13C,1.52400*%
%ADD14C,3.25120*%
%ADD15C,1.80000*%
%ADD16C,2.00000*%
%ADD17C,1.50000*%
%ADD18O,2.20000X2.70000*%
%ADD19O,1.50000X3.00000*%
G04:AMPARAMS|DCode=20|XSize=1.5mm|YSize=1.45mm|CornerRadius=0.18125mm|HoleSize=0mm|Usage=FLASHONLY|Rotation=270.000|XOffset=0mm|YOffset=0mm|HoleType=Round|Shape=RoundedRectangle|*
%AMROUNDEDRECTD20*
21,1,1.50000,1.08750,0,0,270.0*
21,1,1.13750,1.45000,0,0,270.0*
1,1,0.36250,-0.54375,-0.56875*
1,1,0.36250,-0.54375,0.56875*
1,1,0.36250,0.54375,0.56875*
1,1,0.36250,0.54375,-0.56875*
%
%ADD20ROUNDEDRECTD20*%
%ADD21O,1.45000X1.50000*%
%TA.AperFunction,ViaPad*%
%ADD22C,5.00000*%
%ADD23C,0.70000*%
G36*
X7592691Y7965991D02*
X7652723Y7949906D01*
X7710141Y7926122D01*
X7763962Y7895049D01*
X7813268Y7857215D01*
X7857214Y7813269D01*
X7895049Y7763961D01*
X7926122Y7710141D01*
X7949906Y7652723D01*
X7965991Y7592691D01*
X7974104Y7531074D01*
X7974103Y7500000D01*
X7974104Y500000D01*
Y468926D01*
X7965991Y407308D01*
X7949906Y347277D01*
X7926122Y289858D01*
X7895049Y236038D01*
X7857215Y186731D01*
X7813269Y142786D01*
X7763961Y104950D01*
X7710141Y73877D01*
X7652723Y50093D01*
X7592692Y34008D01*
X7531074Y25896D01*
X468926D01*
X407308Y34008D01*
X347277Y50093D01*
X289858Y73877D01*
X236038Y104950D01*
X186731Y142785D01*
X142786Y186730D01*
X104950Y236038D01*
X73877Y289858D01*
X50093Y347277D01*
X34008Y407308D01*
X25896Y468926D01*
X25897Y500000D01*
X25896Y7500000D01*
Y7531074D01*
X34008Y7592692D01*
X50093Y7652723D01*
X73877Y7710141D01*
X104950Y7763962D01*
X142785Y7813268D01*
X186730Y7857214D01*
X236038Y7895049D01*
X289858Y7926122D01*
X347277Y7949906D01*
X407308Y7965991D01*
X468926Y7974104D01*
X7531074D01*
X7592691Y7965991D01*
D02*
G37*
%LPC*%
G36*
X4501593Y6799385D02*
X1773404Y6799383D01*
X1753894Y6795503D01*
X1737356Y6784452D01*
X1251552Y6298648D01*
X1240501Y6282109D01*
X1236620Y6262600D01*
X1236622Y3124201D01*
X1240502Y3104692D01*
X1251554Y3088153D01*
X1268092Y3077102D01*
X1287601Y3073221D01*
X1981199Y3073219D01*
X2000709Y3077100D01*
X2017248Y3088151D01*
X2028299Y3104689D01*
X2032179Y3124198D01*
X2032178Y4085081D01*
X2239508Y4292411D01*
X4546605Y4292424D01*
X4566114Y4296305D01*
X4582653Y4307356D01*
X4785850Y4510554D01*
X4796900Y4527093D01*
X4800781Y4546602D01*
X4800781Y5678685D01*
X5135868Y6013772D01*
X5135868Y6013772D01*
X5135869Y6013773D01*
X5141366Y6022000D01*
X5146919Y6030311D01*
X5146919Y6030312D01*
X5146919Y6030312D01*
X5148693Y6039233D01*
X5150799Y6049820D01*
X5150799Y6049821D01*
X5150799Y6049821D01*
X5150796Y6150185D01*
X5146915Y6169694D01*
X5141876Y6177235D01*
X5135865Y6186232D01*
X4537641Y6784454D01*
X4521102Y6795505D01*
X4501593Y6799385D01*
D02*
G37*
G36*
X6589443Y6461617D02*
X5790426Y6461498D01*
X5689169Y6360226D01*
X5683454Y6355345D01*
X5678564Y6349620D01*
X5578038Y6249079D01*
X5578037Y6104455D01*
X5577687Y6100000D01*
Y4524818D01*
X5455654Y4402786D01*
X5454204Y4401088D01*
X4826930Y3773814D01*
X2747725Y3773786D01*
X2556290Y3582353D01*
X2556294Y3162173D01*
X3201585Y2516865D01*
X3201586Y1852656D01*
X3568430Y1485833D01*
X7183649Y1485828D01*
X7287141Y1589320D01*
X7291046Y1592654D01*
X7294380Y1596559D01*
X7412582Y1714760D01*
X7412583Y5638616D01*
X6589443Y6461617D01*
D02*
G37*
G36*
X2176600Y1330089D02*
X2143655Y1325751D01*
X2112955Y1313035D01*
X2086593Y1292807D01*
X2083890Y1289284D01*
X2066110D01*
X2063407Y1292807D01*
X2037044Y1313035D01*
X2006345Y1325751D01*
X1973400Y1330089D01*
X1940455Y1325751D01*
X1909755Y1313035D01*
X1883393Y1292807D01*
X1880690Y1289284D01*
X1862910D01*
X1860207Y1292807D01*
X1833844Y1313035D01*
X1803145Y1325751D01*
X1770200Y1330089D01*
X1737255Y1325751D01*
X1706555Y1313035D01*
X1680193Y1292807D01*
X1677490Y1289284D01*
X1659710D01*
X1657007Y1292807D01*
X1630644Y1313035D01*
X1599945Y1325751D01*
X1567000Y1330089D01*
X1534055Y1325751D01*
X1503355Y1313035D01*
X1476993Y1292807D01*
X1456765Y1266445D01*
X1444048Y1235745D01*
X1439711Y1202800D01*
X1444048Y1169855D01*
X1456765Y1139155D01*
X1476993Y1112793D01*
X1503355Y1092565D01*
X1534055Y1079848D01*
X1539174Y1079175D01*
X1548064Y1063776D01*
X1545648Y1057945D01*
X1541311Y1025000D01*
X1545648Y992055D01*
X1558365Y961355D01*
X1578593Y934993D01*
X1604955Y914765D01*
X1635655Y902048D01*
X1668600Y897711D01*
X1701545Y902048D01*
X1732244Y914765D01*
X1758607Y934993D01*
X1761310Y938516D01*
X1779090D01*
X1781793Y934993D01*
X1808155Y914765D01*
X1838855Y902048D01*
X1871800Y897711D01*
X1904745Y902048D01*
X1935444Y914765D01*
X1961807Y934993D01*
X1964510Y938516D01*
X1982290D01*
X1984993Y934993D01*
X2011355Y914765D01*
X2042055Y902048D01*
X2075000Y897711D01*
X2107945Y902048D01*
X2138644Y914765D01*
X2165007Y934993D01*
X2167710Y938516D01*
X2185490D01*
X2188193Y934993D01*
X2214555Y914765D01*
X2245255Y902048D01*
X2278200Y897711D01*
X2311145Y902048D01*
X2341844Y914765D01*
X2368207Y934993D01*
X2388435Y961355D01*
X2401151Y992055D01*
X2405489Y1025000D01*
X2401151Y1057945D01*
X2388435Y1088645D01*
X2368207Y1115007D01*
X2341844Y1135235D01*
X2311145Y1147951D01*
X2306026Y1148625D01*
X2297136Y1164024D01*
X2299551Y1169855D01*
X2303889Y1202800D01*
X2299551Y1235745D01*
X2286835Y1266445D01*
X2266607Y1292807D01*
X2240244Y1313035D01*
X2209545Y1325751D01*
X2176600Y1330089D01*
D02*
G37*
G36*
X2557600Y984588D02*
X2515931Y980484D01*
X2475863Y968330D01*
X2438937Y948592D01*
X2406570Y922030D01*
X2380008Y889663D01*
X2360270Y852737D01*
X2348116Y812669D01*
X2344012Y771000D01*
X2348116Y729331D01*
X2360270Y689263D01*
X2380008Y652337D01*
X2406570Y619970D01*
X2438937Y593408D01*
X2475863Y573670D01*
X2515931Y561516D01*
X2557600Y557412D01*
X2599269Y561516D01*
X2639337Y573670D01*
X2676263Y593408D01*
X2708630Y619970D01*
X2735192Y652337D01*
X2754930Y689263D01*
X2767084Y729331D01*
X2771188Y771000D01*
X2767084Y812669D01*
X2754930Y852737D01*
X2735192Y889663D01*
X2708630Y922030D01*
X2676263Y948592D01*
X2639337Y968330D01*
X2599269Y980484D01*
X2557600Y984588D01*
D02*
G37*
G36*
X1287600D02*
X1245931Y980484D01*
X1205863Y968330D01*
X1168937Y948592D01*
X1136570Y922030D01*
X1110008Y889663D01*
X1090270Y852737D01*
X1078116Y812669D01*
X1074012Y771000D01*
X1078116Y729331D01*
X1090270Y689263D01*
X1110008Y652337D01*
X1136570Y619970D01*
X1168937Y593408D01*
X1205863Y573670D01*
X1245931Y561516D01*
X1287600Y557412D01*
X1329269Y561516D01*
X1369337Y573670D01*
X1406263Y593408D01*
X1438630Y619970D01*
X1465192Y652337D01*
X1484930Y689263D01*
X1497084Y729331D01*
X1501188Y771000D01*
X1497084Y812669D01*
X1484930Y852737D01*
X1465192Y889663D01*
X1438630Y922030D01*
X1406263Y948592D01*
X1369337Y968330D01*
X1329269Y980484D01*
X1287600Y984588D01*
D02*
G37*
%LPD*%
G36*
X5099817Y6150184D02*
X5099820Y6049820D01*
X4749801Y5699801D01*
X4749802Y4546602D01*
X4546605Y4343404D01*
X2218391Y4343391D01*
X1981198Y4106197D01*
X1981200Y3124199D01*
X1287601Y3124201D01*
X1287600Y6262600D01*
X1773404Y6748404D01*
X4501593Y6748406D01*
X5099817Y6150184D01*
D02*
G37*
%LPC*%
G36*
X2375898Y6474385D02*
Y6325299D01*
X2451657D01*
Y6387600D01*
X2448643Y6410495D01*
X2439806Y6431829D01*
X2425748Y6450149D01*
X2407428Y6464206D01*
X2386094Y6473043D01*
X2375898Y6474385D01*
D02*
G37*
G36*
X2350498Y6474385D02*
X2340306Y6473043D01*
X2318972Y6464206D01*
X2300652Y6450149D01*
X2286594Y6431829D01*
X2277757Y6410495D01*
X2274743Y6387600D01*
Y6325299D01*
X2350498D01*
Y6474385D01*
D02*
G37*
G36*
X1525900Y6302995D02*
Y6227696D01*
X1601196D01*
X1599812Y6238207D01*
X1590854Y6259834D01*
X1576604Y6278404D01*
X1558034Y6292654D01*
X1536408Y6301612D01*
X1525900Y6302995D01*
D02*
G37*
G36*
X1500500D02*
X1489993Y6301612D01*
X1468367Y6292654D01*
X1449796Y6278404D01*
X1435546Y6259834D01*
X1426588Y6238207D01*
X1425205Y6227696D01*
X1500500D01*
Y6302995D01*
D02*
G37*
G36*
X2350498Y6299899D02*
X2274743D01*
Y6237600D01*
X2277757Y6214706D01*
X2286594Y6193372D01*
X2300652Y6175052D01*
X2318972Y6160995D01*
X2340306Y6152158D01*
X2350498Y6150816D01*
Y6299899D01*
D02*
G37*
G36*
X2451657D02*
X2375898D01*
Y6150815D01*
X2386094Y6152158D01*
X2407428Y6160995D01*
X2425748Y6175052D01*
X2439806Y6193372D01*
X2448643Y6214706D01*
X2451657Y6237600D01*
Y6299899D01*
D02*
G37*
G36*
X3903200Y6476057D02*
X3880306Y6473043D01*
X3858972Y6464206D01*
X3840652Y6450149D01*
X3826594Y6431829D01*
X3817757Y6410495D01*
X3814743Y6387600D01*
Y6237600D01*
X3817757Y6214706D01*
X3826594Y6193372D01*
X3840652Y6175052D01*
X3858972Y6160995D01*
X3880306Y6152158D01*
X3903200Y6149144D01*
X3926094Y6152158D01*
X3947428Y6160995D01*
X3965748Y6175052D01*
X3979806Y6193372D01*
X3988643Y6214706D01*
X3991656Y6237600D01*
Y6387600D01*
X3988643Y6410495D01*
X3979806Y6431829D01*
X3965748Y6450149D01*
X3947428Y6464206D01*
X3926094Y6473043D01*
X3903200Y6476057D01*
D02*
G37*
G36*
X1500500Y6202296D02*
X1425206D01*
X1426588Y6191793D01*
X1435546Y6170166D01*
X1449796Y6151596D01*
X1468367Y6137346D01*
X1489993Y6128388D01*
X1500500Y6127005D01*
Y6202296D01*
D02*
G37*
G36*
X1601195D02*
X1525900D01*
Y6127005D01*
X1536408Y6128388D01*
X1558034Y6137346D01*
X1576604Y6151596D01*
X1590854Y6170166D01*
X1599812Y6191793D01*
X1601195Y6202296D01*
D02*
G37*
G36*
X4951500Y6201914D02*
Y6112700D01*
X5040714D01*
X5038856Y6126810D01*
X5028508Y6151793D01*
X5012046Y6173246D01*
X4990593Y6189708D01*
X4965610Y6200056D01*
X4951500Y6201914D01*
D02*
G37*
G36*
X4926100D02*
X4911990Y6200056D01*
X4887007Y6189708D01*
X4865553Y6173246D01*
X4849092Y6151793D01*
X4838743Y6126810D01*
X4836886Y6112700D01*
X4926100D01*
Y6201914D01*
D02*
G37*
G36*
X5040714Y6087300D02*
X4951500D01*
Y5998086D01*
X4965610Y5999943D01*
X4990593Y6010292D01*
X5012046Y6026753D01*
X5028508Y6048207D01*
X5038856Y6073190D01*
X5040714Y6087300D01*
D02*
G37*
G36*
X4926100D02*
X4836886D01*
X4838743Y6073190D01*
X4849092Y6048207D01*
X4865553Y6026753D01*
X4887007Y6010292D01*
X4911990Y5999943D01*
X4926100Y5998086D01*
Y6087300D01*
D02*
G37*
G36*
X4438800Y6203586D02*
X4411990Y6200056D01*
X4387007Y6189708D01*
X4365553Y6173246D01*
X4349092Y6151793D01*
X4338743Y6126810D01*
X4335214Y6100000D01*
X4338743Y6073190D01*
X4349092Y6048207D01*
X4365553Y6026753D01*
X4387007Y6010292D01*
X4411990Y5999943D01*
X4438800Y5996414D01*
X4465610Y5999943D01*
X4490593Y6010292D01*
X4512046Y6026753D01*
X4528508Y6048207D01*
X4538856Y6073190D01*
X4542386Y6100000D01*
X4538856Y6126810D01*
X4528508Y6151793D01*
X4512046Y6173246D01*
X4490593Y6189708D01*
X4465610Y6200056D01*
X4438800Y6203586D01*
D02*
G37*
G36*
X1513200Y6050667D02*
X1489993Y6047612D01*
X1468367Y6038654D01*
X1449796Y6024404D01*
X1435546Y6005834D01*
X1426588Y5984207D01*
X1423533Y5961000D01*
X1426588Y5937793D01*
X1435546Y5916166D01*
X1449796Y5897596D01*
X1468367Y5883346D01*
X1489993Y5874388D01*
X1513200Y5871333D01*
X1536408Y5874388D01*
X1558034Y5883346D01*
X1576604Y5897596D01*
X1590854Y5916166D01*
X1599812Y5937793D01*
X1602867Y5961000D01*
X1599812Y5984207D01*
X1590854Y6005834D01*
X1576604Y6024404D01*
X1558034Y6038654D01*
X1536408Y6047612D01*
X1513200Y6050667D01*
D02*
G37*
G36*
Y5542667D02*
X1489993Y5539612D01*
X1468367Y5530654D01*
X1449796Y5516404D01*
X1435546Y5497834D01*
X1426588Y5476207D01*
X1423533Y5453000D01*
X1426588Y5429793D01*
X1435546Y5408166D01*
X1449796Y5389596D01*
X1468367Y5375346D01*
X1489993Y5366388D01*
X1513200Y5363333D01*
X1536408Y5366388D01*
X1558034Y5375346D01*
X1576604Y5389596D01*
X1590854Y5408166D01*
X1599812Y5429793D01*
X1602867Y5453000D01*
X1599812Y5476207D01*
X1590854Y5497834D01*
X1576604Y5516404D01*
X1558034Y5530654D01*
X1536408Y5539612D01*
X1513200Y5542667D01*
D02*
G37*
G36*
X4438800Y5489673D02*
X4409379Y5485799D01*
X4381964Y5474443D01*
X4358421Y5456378D01*
X4340357Y5432836D01*
X4329000Y5405420D01*
X4325127Y5376000D01*
X4329000Y5346579D01*
X4340357Y5319164D01*
X4358421Y5295621D01*
X4381964Y5277557D01*
X4409379Y5266201D01*
X4438800Y5262327D01*
X4468220Y5266201D01*
X4495636Y5277557D01*
X4519178Y5295621D01*
X4537243Y5319164D01*
X4548599Y5346579D01*
X4552472Y5376000D01*
X4548599Y5405420D01*
X4537243Y5432836D01*
X4519178Y5456378D01*
X4495636Y5474443D01*
X4468220Y5485799D01*
X4438800Y5489673D01*
D02*
G37*
G36*
X1513200Y5288667D02*
X1489993Y5285612D01*
X1468367Y5276654D01*
X1449796Y5262404D01*
X1435546Y5243834D01*
X1426588Y5222207D01*
X1423533Y5199000D01*
X1426588Y5175793D01*
X1435546Y5154166D01*
X1449796Y5135596D01*
X1468367Y5121346D01*
X1489993Y5112388D01*
X1513200Y5109333D01*
X1536408Y5112388D01*
X1558034Y5121346D01*
X1576604Y5135596D01*
X1590854Y5154166D01*
X1599812Y5175793D01*
X1602867Y5199000D01*
X1599812Y5222207D01*
X1590854Y5243834D01*
X1576604Y5262404D01*
X1558034Y5276654D01*
X1536408Y5285612D01*
X1513200Y5288667D01*
D02*
G37*
G36*
X2771600Y5026894D02*
X2752988Y5023192D01*
X2737210Y5012650D01*
X2726667Y4996872D01*
X2722965Y4978260D01*
X2726667Y4959648D01*
X2737210Y4943870D01*
X2752177Y4933870D01*
Y4816590D01*
X2737210Y4806590D01*
X2726667Y4790812D01*
X2722965Y4772200D01*
X2726667Y4753589D01*
X2737210Y4737810D01*
X2752988Y4727268D01*
X2771600Y4723566D01*
X2790211Y4727268D01*
X2805990Y4737810D01*
X2816532Y4753589D01*
X2820234Y4772200D01*
X2816532Y4790812D01*
X2805990Y4806590D01*
X2791023Y4816590D01*
Y4933870D01*
X2805990Y4943870D01*
X2816532Y4959648D01*
X2820234Y4978260D01*
X2816532Y4996872D01*
X2805990Y5012650D01*
X2790211Y5023192D01*
X2771600Y5026894D01*
D02*
G37*
G36*
X1567575Y4779304D02*
X1458825D01*
X1446798Y4776911D01*
X1436601Y4770099D01*
X1429789Y4759902D01*
X1427396Y4747875D01*
Y4634125D01*
X1429789Y4622098D01*
X1436601Y4611901D01*
X1446798Y4605089D01*
X1458825Y4602696D01*
X1567575D01*
X1579603Y4605089D01*
X1589799Y4611901D01*
X1596612Y4622098D01*
X1599004Y4634125D01*
Y4747875D01*
X1596612Y4759902D01*
X1589799Y4770099D01*
X1579603Y4776911D01*
X1567575Y4779304D01*
D02*
G37*
G36*
X2895600Y5026894D02*
X2876988Y5023192D01*
X2861210Y5012650D01*
X2850668Y4996872D01*
X2846966Y4978260D01*
X2850668Y4959648D01*
X2861210Y4943870D01*
X2876177Y4933870D01*
Y4616390D01*
X2861210Y4606390D01*
X2850668Y4590612D01*
X2846966Y4572000D01*
X2850668Y4553388D01*
X2861210Y4537610D01*
X2876988Y4527068D01*
X2895600Y4523366D01*
X2914212Y4527068D01*
X2929990Y4537610D01*
X2940532Y4553388D01*
X2944234Y4572000D01*
X2940532Y4590612D01*
X2929990Y4606390D01*
X2915023Y4616390D01*
Y4933870D01*
X2929990Y4943870D01*
X2940532Y4959648D01*
X2944234Y4978260D01*
X2940532Y4996872D01*
X2929990Y5012650D01*
X2914212Y5023192D01*
X2895600Y5026894D01*
D02*
G37*
G36*
X4438800Y4739673D02*
X4409379Y4735799D01*
X4381964Y4724443D01*
X4358421Y4706378D01*
X4340357Y4682836D01*
X4329000Y4655420D01*
X4325127Y4626000D01*
X4329000Y4596579D01*
X4340357Y4569164D01*
X4358421Y4545621D01*
X4381964Y4527557D01*
X4409379Y4516201D01*
X4438800Y4512327D01*
X4468220Y4516201D01*
X4495636Y4527557D01*
X4519178Y4545621D01*
X4537243Y4569164D01*
X4548599Y4596579D01*
X4552472Y4626000D01*
X4548599Y4655420D01*
X4537243Y4682836D01*
X4519178Y4706378D01*
X4495636Y4724443D01*
X4468220Y4735799D01*
X4438800Y4739673D01*
D02*
G37*
G36*
X1513200Y4525435D02*
X1490959Y4522507D01*
X1470233Y4513922D01*
X1452435Y4500265D01*
X1438778Y4482467D01*
X1430193Y4461741D01*
X1427265Y4439500D01*
Y4434500D01*
X1430193Y4412259D01*
X1438778Y4391533D01*
X1452435Y4373735D01*
X1470233Y4360078D01*
X1490959Y4351493D01*
X1513200Y4348565D01*
X1535442Y4351493D01*
X1556168Y4360078D01*
X1573965Y4373735D01*
X1587622Y4391533D01*
X1596207Y4412259D01*
X1599135Y4434500D01*
Y4439500D01*
X1596207Y4461741D01*
X1587622Y4482467D01*
X1573965Y4500265D01*
X1556168Y4513922D01*
X1535442Y4522507D01*
X1513200Y4525435D01*
D02*
G37*
G36*
X1525904Y4269762D02*
Y4195700D01*
X1597792D01*
X1596207Y4207741D01*
X1587622Y4228467D01*
X1573965Y4246265D01*
X1556168Y4259922D01*
X1535442Y4268507D01*
X1525904Y4269762D01*
D02*
G37*
G36*
X1500504Y4269763D02*
X1490959Y4268507D01*
X1470233Y4259922D01*
X1452435Y4246265D01*
X1438778Y4228467D01*
X1430193Y4207741D01*
X1428608Y4195700D01*
X1500504D01*
Y4269763D01*
D02*
G37*
G36*
X1597792Y4170300D02*
X1525904D01*
Y4096238D01*
X1535442Y4097493D01*
X1556168Y4106078D01*
X1573965Y4119735D01*
X1587622Y4137533D01*
X1596207Y4158259D01*
X1597792Y4170300D01*
D02*
G37*
G36*
X1500504D02*
X1428608D01*
X1430193Y4158259D01*
X1438778Y4137533D01*
X1452435Y4119735D01*
X1470233Y4106078D01*
X1490959Y4097493D01*
X1500504Y4096237D01*
Y4170300D01*
D02*
G37*
G36*
X1513200Y4017435D02*
X1490959Y4014507D01*
X1470233Y4005922D01*
X1452435Y3992265D01*
X1438778Y3974467D01*
X1430193Y3953741D01*
X1427265Y3931500D01*
Y3926500D01*
X1430193Y3904259D01*
X1438778Y3883533D01*
X1452435Y3865735D01*
X1470233Y3852078D01*
X1490959Y3843493D01*
X1513200Y3840565D01*
X1535442Y3843493D01*
X1556168Y3852078D01*
X1573965Y3865735D01*
X1587622Y3883533D01*
X1596207Y3904259D01*
X1599135Y3926500D01*
Y3931500D01*
X1596207Y3953741D01*
X1587622Y3974467D01*
X1573965Y3992265D01*
X1556168Y4005922D01*
X1535442Y4014507D01*
X1513200Y4017435D01*
D02*
G37*
G36*
Y3763435D02*
X1490959Y3760507D01*
X1470233Y3751922D01*
X1452435Y3738265D01*
X1438778Y3720467D01*
X1430193Y3699741D01*
X1427265Y3677500D01*
Y3672500D01*
X1430193Y3650259D01*
X1438778Y3629533D01*
X1452435Y3611735D01*
X1470233Y3598078D01*
X1490959Y3589493D01*
X1513200Y3586565D01*
X1535442Y3589493D01*
X1556168Y3598078D01*
X1573965Y3611735D01*
X1587622Y3629533D01*
X1596207Y3650259D01*
X1599135Y3672500D01*
Y3677500D01*
X1596207Y3699741D01*
X1587622Y3720467D01*
X1573965Y3738265D01*
X1556168Y3751922D01*
X1535442Y3760507D01*
X1513200Y3763435D01*
D02*
G37*
G36*
Y3509435D02*
X1490959Y3506507D01*
X1470233Y3497922D01*
X1452435Y3484265D01*
X1438778Y3466467D01*
X1430193Y3445741D01*
X1427265Y3423500D01*
Y3418500D01*
X1430193Y3396259D01*
X1438778Y3375533D01*
X1452435Y3357735D01*
X1470233Y3344078D01*
X1490959Y3335493D01*
X1513200Y3332565D01*
X1535442Y3335493D01*
X1556168Y3344078D01*
X1573965Y3357735D01*
X1587622Y3375533D01*
X1596207Y3396259D01*
X1599135Y3418500D01*
Y3423500D01*
X1596207Y3445741D01*
X1587622Y3466467D01*
X1573965Y3484265D01*
X1556168Y3497922D01*
X1535442Y3506507D01*
X1513200Y3509435D01*
D02*
G37*
%LPD*%
D10*
X2771600Y4772200D02*
Y4978260D01*
X2895600Y4572000D02*
Y4978260D01*
D11*
X6938800Y4397130D02*
Y5376000D01*
X6689110Y4147440D02*
X6938800Y4397130D01*
X6511000Y4147440D02*
X6689110D01*
X5711000D02*
X5938800Y4375240D01*
Y6100000D01*
X6511000Y1873000D02*
Y2547440D01*
X6273700Y1873000D02*
X6511000D01*
X6511000Y1873000D01*
Y1873000D02*
X7035700D01*
X4444900D02*
X5206900D01*
X4193820D02*
X4444900D01*
X4066820Y2000000D02*
X4193820Y1873000D01*
X6438800Y5376000D02*
Y6100000D01*
Y4626000D02*
Y5376000D01*
X3566820Y2000000D02*
Y2291820D01*
X3822440Y2547440D01*
X5711000D01*
D12*
X3383200Y3372600D02*
X4936160D01*
X5711000Y4147440D01*
X3240164Y2952280D02*
X5315840D01*
X6511000Y4147440D01*
X2883200Y3309244D02*
Y3372600D01*
Y3309244D02*
X3240164Y2952280D01*
D13*
X1513200Y5199000D02*
D03*
Y5453000D02*
D03*
X1668600Y1025000D02*
D03*
X1567000Y1202800D02*
D03*
X1871800Y1025000D02*
D03*
X1770200Y1202800D02*
D03*
X2075000Y1025000D02*
D03*
X1973400Y1202800D02*
D03*
X2278200Y1025000D02*
D03*
X2176600Y1202800D02*
D03*
X1513200Y5961000D02*
D03*
Y6215000D02*
D03*
D14*
X2557600Y771000D02*
D03*
X1287600D02*
D03*
D15*
X4438800Y6100000D02*
D03*
X4938800D02*
D03*
X5438800D02*
D03*
X5938800D02*
D03*
X6438800D02*
D03*
X3066820Y2000000D02*
D03*
X3566820D02*
D03*
X4066820D02*
D03*
D16*
X6938800Y4626000D02*
D03*
Y5376000D02*
D03*
X6438800Y4626000D02*
D03*
Y5376000D02*
D03*
X4438800D02*
D03*
Y4626000D02*
D03*
D17*
X5711000Y2547440D02*
D03*
X6511000D02*
D03*
Y4147440D02*
D03*
X5711000D02*
D03*
D18*
X5206900Y1873000D02*
D03*
X4444900D02*
D03*
X7035700D02*
D03*
X6273700D02*
D03*
D19*
X3903200Y6312600D02*
D03*
X2363200D02*
D03*
X3383200Y3372600D02*
D03*
X2883200D02*
D03*
D20*
X1513200Y4691000D02*
D03*
D21*
Y4437000D02*
D03*
Y4183000D02*
D03*
Y3929000D02*
D03*
Y3675000D02*
D03*
Y3421000D02*
D03*
D22*
X7500000Y7500000D02*
D03*
X500000D02*
D03*
X7500000Y500000D02*
D03*
X500000D02*
D03*
D23*
X4066540Y5349700D02*
D03*
X3710877Y4890936D02*
D03*
X3911259Y4721000D02*
D03*
X3809460Y4797304D02*
D03*
X3707583Y4721000D02*
D03*
X3373120Y5568136D02*
D03*
X1875956Y5288276D02*
D03*
X2188724Y5080000D02*
D03*
Y5257800D02*
D03*
X2188724Y5435600D02*
D03*
X3383460Y4557020D02*
D03*
X2771600Y4772200D02*
D03*
X2895600Y4978260D02*
D03*
Y4572000D02*
D03*
X2771600Y4978260D02*
D03*
X1677560Y3197480D02*
D03*
X1575960D02*
D03*
X1474360D02*
D03*
X1372760D02*
D03*
X2514161Y5856860D02*
D03*
X2761500D02*
D03*
X3994790Y5536460D02*
D03*
X3464292Y6040200D02*
D03*
X3548380Y5800080D02*
D03*
X3053360Y6185849D02*
D03*
%TF.MD5,70d3f230cebb0beb8b073e50ff1cc3d1*%
M02*
